<svg width="24" height="24" viewBox="0 0 24 24" fill="none" xmlns="http://www.w3.org/2000/svg">
<path d="M16.4073 16.5C18.8284 14.7228 20 12 20 12C20 12 17.4183 6 12 6C10.1849 6 8.68805 6.67337 7.5 7.56894" stroke="#757D8A" stroke-width="1.4" stroke-linejoin="round"/>
<path d="M10 9.76389C10.5308 9.28885 11.2316 9 12 9C13.6569 9 15 10.3431 15 12C15 12.7684 14.7111 13.4692 14.2361 14" stroke="#757D8A" stroke-width="1.4" stroke-linecap="round" stroke-linejoin="round"/>
<path d="M20 20L4.44365 4.44365" stroke="#757D8A" stroke-width="1.4" stroke-linecap="round" stroke-linejoin="round"/>
<path d="M12.5928 17.9752C12.399 17.9912 12.2013 17.9995 11.9997 17.9995C6.58146 17.9995 3.99974 11.9995 3.99974 11.9995C3.99974 11.9995 4.31094 11.2763 4.94401 10.332" stroke="#757D8A" stroke-width="1.4" stroke-linecap="round" stroke-linejoin="round"/>
</svg>
