<svg width="31" height="20" viewBox="0 0 31 20" fill="none" xmlns="http://www.w3.org/2000/svg">
<g filter="url(#filter0_b_22469_947381)">
<rect width="31" height="20" rx="4" fill="white" fill-opacity="0.68"/>
<path d="M8.424 8.192L7.104 9.548L6.132 8.528L8.652 5.996H10.14V14H8.424V8.192ZM11.3536 11.924C11.3536 11.46 11.5136 11.048 11.8336 10.688C12.1536 10.32 12.5656 10.048 13.0696 9.872C12.5896 9.712 12.2056 9.476 11.9176 9.164C11.6296 8.852 11.4856 8.46 11.4856 7.988C11.4856 7.516 11.6336 7.124 11.9296 6.812C12.2256 6.492 12.6056 6.256 13.0696 6.104C13.5416 5.952 14.0416 5.876 14.5696 5.876C15.0976 5.876 15.5936 5.952 16.0576 6.104C16.5296 6.256 16.9136 6.492 17.2096 6.812C17.5056 7.124 17.6536 7.516 17.6536 7.988C17.6536 8.46 17.5056 8.852 17.2096 9.164C16.9216 9.476 16.5376 9.712 16.0576 9.872C16.5616 10.048 16.9736 10.32 17.2936 10.688C17.6216 11.048 17.7856 11.46 17.7856 11.924C17.7856 12.404 17.6376 12.812 17.3416 13.148C17.0456 13.476 16.6536 13.724 16.1656 13.892C15.6776 14.06 15.1456 14.144 14.5696 14.144C13.9936 14.144 13.4616 14.06 12.9736 13.892C12.4856 13.724 12.0936 13.476 11.7976 13.148C11.5016 12.812 11.3536 12.404 11.3536 11.924ZM15.9136 8.252C15.9136 7.972 15.7896 7.752 15.5416 7.592C15.2936 7.424 14.9696 7.34 14.5696 7.34C14.1696 7.34 13.8416 7.424 13.5856 7.592C13.3376 7.752 13.2136 7.972 13.2136 8.252C13.2136 8.532 13.3576 8.752 13.6456 8.912C13.9336 9.072 14.2416 9.176 14.5696 9.224C14.8976 9.176 15.2016 9.072 15.4816 8.912C15.7696 8.752 15.9136 8.532 15.9136 8.252ZM16.0576 11.72C16.0576 11.408 15.8936 11.16 15.5656 10.976C15.2376 10.784 14.9056 10.668 14.5696 10.628C14.2336 10.668 13.9016 10.784 13.5736 10.976C13.2456 11.16 13.0816 11.408 13.0816 11.72C13.0816 12.008 13.2216 12.24 13.5016 12.416C13.7816 12.592 14.1376 12.68 14.5696 12.68C14.9856 12.68 15.3376 12.592 15.6256 12.416C15.9136 12.24 16.0576 12.008 16.0576 11.72ZM21.7629 12.86H20.7189V10.424H18.5589V9.476H20.7189V7.136H21.7629V9.476H23.9109V10.424H21.7629V12.86Z" fill="#101319"/>
</g>
<defs>
<filter id="filter0_b_22469_947381" x="-16" y="-16" width="63" height="52" filterUnits="userSpaceOnUse" color-interpolation-filters="sRGB">
<feFlood flood-opacity="0" result="BackgroundImageFix"/>
<feGaussianBlur in="BackgroundImage" stdDeviation="8"/>
<feComposite in2="SourceAlpha" operator="in" result="effect1_backgroundBlur_22469_947381"/>
<feBlend mode="normal" in="SourceGraphic" in2="effect1_backgroundBlur_22469_947381" result="shape"/>
</filter>
</defs>
</svg>
