<svg width="136" height="40" viewBox="0 0 136 40" fill="none" xmlns="http://www.w3.org/2000/svg">
<rect x="0.5" y="0.5" width="135" height="39" rx="3.5" fill="black" stroke="#22252C"/>
<path d="M32.9396 20.1764C32.9617 18.4636 33.8596 16.8815 35.3189 15.9844C34.3941 14.6637 32.9008 13.8564 31.2893 13.8059C29.5939 13.628 27.9503 14.8204 27.0864 14.8204C26.2057 14.8204 24.8755 13.8236 23.4432 13.8531C21.5585 13.914 19.8441 14.9595 18.9272 16.6072C16.9746 19.9878 18.4311 24.9562 20.3015 27.6888C21.2373 29.0269 22.331 30.5216 23.7621 30.4686C25.1625 30.4105 25.6855 29.5756 27.3759 29.5756C29.0507 29.5756 29.5414 30.4686 31.0015 30.4349C32.5042 30.4105 33.4509 29.0908 34.3539 27.7401C35.0263 26.7866 35.5437 25.7329 35.8869 24.6178C34.1022 23.863 32.9417 22.1142 32.9396 20.1764Z" fill="white"/>
<path d="M30.1816 12.0088C31.0009 11.0252 31.4046 9.76101 31.3068 8.48462C30.0551 8.61609 28.8988 9.21435 28.0684 10.1602C27.2484 11.0934 26.833 12.3143 26.9137 13.5539C28.1822 13.567 29.3867 12.9975 30.1816 12.0088Z" fill="white"/>
<path fill-rule="evenodd" clip-rule="evenodd" d="M45.8627 27.0818H50.6416L51.7883 30.4705H53.847L49.3205 17.9331H47.2174L42.6909 30.4705H44.7151L45.8627 27.0818ZM50.1457 25.5174H46.3577L48.2261 20.0177H48.2783L50.1457 25.5174Z" fill="white"/>
<path fill-rule="evenodd" clip-rule="evenodd" d="M59.8079 30.5654C62.1022 30.5654 63.6226 28.7404 63.6226 25.8999C63.6226 23.0673 62.0933 21.2334 59.7734 21.2334C58.5797 21.1949 57.4614 21.8158 56.8629 22.8494H56.8284V21.329H55.0122V33.4937H56.8885V28.9662H56.9319C57.5049 30.0063 58.622 30.6275 59.8079 30.5654ZM59.2785 22.8326C60.7377 22.8326 61.6941 24.0493 61.6941 25.8999C61.6941 27.7673 60.7378 28.9751 59.2785 28.9751C57.845 28.9751 56.8807 27.7417 56.8807 25.8999C56.8807 24.0749 57.845 22.8326 59.2785 22.8326Z" fill="white"/>
<path fill-rule="evenodd" clip-rule="evenodd" d="M69.8685 30.5654C72.1628 30.5654 73.6831 28.7404 73.6831 25.8999C73.6831 23.0672 72.1539 21.2334 69.8339 21.2334C68.6402 21.1949 67.5219 21.8158 66.9234 22.8493H66.8889V21.329H65.0728V33.4937H66.949V28.9662H66.9924C67.5655 30.0063 68.6826 30.6274 69.8685 30.5654ZM69.3388 22.8326C70.798 22.8326 71.7544 24.0493 71.7544 25.8999H71.7544C71.7544 27.7673 70.798 28.9751 69.3388 28.9751C67.9052 28.9751 66.9409 27.7417 66.9409 25.8999C66.9409 24.0749 67.9052 22.8326 69.3388 22.8326Z" fill="white"/>
<path d="M80.3325 26.9766C80.4716 28.2199 81.6794 29.0362 83.3298 29.0362C84.9113 29.0362 86.0491 28.2199 86.0491 27.0988C86.0491 26.1257 85.3629 25.543 83.738 25.1437L82.1132 24.7523C79.811 24.1962 78.7422 23.1195 78.7422 21.3724C78.7422 19.2092 80.6273 17.7234 83.3042 17.7234C85.9534 17.7234 87.7696 19.2092 87.8307 21.3724H85.9367C85.8233 20.1212 84.789 19.366 83.2775 19.366C81.7661 19.366 80.7318 20.1301 80.7318 21.2423C80.7318 22.1286 81.3924 22.6502 83.0084 23.0495L84.3897 23.3886C86.9621 23.997 88.0308 25.0303 88.0308 26.8641C88.0308 29.2097 86.1624 30.6788 83.1908 30.6788C80.4104 30.6788 78.5331 29.2442 78.4119 26.9765L80.3325 26.9766Z" fill="white"/>
<path d="M92.0801 19.166V21.3292H93.8184V22.815H92.0801V27.8542C92.0801 28.6371 92.4282 29.0019 93.1923 29.0019C93.3987 28.9983 93.6047 28.9838 93.8095 28.9585V30.4354C93.466 30.4996 93.1168 30.5287 92.7674 30.5222C90.9167 30.5222 90.195 29.8271 90.195 28.0543V22.815H88.866V21.3292H90.195V19.166H92.0801Z" fill="white"/>
<path fill-rule="evenodd" clip-rule="evenodd" d="M99.1604 21.2168C96.5191 21.2168 94.8252 23.024 94.8252 25.9001C94.8252 28.784 96.5023 30.5833 99.1604 30.5833C101.82 30.5833 103.497 28.784 103.497 25.9001C103.497 23.024 101.811 21.2168 99.1604 21.2168ZM99.1606 22.7627C100.681 22.7627 101.585 23.9271 101.585 25.9H101.585C101.585 27.8808 100.681 29.0363 99.1606 29.0363C97.6402 29.0363 96.7371 27.8808 96.7371 25.9C96.7371 23.936 97.6402 22.7627 99.1606 22.7627Z" fill="white"/>
<path d="M105.043 21.3292H106.833V22.885H106.876C107.126 21.8835 108.044 21.1942 109.075 21.2335C109.291 21.2328 109.507 21.2563 109.718 21.3035V23.0585C109.445 22.9751 109.16 22.9368 108.875 22.9452C108.323 22.9228 107.789 23.1426 107.414 23.5469C107.038 23.9513 106.857 24.4997 106.92 25.0482V30.4699H105.043L105.043 21.3292Z" fill="white"/>
<path fill-rule="evenodd" clip-rule="evenodd" d="M114.433 30.5833C116.5 30.5833 118.116 29.4445 118.369 27.7852L116.587 27.7852C116.245 28.6333 115.387 29.1562 114.476 29.0709C113.794 29.096 113.133 28.8266 112.662 28.3313C112.192 27.8359 111.957 27.1623 112.017 26.4818V26.3684H118.473V25.7255C118.473 22.954 116.883 21.2168 114.354 21.2168C111.783 21.2168 110.123 23.0763 110.123 25.9434C110.123 28.8017 111.774 30.5833 114.433 30.5833ZM116.596 25.0571L112.026 25.0571C112.025 24.4399 112.27 23.8477 112.707 23.4121C113.144 22.9764 113.737 22.7334 114.354 22.7371C114.966 22.724 115.556 22.9668 115.982 23.4072C116.408 23.8476 116.63 24.4456 116.596 25.0571Z" fill="white"/>
<path d="M45.0239 11.0421H45.8294C46.1097 11.077 46.3919 10.9932 46.6076 10.8108C46.8234 10.6284 46.953 10.3641 46.9652 10.0818C46.9652 9.52624 46.5472 9.16735 45.8383 9.16735C45.5512 9.12725 45.2602 9.20486 45.0313 9.38255C44.8023 9.56024 44.6549 9.82292 44.6226 10.1109H43.7381C43.7689 9.58784 44.0156 9.10106 44.4193 8.76697C44.8229 8.43287 45.3472 8.28148 45.8668 8.34901C47.0529 8.34901 47.8881 9.01304 47.8881 9.96893C47.8938 10.6288 47.4377 11.203 46.7937 11.3468V11.4178C47.565 11.452 48.1638 12.103 48.1336 12.8745C48.0782 13.4128 47.8084 13.906 47.3851 14.243C46.9617 14.5799 46.4205 14.7322 45.8836 14.6655C45.3455 14.7389 44.8006 14.5905 44.3739 14.2544C43.9473 13.9183 43.6755 13.4233 43.6208 12.8829H44.5191C44.5733 13.4592 45.1027 13.8309 45.8836 13.8309C46.6645 13.8309 47.1742 13.4134 47.1742 12.8248C47.1742 12.2278 46.6941 11.86 45.855 11.86H45.0239V11.0421Z" fill="white"/>
<path fill-rule="evenodd" clip-rule="evenodd" d="M50.8447 11.8766C49.7641 11.9437 49.1538 12.4154 49.1538 13.2338C49.1553 13.6218 49.3209 13.9911 49.6096 14.2503C49.8984 14.5095 50.2833 14.6345 50.6692 14.5944C51.2198 14.6198 51.7414 14.3471 52.0348 13.8806H52.1058V14.5195H52.9704V11.4132C52.9704 10.4529 52.3276 9.8855 51.1878 9.8855C50.1565 9.8855 49.421 10.3864 49.3293 11.1672H50.1979C50.2985 10.8458 50.6446 10.6619 51.1454 10.6619C51.7597 10.6619 52.0762 10.9331 52.0762 11.4132V11.8056L50.8447 11.8766ZM52.0765 12.4652V12.8453C52.0569 13.135 51.9205 13.4044 51.6986 13.5917C51.4767 13.7791 51.1882 13.8683 50.8993 13.8391C50.4112 13.8391 50.0562 13.601 50.0562 13.1918C50.0562 12.791 50.3402 12.5781 50.9663 12.5362L52.0765 12.4652Z" fill="white"/>
<path d="M55.3518 10.7286V14.5196H54.4546V9.97339H57.448V10.7286L55.3518 10.7286Z" fill="white"/>
<path fill-rule="evenodd" clip-rule="evenodd" d="M61.0072 14.5945C62.1548 14.5945 62.8854 13.6889 62.8854 12.2445C62.8854 10.7996 62.1548 9.89791 60.9983 9.89794C60.4049 9.88333 59.8534 10.2027 59.5706 10.7247H59.5036V9.97334H58.6399V16.031H59.5371V13.8309H59.6081C59.8862 14.3359 60.432 14.6338 61.0072 14.5945ZM60.7478 10.7039C61.5079 10.7039 61.9625 11.2842 61.9625 12.2445C61.9625 13.2087 61.5079 13.789 60.7438 13.789C59.9926 13.789 59.5203 13.1959 59.5203 12.2484C59.5203 11.2965 59.9926 10.7039 60.7478 10.7039Z" fill="white"/>
<path d="M64.0801 16.1479V15.3754C64.1772 15.3878 64.2751 15.3934 64.3729 15.3922C64.7688 15.4215 65.1232 15.1481 65.1952 14.7577L65.2622 14.5364L63.6167 9.97339H64.5938L65.7336 13.5844H65.8046L66.9404 9.97339H67.8918L66.197 14.7074C65.8085 15.8137 65.3786 16.1686 64.4518 16.1686C64.3769 16.1686 64.1639 16.1602 64.0801 16.1479Z" fill="white"/>
<path d="M68.5908 13.2295H69.4841C69.5718 13.6303 69.9475 13.8393 70.473 13.8393C71.0705 13.8393 71.4373 13.5761 71.4373 13.1669C71.4373 12.7287 71.108 12.5197 70.473 12.5197H69.7927V11.8226H70.4612C71.0034 11.8226 71.2795 11.6141 71.2795 11.234C71.2795 10.9002 71.0123 10.6454 70.4612 10.6454C69.9593 10.6454 69.5925 10.8583 69.5343 11.2172H68.6697C68.8042 10.3593 69.6009 9.76715 70.4612 9.88571C71.5418 9.88571 72.16 10.3742 72.16 11.1423C72.1704 11.5831 71.8711 11.9711 71.4422 12.073V12.144C71.9551 12.2102 72.3373 12.6498 72.3315 13.1669C72.3315 14.0312 71.596 14.603 70.473 14.603C69.4801 14.603 68.6736 14.1479 68.5908 13.2295Z" fill="white"/>
<path d="M73.624 14.5196V9.97339H74.5134V13.1004H74.5843L76.6795 9.9734H77.5688V14.5196H76.6795V11.3759H76.6125L74.5134 14.5196L73.624 14.5196Z" fill="white"/>
<path d="M82.468 10.7286H81.0363V14.5196H80.1382V10.7286H78.7065V9.97339H82.468V10.7286Z" fill="white"/>
<path fill-rule="evenodd" clip-rule="evenodd" d="M85.33 14.6073C86.2186 14.7034 87.0486 14.1495 87.3009 13.2921L86.4362 13.292C86.2211 13.6779 85.7943 13.8956 85.3556 13.8432C85.017 13.8473 84.6924 13.7082 84.4618 13.4601C84.2312 13.2121 84.1161 12.8782 84.1448 12.5408V12.4905H87.3551V12.1774C87.3551 10.7498 86.591 9.88557 85.326 9.88557C84.7183 9.88039 84.1381 10.1392 83.736 10.5949C83.3338 11.0506 83.1492 11.6583 83.2299 12.2607C83.1469 12.8615 83.3323 13.4683 83.7367 13.9202C84.1411 14.372 84.7237 14.6233 85.33 14.6073ZM86.4399 11.8269H84.1446C84.1402 11.5133 84.2628 11.2112 84.4845 10.9894C84.7063 10.7676 85.0082 10.6449 85.3218 10.6492C85.631 10.6423 85.9286 10.7662 86.1415 10.9905C86.3544 11.2148 86.4628 11.5185 86.4399 11.8269Z" fill="white"/>
<path fill-rule="evenodd" clip-rule="evenodd" d="M91.1047 9.97339H93.1545C94.0438 9.97339 94.5654 10.424 94.5654 11.1294C94.5682 11.5907 94.248 11.9911 93.7973 12.0897V12.1607C94.3487 12.1955 94.7761 12.6563 94.7695 13.2088C94.7695 14.002 94.173 14.5196 93.1752 14.5196H91.1047V9.97339ZM91.9941 10.6621V11.8394H92.8834C93.4257 11.8394 93.685 11.6308 93.685 11.2463C93.685 10.8919 93.4592 10.6621 92.983 10.6621L91.9941 10.6621ZM91.9941 13.8309V12.4989L92.9455 12.4989C93.5509 12.4989 93.8723 12.7119 93.8723 13.1669C93.8723 13.5968 93.5884 13.8309 93.0579 13.8309H91.9941Z" fill="white"/>
</svg>
