<svg width="136" height="40" viewBox="0 0 136 40" fill="none" xmlns="http://www.w3.org/2000/svg">
<rect x="0.5" y="0.5" width="135" height="39" rx="3.5" fill="black"/>
<path d="M34.1747 19.3645C34.185 18.5649 34.3974 17.781 34.7921 17.0856C35.1867 16.3902 35.7509 15.8059 36.4321 15.3871C35.9994 14.7691 35.4285 14.2605 34.7648 13.9017C34.1011 13.5429 33.363 13.3438 32.6089 13.3202C31.0003 13.1514 29.4408 14.2828 28.6211 14.2828C27.7856 14.2828 26.5235 13.337 25.1645 13.365C24.2854 13.3934 23.4287 13.649 22.6778 14.1069C21.9269 14.5649 21.3074 15.2095 20.8797 15.978C19.0271 19.1856 20.409 23.8996 22.1837 26.4923C23.0716 27.7619 24.1093 29.18 25.4671 29.1297C26.7958 29.0746 27.292 28.2825 28.8959 28.2825C30.4848 28.2825 30.9504 29.1297 32.3358 29.0978C33.7615 29.0746 34.6598 27.8225 35.5166 26.5409C36.1545 25.6363 36.6454 24.6365 36.9711 23.5785C36.1428 23.2282 35.4359 22.6418 34.9386 21.8924C34.4413 21.143 34.1757 20.2638 34.1747 19.3645Z" fill="white"/>
<path d="M31.5581 11.6151C32.3355 10.6819 32.7184 9.48237 32.6257 8.27133C31.438 8.39607 30.341 8.9637 29.5531 9.86111C29.1679 10.2995 28.8728 10.8096 28.6848 11.3621C28.4968 11.9146 28.4196 12.4987 28.4575 13.0811C29.0515 13.0872 29.6392 12.9584 30.1763 12.7045C30.7134 12.4506 31.1858 12.0781 31.5581 11.6151Z" fill="white"/>
<path d="M50.9703 25.9157H46.4361L45.3472 29.1309H43.4267L47.7215 17.2354H49.7168L54.0116 29.1309H52.0583L50.9703 25.9157ZM46.9057 24.432H50.4998L48.7281 19.214H48.6785L46.9057 24.432Z" fill="white"/>
<path d="M63.2868 24.795C63.2868 27.4901 61.8443 29.2217 59.6675 29.2217C59.116 29.2505 58.5676 29.1235 58.085 28.8551C57.6024 28.5868 57.2052 28.1879 56.9387 27.7043H56.8975V32H55.1173V20.4581H56.8405V21.9006H56.8732C57.1519 21.4193 57.5559 21.0226 58.0422 20.7526C58.5285 20.4826 59.0788 20.3495 59.6347 20.3674C61.8359 20.3674 63.2868 22.1074 63.2868 24.795ZM61.457 24.795C61.457 23.0391 60.5496 21.8847 59.1651 21.8847C57.8049 21.8847 56.8901 23.0634 56.8901 24.795C56.8901 26.5425 57.8049 27.7127 59.1651 27.7127C60.5496 27.7127 61.457 26.5668 61.457 24.795Z" fill="white"/>
<path d="M72.8323 24.795C72.8323 27.4901 71.3898 29.2217 69.2129 29.2217C68.6615 29.2505 68.1131 29.1235 67.6305 28.8551C67.1479 28.5868 66.7506 28.1879 66.4842 27.7043H66.443V32H64.6628V20.4581H66.3859V21.9006H66.4187C66.6974 21.4193 67.1014 21.0226 67.5876 20.7526C68.0739 20.4826 68.6243 20.3495 69.1802 20.3674C71.3814 20.3674 72.8323 22.1074 72.8323 24.795ZM71.0025 24.795C71.0025 23.0391 70.0951 21.8847 68.7106 21.8847C67.3504 21.8847 66.4355 23.0634 66.4355 24.795C66.4355 26.5425 67.3504 27.7127 68.7106 27.7127C70.0951 27.7127 71.0025 26.5668 71.0025 24.795H71.0025Z" fill="white"/>
<path d="M79.1412 25.8165C79.2731 26.9962 80.419 27.7707 81.985 27.7707C83.4855 27.7707 84.565 26.9961 84.565 25.9325C84.565 25.0092 83.9139 24.4563 82.3723 24.0775L80.8306 23.7061C78.6463 23.1785 77.6323 22.1569 77.6323 20.4993C77.6323 18.4468 79.4209 17.0371 81.9607 17.0371C84.4743 17.0371 86.1974 18.4468 86.2554 20.4993H84.4584C84.3508 19.3121 83.3695 18.5956 81.9354 18.5956C80.5013 18.5956 79.52 19.3206 79.52 20.3758C79.52 21.2168 80.1468 21.7116 81.68 22.0905L82.9906 22.4123C85.4313 22.9895 86.4453 23.9699 86.4453 25.7098C86.4453 27.9353 84.6726 29.3292 81.8531 29.3292C79.215 29.3292 77.4339 27.968 77.3188 25.8164L79.1412 25.8165Z" fill="white"/>
<path d="M90.2873 18.4057V20.4581H91.9365V21.8679H90.2873V26.6491C90.2873 27.3919 90.6175 27.738 91.3425 27.738C91.5383 27.7346 91.7338 27.7208 91.9281 27.6968V29.0981C91.6022 29.159 91.2709 29.1866 90.9393 29.1805C89.1835 29.1805 88.4987 28.5209 88.4987 26.839V21.8679H87.2377V20.4581H88.4987V18.4057H90.2873Z" fill="white"/>
<path d="M92.8917 24.795C92.8917 22.0662 94.4989 20.3515 97.005 20.3515C99.5195 20.3515 101.119 22.0662 101.119 24.795C101.119 27.5313 99.528 29.2385 97.005 29.2385C94.4829 29.2385 92.8917 27.5313 92.8917 24.795ZM99.3053 24.795C99.3053 22.9231 98.4475 21.8183 97.005 21.8183C95.5625 21.8183 94.7056 22.9315 94.7056 24.795C94.7056 26.6744 95.5625 27.7707 97.005 27.7707C98.4475 27.7707 99.3053 26.6744 99.3053 24.795H99.3053Z" fill="white"/>
<path d="M102.587 20.4581H104.285V21.9343H104.326C104.441 21.4733 104.711 21.0658 105.091 20.7805C105.471 20.4951 105.937 20.3493 106.412 20.3674C106.617 20.3667 106.822 20.389 107.022 20.4338V22.099C106.763 22.0198 106.493 21.9835 106.222 21.9914C105.964 21.9809 105.706 22.0265 105.466 22.125C105.227 22.2236 105.012 22.3728 104.836 22.5623C104.659 22.7519 104.526 22.9774 104.445 23.2232C104.365 23.4691 104.338 23.7296 104.367 23.9867V29.1309H102.587L102.587 20.4581Z" fill="white"/>
<path d="M115.23 26.5836C114.99 28.158 113.457 29.2385 111.495 29.2385C108.972 29.2385 107.406 27.5481 107.406 24.8362C107.406 22.1158 108.981 20.3515 111.421 20.3515C113.82 20.3515 115.329 21.9998 115.329 24.6294V25.2393H109.203V25.3469C109.175 25.6661 109.215 25.9876 109.321 26.2902C109.426 26.5927 109.595 26.8694 109.816 27.1017C110.036 27.3341 110.304 27.5168 110.601 27.6378C110.897 27.7588 111.216 27.8153 111.537 27.8035C111.957 27.8429 112.379 27.7455 112.74 27.5257C113.101 27.3059 113.381 26.9755 113.539 26.5836L115.23 26.5836ZM109.212 23.9952H113.548C113.564 23.7082 113.52 23.421 113.42 23.1516C113.32 22.8822 113.165 22.6365 112.965 22.4298C112.765 22.2231 112.525 22.0599 112.259 21.9505C111.993 21.8411 111.708 21.7878 111.421 21.794C111.131 21.7923 110.843 21.848 110.575 21.9579C110.307 22.0678 110.063 22.2297 109.858 22.4344C109.652 22.639 109.489 22.8823 109.379 23.1502C109.268 23.4181 109.211 23.7053 109.212 23.9952V23.9952Z" fill="white"/>
<path d="M46.6826 8.28163C47.0558 8.25485 47.4303 8.31123 47.7791 8.44671C48.1279 8.5822 48.4423 8.7934 48.6995 9.06509C48.9568 9.33678 49.1506 9.66219 49.2669 10.0178C49.3832 10.3735 49.4191 10.7505 49.372 11.1217C49.372 12.9478 48.3851 13.9974 46.6826 13.9974H44.618V8.28163H46.6826ZM45.5057 13.1891H46.5834C46.8501 13.205 47.117 13.1613 47.3646 13.0611C47.6123 12.9609 47.8345 12.8067 48.0151 12.6098C48.1956 12.4129 48.33 12.1782 48.4084 11.9228C48.4868 11.6674 48.5073 11.3977 48.4684 11.1334C48.5045 10.8701 48.4819 10.6021 48.4023 10.3486C48.3227 10.095 48.188 9.86227 48.0078 9.66692C47.8277 9.47157 47.6066 9.31848 47.3603 9.21863C47.114 9.11878 46.8487 9.07464 46.5834 9.08936H45.5057V13.1891Z" fill="white"/>
<path d="M50.3749 11.8387C50.3477 11.5553 50.3802 11.2692 50.4701 10.999C50.56 10.7288 50.7053 10.4804 50.8969 10.2697C51.0884 10.059 51.3218 9.8906 51.5823 9.77538C51.8427 9.66017 52.1243 9.60065 52.409 9.60065C52.6938 9.60065 52.9754 9.66017 53.2358 9.77538C53.4962 9.8906 53.7297 10.059 53.9212 10.2697C54.1128 10.4804 54.2581 10.7288 54.348 10.999C54.4379 11.2692 54.4703 11.5553 54.4432 11.8387C54.4709 12.1225 54.4388 12.4089 54.3492 12.6795C54.2595 12.9502 54.1142 13.199 53.9226 13.4102C53.7311 13.6213 53.4974 13.79 53.2368 13.9055C52.9761 14.021 52.6941 14.0806 52.409 14.0806C52.1239 14.0806 51.842 14.021 51.5813 13.9055C51.3206 13.79 51.087 13.6213 50.8954 13.4102C50.7039 13.199 50.5586 12.9502 50.4689 12.6795C50.3793 12.4089 50.3472 12.1225 50.3749 11.8387ZM53.5676 11.8387C53.5676 10.9037 53.1476 10.3569 52.4104 10.3569C51.6705 10.3569 51.2542 10.9037 51.2542 11.8387C51.2542 12.7812 51.6705 13.3238 52.4104 13.3238C53.1476 13.3238 53.5676 12.7775 53.5676 11.8387H53.5676Z" fill="white"/>
<path d="M59.8512 13.9973H58.9681L58.0766 10.8205H58.0093L57.1215 13.9973H56.2468L55.0579 9.68386H55.9213L56.694 12.9753H56.7576L57.6444 9.68386H58.4611L59.3479 12.9753H59.4153L60.1842 9.68386H61.0355L59.8512 13.9973Z" fill="white"/>
<path d="M62.0355 9.68386H62.855V10.3691H62.9186C63.0265 10.123 63.2085 9.91667 63.4393 9.77891C63.67 9.64116 63.938 9.57882 64.2058 9.60059C64.4157 9.58481 64.6264 9.61646 64.8224 9.69319C65.0184 9.76991 65.1946 9.88975 65.338 10.0438C65.4814 10.1979 65.5883 10.3823 65.6507 10.5833C65.7132 10.7842 65.7296 10.9967 65.6988 11.2049V13.9973H64.8476V11.4187C64.8476 10.7255 64.5463 10.3808 63.9168 10.3808C63.7743 10.3741 63.632 10.3984 63.4998 10.4519C63.3675 10.5054 63.2484 10.5868 63.1506 10.6906C63.0527 10.7945 62.9785 10.9182 62.933 11.0534C62.8875 11.1886 62.8717 11.332 62.8868 11.4739V13.9973H62.0355L62.0355 9.68386Z" fill="white"/>
<path d="M67.0552 8H67.9065V13.9973H67.0552V8Z" fill="white"/>
<path d="M69.0899 11.8387C69.0628 11.5552 69.0953 11.2692 69.1852 10.999C69.2751 10.7288 69.4205 10.4804 69.612 10.2696C69.8036 10.0589 70.0371 9.89052 70.2975 9.7753C70.5579 9.66009 70.8396 9.60057 71.1243 9.60057C71.4091 9.60057 71.6908 9.66009 71.9512 9.7753C72.2116 9.89052 72.4451 10.0589 72.6366 10.2696C72.8282 10.4804 72.9736 10.7288 73.0635 10.999C73.1534 11.2692 73.1859 11.5552 73.1588 11.8387C73.1864 12.1225 73.1543 12.4089 73.0646 12.6795C72.9749 12.9502 72.8296 13.199 72.638 13.4102C72.4464 13.6213 72.2128 13.79 71.9521 13.9055C71.6914 14.0209 71.4095 14.0806 71.1243 14.0806C70.8392 14.0806 70.5573 14.0209 70.2966 13.9055C70.0359 13.79 69.8023 13.6213 69.6107 13.4102C69.4191 13.199 69.2738 12.9502 69.1841 12.6795C69.0944 12.4089 69.0623 12.1225 69.0899 11.8387ZM72.2827 11.8387C72.2827 10.9037 71.8626 10.3569 71.1255 10.3569C70.3856 10.3569 69.9693 10.9037 69.9693 11.8387C69.9693 12.7812 70.3856 13.3238 71.1255 13.3238C71.8627 13.3238 72.2827 12.7775 72.2827 11.8387H72.2827Z" fill="white"/>
<path d="M74.0549 12.7775C74.0549 12.001 74.6331 11.5534 75.6593 11.4898L76.8277 11.4224V11.0501C76.8277 10.5945 76.5264 10.3373 75.9446 10.3373C75.4694 10.3373 75.1401 10.5118 75.0456 10.8167H74.2214C74.3084 10.0758 75.0054 9.60062 75.9839 9.60062C77.0653 9.60062 77.6752 10.139 77.6752 11.0501V13.9973H76.8557V13.3911H76.7884C76.6517 13.6086 76.4597 13.7859 76.2321 13.9048C76.0044 14.0238 75.7493 14.0803 75.4928 14.0684C75.3117 14.0872 75.1287 14.0679 74.9555 14.0117C74.7823 13.9555 74.6229 13.8636 74.4874 13.7419C74.352 13.6203 74.2435 13.4717 74.169 13.3055C74.0945 13.1394 74.0556 12.9595 74.0549 12.7775ZM76.8277 12.4089V12.0483L75.7743 12.1156C75.1803 12.1554 74.9109 12.3574 74.9109 12.7377C74.9109 13.1259 75.2476 13.3518 75.7107 13.3518C75.8464 13.3656 75.9835 13.3519 76.1138 13.3116C76.2441 13.2712 76.3649 13.2051 76.4691 13.1171C76.5733 13.0292 76.6588 12.9211 76.7204 12.7995C76.782 12.6778 76.8185 12.545 76.8277 12.4089Z" fill="white"/>
<path d="M78.794 11.8387C78.794 10.4757 79.4947 9.6123 80.5845 9.6123C80.8541 9.59988 81.1216 9.66445 81.3559 9.79845C81.5901 9.93246 81.7813 10.1304 81.9073 10.3691H81.9709V8H82.8221V13.9973H82.0064V13.3158H81.9391C81.8034 13.5529 81.6055 13.7483 81.3667 13.881C81.128 14.0137 80.8575 14.0785 80.5845 14.0684C79.4872 14.0684 78.794 13.205 78.794 11.8387ZM79.6734 11.8387C79.6734 12.7536 80.1046 13.3041 80.8259 13.3041C81.5434 13.3041 81.9868 12.7457 81.9868 11.8425C81.9868 10.9435 81.5387 10.377 80.8259 10.377C80.1093 10.377 79.6734 10.9313 79.6734 11.8387H79.6734Z" fill="white"/>
<path d="M86.3442 11.8387C86.3171 11.5553 86.3495 11.2692 86.4394 10.999C86.5293 10.7288 86.6747 10.4804 86.8662 10.2697C87.0577 10.059 87.2912 9.8906 87.5516 9.77538C87.812 9.66017 88.0936 9.60065 88.3784 9.60065C88.6632 9.60065 88.9448 9.66017 89.2052 9.77538C89.4656 9.8906 89.6991 10.059 89.8906 10.2697C90.0821 10.4804 90.2275 10.7288 90.3174 10.999C90.4073 11.2692 90.4397 11.5553 90.4126 11.8387C90.4402 12.1225 90.4082 12.4089 90.3185 12.6795C90.2289 12.9502 90.0836 13.199 89.892 13.4102C89.7004 13.6213 89.4668 13.79 89.2061 13.9055C88.9454 14.021 88.6635 14.0806 88.3784 14.0806C88.0933 14.0806 87.8114 14.021 87.5507 13.9055C87.29 13.79 87.0564 13.6213 86.8648 13.4102C86.6732 13.199 86.5279 12.9502 86.4383 12.6795C86.3486 12.4089 86.3166 12.1225 86.3442 11.8387ZM89.537 11.8387C89.537 10.9037 89.1169 10.3569 88.3798 10.3569C87.6398 10.3569 87.2236 10.9037 87.2236 11.8387C87.2236 12.7812 87.6399 13.3238 88.3798 13.3238C89.117 13.3238 89.537 12.7775 89.537 11.8387Z" fill="white"/>
<path d="M91.5548 9.68386H92.3743V10.3691H92.4379C92.5458 10.123 92.7278 9.91667 92.9586 9.77891C93.1893 9.64116 93.4573 9.57882 93.7251 9.60059C93.935 9.58481 94.1457 9.61646 94.3417 9.69319C94.5377 9.76991 94.7139 9.88975 94.8573 10.0438C95.0007 10.1979 95.1076 10.3823 95.17 10.5833C95.2325 10.7842 95.2489 10.9967 95.2181 11.2049V13.9973H94.3668V11.4187C94.3668 10.7255 94.0656 10.3808 93.4361 10.3808C93.2936 10.3741 93.1513 10.3984 93.019 10.4519C92.8868 10.5054 92.7677 10.5868 92.6699 10.6906C92.572 10.7945 92.4978 10.9182 92.4523 11.0534C92.4068 11.1886 92.391 11.332 92.4061 11.4739V13.9973H91.5548V9.68386Z" fill="white"/>
<path d="M100.028 8.60994V9.70351H100.963V10.4206H100.028V12.6386C100.028 13.0904 100.214 13.2882 100.638 13.2882C100.747 13.2879 100.855 13.2813 100.963 13.2686V13.9777C100.81 14.005 100.655 14.0196 100.5 14.0212C99.5531 14.0212 99.1761 13.6881 99.1761 12.8565V10.4205H98.4913V9.70347H99.1761V8.60994H100.028Z" fill="white"/>
<path d="M102.126 8H102.969V10.377H103.037C103.15 10.1286 103.337 9.92115 103.572 9.78288C103.808 9.6446 104.08 9.58226 104.352 9.60434C104.561 9.59298 104.769 9.62784 104.963 9.70643C105.157 9.78502 105.331 9.9054 105.473 10.059C105.615 10.2126 105.721 10.3956 105.784 10.595C105.847 10.7944 105.865 11.0052 105.838 11.2124V13.9973H104.985V11.4224C104.985 10.7334 104.664 10.3845 104.063 10.3845C103.917 10.3725 103.77 10.3926 103.632 10.4434C103.494 10.4943 103.369 10.5746 103.266 10.6787C103.162 10.7829 103.083 10.9084 103.033 11.0465C102.983 11.1845 102.964 11.3318 102.977 11.4781V13.9973H102.126L102.126 8Z" fill="white"/>
<path d="M110.801 12.8327C110.686 13.2269 110.435 13.5679 110.093 13.796C109.752 14.0241 109.341 14.1249 108.932 14.0806C108.648 14.0881 108.365 14.0336 108.104 13.9211C107.843 13.8085 107.61 13.6404 107.42 13.4286C107.231 13.2168 107.09 12.9662 107.007 12.6943C106.924 12.4225 106.901 12.1358 106.94 11.8542C106.902 11.5717 106.925 11.2844 107.008 11.0117C107.091 10.739 107.231 10.4873 107.42 10.2736C107.608 10.0599 107.841 9.88922 108.101 9.77311C108.361 9.657 108.643 9.59817 108.928 9.6006C110.129 9.6006 110.853 10.4206 110.853 11.7751V12.0721H107.807V12.1198C107.793 12.2781 107.813 12.4375 107.865 12.5876C107.917 12.7378 108 12.8754 108.108 12.9918C108.216 13.1081 108.347 13.2006 108.493 13.2632C108.639 13.3259 108.797 13.3573 108.955 13.3556C109.159 13.38 109.365 13.3433 109.548 13.2502C109.731 13.1571 109.882 13.0117 109.982 12.8326L110.801 12.8327ZM107.807 11.4425H109.985C109.996 11.2978 109.976 11.1524 109.928 11.0157C109.879 10.8789 109.802 10.754 109.702 10.6487C109.602 10.5435 109.481 10.4603 109.347 10.4046C109.213 10.3489 109.069 10.3218 108.924 10.3251C108.776 10.3233 108.63 10.3509 108.494 10.4064C108.358 10.4619 108.234 10.5442 108.13 10.6483C108.025 10.7525 107.943 10.8764 107.888 11.0128C107.832 11.1492 107.805 11.2953 107.807 11.4425H107.807Z" fill="white"/>
<rect x="0.5" y="0.5" width="135" height="39" rx="3.5" stroke="#22252C"/>
</svg>
