<svg width="100" height="40" viewBox="0 0 100 40" fill="none" xmlns="http://www.w3.org/2000/svg">
<rect width="100" height="40" rx="2" fill="#1D1F23"/>
<g clip-path="url(#clip0_22469_948558)">
<path d="M44.6279 15.9239C45.0728 15.3855 45.294 14.6968 45.2458 14C44.56 14.0623 43.9266 14.3929 43.4833 14.9198C43.2602 15.17 43.0893 15.4622 42.9808 15.7793C42.8723 16.0965 42.8283 16.4321 42.8514 16.7665C43.1926 16.7737 43.5308 16.7012 43.8391 16.555C44.1474 16.4087 44.4175 16.1927 44.6279 15.9239ZM45.2036 16.8929C44.2206 16.8367 43.392 17.4547 42.9216 17.4547C42.4511 17.4547 41.7349 16.928 40.9626 16.9421C40.4574 16.956 39.9646 17.1021 39.5334 17.3658C39.1023 17.6294 38.7477 18.0014 38.505 18.4447C37.4517 20.2703 38.2241 22.9947 39.2493 24.4763C39.7478 25.1785 40.3447 26.0281 41.1381 26C41.9315 25.9719 42.1773 25.5085 43.0831 25.5085C43.9889 25.5085 44.2557 26 45.0421 25.9789C45.8286 25.9579 46.3762 25.2768 46.8678 24.5044C47.2221 23.9805 47.4988 23.4082 47.6893 22.8051C47.2157 22.5997 46.8124 22.2603 46.5292 21.8286C46.246 21.397 46.0952 20.8919 46.0954 20.3757C46.0988 19.9166 46.2184 19.466 46.4431 19.0657C46.6678 18.6654 46.9903 18.3286 47.3803 18.0866C47.1333 17.7341 46.8085 17.4432 46.431 17.2362C46.0536 17.0292 45.6337 16.9118 45.2036 16.8929ZM51.474 15.4886V17.5108H53.0749V18.8028H51.474V23.5494C51.474 24.2516 51.7899 24.6167 52.4921 24.6167C52.6848 24.6164 52.8772 24.6023 53.0679 24.5746V25.9368C52.7546 25.9881 52.4374 26.0116 52.12 26.007C50.4629 26.007 49.8239 25.3681 49.8239 23.7531V18.8379H48.567V17.5108H49.7888V15.4816L51.474 15.4886ZM58.6712 25.9368H56.9157L53.9667 17.5108H55.715L57.7864 24.2586H57.8286L59.9351 17.5108H61.6483L58.6712 25.9368Z" fill="white"/>
</g>
<defs>
<clipPath id="clip0_22469_948558">
<rect width="23.6138" height="12" fill="white" transform="translate(38 14)"/>
</clipPath>
</defs>
</svg>
