<svg xmlns="http://www.w3.org/2000/svg"
    xmlns:xlink="http://www.w3.org/1999/xlink" width="18" height="15" viewBox="0 0 18 15">
    <defs>
        <path id="a" d="M728.06 5266.158c.52 0 .94.412.94.92a.93.93 0 0 1-.94.922h-16.12a.93.93 0 0 1-.94-.921c0-.51.42-.921.94-.921h16.12zm0-6.58c.52 0 .94.413.94.922a.93.93 0 0 1-.94.921h-16.12a.93.93 0 0 1-.94-.921c0-.51.42-.921.94-.921h16.12zm0-6.578c.52 0 .94.412.94.921a.93.93 0 0 1-.94.921h-16.12a.93.93 0 0 1-.94-.92c0-.51.42-.922.94-.922h16.12z"/>
    </defs>
    <use fill="#F2F2F2" fill-rule="evenodd" transform="translate(-711 -5253)" xlink:href="#a"/>
</svg>
