<svg width="100" height="40" viewBox="0 0 100 40" fill="none" xmlns="http://www.w3.org/2000/svg">
<path d="M100 0H0V40H100V0Z" fill="#1D1F23"/>
<g clip-path="url(#clip0_22469_947565)">
<path d="M29.615 17.0106H28.9369C27.2445 17.0106 25.5517 17.0119 23.8585 17.0144C22.8064 17.0144 21.9981 17.5308 21.3289 18.3288C21.2351 18.4402 21.213 18.6136 21.1336 18.7413C20.8904 19.1319 20.8205 19.5681 20.7978 20.0514C20.4722 19.4786 20.1585 18.931 19.8485 18.3814C19.4864 17.7386 19.1357 17.0889 18.7611 16.4523C18.6195 16.2126 18.6165 16.0373 18.7993 15.8145C19.4643 15.0183 20.2332 14.3649 21.1581 13.9417C22.4999 13.3277 23.8842 13.1606 25.3325 13.5211C26.513 13.8153 27.543 14.3774 28.3938 15.2637C28.8717 15.7644 29.2655 16.3497 29.6968 16.8973L29.615 17.0106Z" fill="#F2F2F2"/>
<path d="M23.6719 27.2C23.9067 26.7618 24.1152 26.365 24.3291 25.9726C25.046 24.6581 25.7695 23.3518 26.4799 22.0343C27.2261 20.6478 27.0463 18.8108 25.7845 17.778C25.7618 17.7666 25.7426 17.7489 25.729 17.7268C25.7154 17.7047 25.7079 17.6791 25.7074 17.6528C25.7663 17.6385 25.8263 17.6291 25.8866 17.6246C27.1598 17.6246 28.4336 17.6246 29.7067 17.6196C29.8925 17.6196 29.9875 17.6772 30.0616 17.865C30.3424 18.5798 30.4278 19.3259 30.4565 20.0908C30.4956 21.219 30.26 22.3391 29.7718 23.3456C29.5704 23.7654 29.3253 24.1606 29.0412 24.5242C28.7425 24.9129 28.4075 25.2694 28.041 25.5882C27.6711 25.9036 27.2734 26.1813 26.8533 26.4176C25.8854 26.9721 24.8351 27.1918 23.6719 27.2Z" fill="#F2F2F2"/>
<path d="M18.2147 16.6592C19.133 18.3097 20.0071 19.9302 20.9277 21.5195C21.6238 22.7194 22.6125 23.4849 24.0219 23.441C24.3804 23.4298 24.7389 23.3159 25.1158 23.2407C24.7084 23.9881 24.3011 24.735 23.8941 25.4815C23.6861 25.8609 23.4794 26.2408 23.2649 26.6157C22.9662 27.1352 22.9626 27.1402 22.4034 26.9988C20.2054 26.4405 18.6395 25.0785 17.7529 22.899C17.2681 21.7304 17.1242 20.4376 17.3394 19.1835C17.4795 18.2926 17.7763 17.4366 18.2147 16.6592Z" fill="#F2F2F2"/>
<path d="M23.8414 22.7166C22.6161 22.7717 21.4815 21.538 21.5144 20.2129C21.5436 19.0293 22.5969 17.7324 23.9603 17.8025C25.292 17.8714 26.2396 18.9004 26.2414 20.2593C26.2432 21.6044 25.2478 22.7273 23.8414 22.7166Z" fill="#F2F2F2"/>
<path d="M60.0428 18.6907C60.05 18.7017 60.0564 18.7132 60.0619 18.7251C60.1229 18.8589 60.1766 18.9962 60.2227 19.1364C60.2807 19.4121 60.316 19.6925 60.3284 19.9745C60.3469 20.8702 60.3362 21.7671 60.3487 22.6659C60.3487 22.8293 60.3105 22.9032 60.1557 22.8988C60.1456 22.8988 60.1354 22.8988 60.1259 22.8988C59.4089 22.895 59.5284 22.9783 59.5213 22.3085C59.5159 21.5994 59.5254 20.8902 59.5213 20.1804C59.5249 19.9623 59.5069 19.7443 59.4675 19.5301C59.2769 18.6319 58.3676 18.3127 57.6901 18.9042C57.3238 19.2221 57.1524 19.6446 57.1458 20.1391C57.141 20.9528 57.1303 21.7665 57.1506 22.5802C57.1583 22.9044 56.9946 22.9113 56.7766 22.9025C56.5585 22.8938 56.3339 22.9695 56.3446 22.5833C56.3661 21.8122 56.3548 21.0404 56.3446 20.2674C56.3443 20.0176 56.3259 19.7682 56.2897 19.5213C56.1749 18.7702 55.4568 18.3865 54.796 18.722C54.247 19.0018 53.9931 19.4888 53.9781 20.1034C53.9578 20.9171 53.9722 21.7308 53.9722 22.5445V22.9038C53.7601 22.9038 53.5737 22.9226 53.3938 22.8944C53.3173 22.8825 53.2349 22.783 53.1919 22.7022C53.1572 22.6365 53.174 22.5395 53.174 22.4563C53.174 21.1212 53.1704 19.7867 53.174 18.4504C53.174 18.3058 53.2092 18.0554 53.2731 18.0379C53.4673 17.9853 53.6848 18.0153 53.8915 18.0341C53.922 18.0341 53.9608 18.1493 53.9656 18.2138C53.9763 18.3665 53.9692 18.5205 53.9692 18.747C55.0613 17.6342 56.0829 17.4821 57.0759 18.8466C57.4105 18.3252 57.8526 18.0034 58.4369 17.9077C58.9232 17.8269 59.3617 17.9327 59.7286 18.2513C59.7733 18.2864 59.8114 18.3299 59.8409 18.3796L60.0428 18.6907Z" fill="#F2F2F2"/>
<path d="M40.3579 18.751C40.4029 18.6602 40.4557 18.5739 40.5157 18.4932C41.1322 17.8047 42.1109 17.6613 42.9371 18.2246C43.393 18.5376 43.5489 19.054 43.5716 19.5704C43.617 20.5906 43.5883 21.614 43.5961 22.6374C43.5961 22.8195 43.5417 22.9134 43.3571 22.899C43.2677 22.89 43.1777 22.89 43.0883 22.899C42.8678 22.9247 42.7896 22.8327 42.7949 22.5973C42.8051 21.7317 42.7824 20.8654 42.8015 19.9998C42.8194 19.1798 42.4478 18.8186 42.0338 18.6853C41.4411 18.4938 40.9524 18.7104 40.5234 19.2562C40.2845 19.5616 40.2809 19.9009 40.2707 20.2345C40.2462 21.0369 40.2576 21.8412 40.2743 22.6437C40.2785 22.8483 40.2146 22.894 40.0401 22.8997C39.4558 22.9234 39.4558 22.9284 39.4558 22.3288C39.4558 20.2633 39.4612 18.1977 39.4492 16.1322C39.4492 15.8286 39.5335 15.7316 39.8208 15.746C40.2552 15.7673 40.2612 15.7504 40.2594 16.1216C40.2558 16.924 40.2456 17.7258 40.239 18.5282C40.239 18.577 40.2468 18.6265 40.251 18.6759L40.3579 18.751Z" fill="#F2F2F2"/>
<path d="M61.3826 21.7123C61.1568 21.3843 61.1132 21.0432 61.0839 20.7052C61.046 20.3479 61.0776 19.9862 61.1767 19.642C61.2758 19.2977 61.4403 18.9781 61.6604 18.7022C62.3708 17.7953 63.5502 17.5449 64.5282 18.1646C65.2672 18.6328 65.5845 19.397 65.6329 20.2927C65.646 20.5393 65.545 20.585 65.3341 20.5838C64.2796 20.5756 63.2251 20.5881 62.1677 20.5775C61.9048 20.5775 61.8534 20.6501 61.8988 20.9243C62.0183 21.6278 62.3953 22.0803 63.0405 22.2387C63.6977 22.4021 64.285 22.2443 64.6913 21.6172C64.7134 21.5827 64.7415 21.5546 64.7869 21.497C64.9219 21.5521 65.0408 21.6015 65.1609 21.6497C65.4883 21.7818 65.4984 21.8268 65.2768 22.1285C64.7008 22.9141 63.9666 23.1889 63.025 23.0048C62.4168 22.8853 61.9496 22.598 61.5959 22.0929L61.3826 21.7123ZM64.7899 19.8777C64.6644 19.1729 64.2396 18.7129 63.6792 18.634C62.9276 18.5289 62.3104 18.8788 62.032 19.5685C61.9125 19.8577 61.9478 19.9203 62.2471 19.9222C63.0023 19.9278 63.7581 19.9259 64.5132 19.9222C64.6071 19.9144 64.7004 19.8995 64.7923 19.8777H64.7899Z" fill="#F2F2F2"/>
<path d="M74.617 20.0521C74.6768 19.5845 74.5441 19.2315 74.2496 18.9505C73.676 18.4015 72.8366 18.553 72.4208 19.0062C72.1944 19.2565 72.0223 19.2872 71.7696 19.1163C71.6949 19.0752 71.6172 19.0405 71.5372 19.0124C71.6214 18.5417 71.987 18.3483 72.3138 18.148C72.9292 17.7725 73.584 17.8069 74.2317 18.0554C74.7371 18.2488 75.0627 18.6294 75.2802 19.1508C75.4732 19.6121 75.4045 20.0727 75.3997 20.5416C75.3955 21.1975 75.4134 21.856 75.42 22.5095C75.4236 22.9025 75.42 22.9025 75.0394 22.9007H74.7335L74.657 22.2397C74.3249 22.4757 74.0429 22.7529 73.7083 22.8982C72.9113 23.2437 71.8496 22.9445 71.4559 22.1345C71.0377 21.2776 71.5025 20.2086 72.5259 19.9156C73.1558 19.7271 73.8271 19.7594 74.4378 20.0076C74.4967 20.0258 74.5566 20.0407 74.617 20.0521ZM73.5338 20.3988C73.0828 20.4208 72.6896 20.5334 72.4256 20.7575C72.1448 20.996 72.0205 21.3027 72.1119 21.6713C72.1932 21.9975 72.4106 22.1665 72.7321 22.2547C73.5087 22.4681 74.485 21.9255 74.62 21.0561C74.6511 20.8514 74.6242 20.6968 74.421 20.6367C74.1271 20.5497 73.8296 20.4777 73.5338 20.3988Z" fill="#F2F2F2"/>
<path d="M52.3854 20.4689C52.4451 21.8459 51.2664 23.1147 49.8761 23.0352C49.5601 23.0199 49.2501 22.9395 48.9638 22.7985C48.6775 22.6575 48.4205 22.4587 48.2077 22.2135C47.9949 21.9683 47.8303 21.6816 47.7234 21.3696C47.6165 21.0577 47.5695 20.7267 47.5849 20.3957C47.6518 18.7908 48.6531 17.8244 50.0064 17.84C51.3106 17.8551 52.4003 18.8634 52.3854 20.4689ZM51.5818 20.4445C51.5818 20.4076 51.5854 20.303 51.5818 20.1991C51.5744 19.9122 51.4961 19.6322 51.3545 19.3865C51.213 19.1408 51.0131 18.9377 50.7742 18.797C50.5354 18.6564 50.2659 18.5831 49.9919 18.5842C49.7179 18.5853 49.4489 18.6608 49.2111 18.8033C48.5384 19.207 48.3048 19.9218 48.4034 20.7499C48.4602 21.2275 48.6513 21.6513 49.0319 21.948C49.5565 22.3573 50.1306 22.4337 50.7096 22.1113C51.3076 21.7771 51.6123 21.2363 51.5818 20.4439V20.4445Z" fill="#F2F2F2"/>
<path d="M76.1172 21.6975C76.2409 21.6418 76.3699 21.5936 76.4894 21.5266C76.6919 21.4133 76.8305 21.4571 76.9608 21.6605C77.3193 22.2195 77.8337 22.381 78.4437 22.2552C78.8368 22.1744 79.0549 21.9241 79.0626 21.5667C79.0716 21.1861 78.8732 20.9545 78.458 20.8431C77.9884 20.7179 77.5057 20.624 77.0552 20.4438C76.2462 20.1227 75.9714 19.3259 76.4058 18.6536C76.5189 18.4823 76.665 18.3378 76.8347 18.2292C77.5714 17.7598 78.6349 17.7354 79.3398 18.3776C79.4994 18.5228 79.6177 18.7175 79.7814 18.9228C79.6021 19.0259 79.4174 19.1182 79.2281 19.1994C79.1749 19.2188 79.0608 19.1625 79.0226 19.1049C78.6785 18.5892 77.8946 18.5309 77.4166 18.7344C77.1675 18.8408 76.9901 19.0217 76.9984 19.3171C77.0056 19.6232 77.2195 19.779 77.4686 19.8535C77.8396 19.9637 78.2184 20.0463 78.5954 20.1339C79.0734 20.2447 79.4563 20.4976 79.7198 20.9295C79.9958 21.382 79.871 22.1187 79.4474 22.5293C78.6211 23.3299 76.6698 23.2685 76.1172 21.6975Z" fill="#F2F2F2"/>
<path d="M38.6696 19.1544C38.4408 19.2727 38.2699 19.3785 38.0859 19.4455C38.0433 19.4504 38.0002 19.444 37.9605 19.427C37.9209 19.4099 37.8859 19.3827 37.8589 19.3478C37.4281 18.6111 36.7948 18.5341 36.2756 18.6593C35.5874 18.822 35.1309 19.5356 35.0897 20.2767C35.0533 20.9301 35.2134 21.5035 35.6418 21.9629C35.8031 22.1363 36.0659 22.2515 36.2989 22.2972C36.9299 22.4223 37.4813 22.2508 37.8786 21.68C38.0232 21.4722 38.5519 21.5254 38.6332 21.7676C38.6428 21.8208 38.6398 21.8757 38.6245 21.9274C38.6092 21.9791 38.582 22.0261 38.5454 22.0643C38.0799 22.418 37.7513 22.9882 37.0983 23.0514C36.6968 23.0855 36.2928 23.0353 35.91 22.9037C34.9941 22.6126 34.4964 21.9567 34.3041 21.0466C34.0436 19.8141 34.494 18.5879 35.6459 18.0653C36.4913 17.6816 37.3469 17.7217 38.0799 18.392C38.3028 18.5955 38.4593 18.8777 38.6696 19.1544Z" fill="#F2F2F2"/>
<path d="M69.9439 19.4674C69.7126 19.0505 69.433 18.735 68.9742 18.6292C68.354 18.4865 67.7679 18.7025 67.4047 19.2433C67.2274 19.5045 67.1096 19.8049 67.0605 20.1214C67.0114 20.4378 67.0323 20.7618 67.1215 21.0685C67.2786 21.6255 67.6538 22.1156 68.2776 22.2521C68.9348 22.3954 69.4653 22.1813 69.8793 21.6343C69.9277 21.5717 69.9725 21.5028 70.0365 21.4127L70.7068 21.6887C70.5001 22.2145 70.1691 22.5694 69.7228 22.7735C68.8081 23.1935 67.9245 23.1346 67.1191 22.4674C66.3424 21.8227 66.1285 20.9376 66.2797 19.9725C66.4828 18.6737 67.2679 17.9902 68.5213 17.8212C69.2807 17.721 70.1834 18.2549 70.5353 18.9697C70.6046 19.1118 70.5951 19.2051 70.4481 19.2652C70.3011 19.3253 70.1338 19.3929 69.9439 19.4674Z" fill="#F2F2F2"/>
<path d="M83.0538 22.2219C83.1046 22.3527 83.1787 22.5448 83.2522 22.737C82.3184 23.2152 81.1193 22.7032 81.1492 21.4851C81.1695 20.6827 81.1444 19.879 81.1545 19.0766C81.1581 18.8362 81.0948 18.7173 80.8558 18.7593C80.816 18.7624 80.7761 18.7624 80.7363 18.7593C80.339 18.7593 80.1825 18.532 80.33 18.1333C80.3551 18.0657 80.4991 18.0138 80.5905 18.0081C81.1527 17.9837 81.1527 17.9894 81.1533 17.386C81.1533 17.1982 81.1647 17.0104 81.1533 16.8227C81.1348 16.5723 81.237 16.4822 81.4652 16.4984C81.611 16.5084 81.7574 16.4984 81.9336 16.4984C81.9336 16.9366 81.942 17.329 81.93 17.7221C81.924 17.9174 81.9695 18.0163 82.1762 18.0031C82.3829 17.99 82.5944 18.01 82.8029 17.9975C83.1303 17.9787 83.0682 18.2185 83.0783 18.4213C83.0897 18.6397 83.0544 18.7893 82.7904 18.763C82.5825 18.74 82.3729 18.7415 82.1654 18.7674C82.0842 18.7787 81.9545 18.8963 81.9533 18.9677C81.9402 19.8014 81.9294 20.6364 81.9533 21.4714C81.9689 21.9865 82.1421 22.1167 82.6547 22.1367C82.7647 22.1449 82.8758 22.1849 83.0538 22.2219Z" fill="#F2F2F2"/>
<path d="M45.4538 18.8347C45.9239 18.0592 46.5459 17.703 47.4612 18.006C47.3602 18.272 47.2688 18.5155 47.1726 18.7696C46.519 18.5962 45.9915 18.8009 45.6838 19.3667C45.5147 19.6797 45.4854 20.0972 45.4693 20.4715C45.4376 21.1888 45.4526 21.9111 45.4651 22.6265C45.4687 22.8325 45.4131 22.9032 45.216 22.9001C44.5438 22.8894 44.6478 22.9777 44.6448 22.3067C44.64 20.9841 44.6448 19.6615 44.6406 18.339C44.6406 18.1431 44.6406 17.9791 44.8975 18.0035C45.1126 18.0241 45.3886 17.9252 45.3755 18.3208C45.3707 18.4735 45.3755 18.6269 45.3755 18.7802L45.4538 18.8347Z" fill="#F2F2F2"/>
</g>
<defs>
<clipPath id="clip0_22469_947565">
<rect width="66.0098" height="13.8667" fill="white" transform="translate(17.2422 13.3335)"/>
</clipPath>
</defs>
</svg>
