<?xml version="1.0" encoding="UTF-8"?>
<svg width="39px" height="33px" viewBox="0 0 39 33" version="1.1" xmlns="http://www.w3.org/2000/svg" xmlns:xlink="http://www.w3.org/1999/xlink">
    <!-- Generator: Sketch 63.1 (92452) - https://sketch.com -->
    <title>Payment Systems / Cloud Payment</title>
    <desc>Created with Sketch.</desc>
    <g id="Footer" stroke="none" stroke-width="1" fill="none" fill-rule="evenodd">
        <g id="[PROD-812]-Desktop" transform="translate(-388.000000, -875.000000)" fill="#757D8A">
            <g id="Group-11" transform="translate(388.000000, 847.000000)">
                <g id="Payment-Systems-/-Cloud-Payment" transform="translate(0.000000, 28.000000)">
                    <g id="Cloud-Payment">
                        <path d="M6.54987722,29.0617139 C6.54987722,28.4406759 6.14753544,28.0027899 5.57981392,28.0027899 C5.01209241,28.0027899 4.58013038,28.4406759 4.58013038,29.0617139 C4.58013038,29.6891696 5.01209241,30.120638 5.57981392,30.120638 C6.14161139,30.120638 6.54987722,29.6891696 6.54987722,29.0617139 M7.22423165,29.0617139 C7.22423165,30.0559671 6.59134557,30.7589544 5.72149747,30.7589544 C5.21301646,30.7589544 4.82252278,30.5111316 4.58605443,30.1443342 L4.58605443,32.1669038 L3.91762405,32.1669038 L3.91762405,27.435562 L4.58605443,27.435562 L4.58605443,27.9914354 C4.82252278,27.6187139 5.21301646,27.3644734 5.72742152,27.3644734 C6.57949747,27.3644734 7.22423165,28.0679544 7.22423165,29.0617139" id="Fill-1" fill-rule="nonzero"></path>
                        <path d="M10.2876076,29.0617139 C10.2876076,28.4406759 9.85564557,28.0027899 9.28841772,28.0027899 C8.72020253,28.0027899 8.31835443,28.4406759 8.31835443,29.0617139 C8.31835443,29.6891696 8.72612658,30.120638 9.28841772,30.120638 C9.85564557,30.120638 10.2876076,29.6891696 10.2876076,29.0617139 Z M10.9501139,27.435562 L10.9501139,30.6883595 L10.2816835,30.6883595 L10.2816835,30.1443342 C10.0452152,30.516562 9.65472152,30.7589544 9.14624051,30.7589544 C8.27688608,30.7589544 7.644,30.0559671 7.644,29.0617139 C7.644,28.0679544 8.28873418,27.3644734 9.14031646,27.3644734 C9.65472152,27.3644734 10.0452152,27.6187139 10.2816835,27.9914354 L10.2816835,27.435562 L10.9501139,27.435562 Z" id="Fill-3" fill-rule="nonzero"></path>
                        <polygon id="Fill-5" fill-rule="nonzero" points="14.6289 27.435562 12.4760013 32.1669038 11.7601785 32.1669038 12.6176848 30.2741696 11.3346342 27.435562 12.0499633 27.435562 12.9726342 29.5529165 13.9130772 27.435562"></polygon>
                        <path d="M19.898738,28.6003291 L19.898738,30.6880633 L19.2303076,30.6880633 L19.2303076,28.7425063 C19.2303076,28.2577215 19.0353076,28.0029873 18.5855734,28.0029873 C18.0593203,28.0029873 17.7873076,28.4112532 17.7873076,29.0026709 L17.7932316,30.6880633 L17.1188772,30.6880633 L17.1188772,28.7425063 C17.1188772,28.2577215 16.9238772,28.0029873 16.474143,28.0029873 C15.9478899,28.0029873 15.6818013,28.4112532 15.6818013,29.0026709 L15.6818013,30.6880633 L15.0133709,30.6880633 L15.0133709,27.4357595 L15.6818013,27.4357595 L15.6818013,27.9555949 C15.9064215,27.5828734 16.2258266,27.3641772 16.6928392,27.3641772 C17.1899658,27.3641772 17.5389911,27.6065696 17.6984468,28.0444557 C17.917143,27.6243418 18.2839405,27.3641772 18.7983456,27.3641772 C19.4845481,27.3641772 19.898738,27.8257595 19.898738,28.6003291" id="Fill-7" fill-rule="nonzero"></path>
                        <path d="M21.1109962,28.7010873 L23.0037304,28.7010873 C22.9030215,28.2577709 22.5658443,27.9442899 22.0751354,27.9442899 C21.5666544,27.9442899 21.2235532,28.2632013 21.1109962,28.7010873 M23.7195532,29.2456063 L21.0754519,29.2456063 C21.1287684,29.8429481 21.5488823,30.1737076 22.0929076,30.1737076 C22.4834013,30.1737076 22.8082367,30.0078342 22.962262,29.6889228 L23.6543886,29.6889228 C23.4001481,30.4165937 22.7786165,30.7592013 22.0869835,30.7592013 C21.0991481,30.7592013 20.3951734,30.0493025 20.3951734,29.0678848 C20.3951734,28.0859734 21.0932241,27.3642266 22.0751354,27.3642266 C23.1222114,27.3642266 23.7847177,28.1748342 23.7195532,29.2456063" id="Fill-9" fill-rule="nonzero"></path>
                        <path d="M27.1495291,28.6360215 L27.1495291,30.6882114 L26.4810987,30.6882114 L26.4810987,28.771781 C26.4810987,28.2692241 26.2624025,28.0031354 25.7712,28.0031354 C25.1975544,28.0031354 24.8899975,28.375857 24.8899975,29.002819 L24.8899975,30.6882114 L24.2220608,30.6882114 L24.2220608,27.4354139 L24.8899975,27.4354139 L24.8899975,27.9735152 C25.1210354,27.5953633 25.4700608,27.3643253 25.9785418,27.3643253 C26.7121367,27.3643253 27.1495291,27.8436797 27.1495291,28.6360215" id="Fill-11" fill-rule="nonzero"></path>
                        <path d="M30.1778544,30.5229304 C30.0006266,30.6290696 29.621981,30.7593987 29.2492595,30.7593987 C28.5808291,30.7593987 28.0605,30.3392848 28.0605,29.4408038 L28.0605,28.0624747 L27.4572342,28.0624747 L27.4572342,27.4355127 L28.0605,27.4355127 L28.0605,26.6959937 L28.7284367,26.5478924 L28.7284367,27.4355127 L30.0652975,27.4355127 L30.0652975,28.0624747 L28.7284367,28.0624747 L28.7284367,29.4047658 C28.7284367,29.8777025 28.9476266,30.1383608 29.3677405,30.1383608 C29.5745886,30.1383608 29.8051329,30.0672722 30.0593734,29.9784114 L30.1778544,30.5229304 Z" id="Fill-13" fill-rule="nonzero"></path>
                        <path d="M30.4085468,29.6416785 L31.0888253,29.6416785 C31.1895342,30.0020582 31.4556228,30.1679316 32.0174203,30.1679316 C32.4488886,30.1679316 32.7149772,30.0380962 32.7149772,29.7957038 C32.7149772,29.5231975 32.4074203,29.4817291 31.8633949,29.3518937 C30.9525722,29.1267797 30.5680025,28.9436278 30.5680025,28.3991089 C30.5680025,27.7425266 31.1243696,27.3643747 31.9404076,27.3643747 C32.7742177,27.3643747 33.2417241,27.7602987 33.3602051,28.3522101 L32.685357,28.3522101 C32.5910658,28.0861215 32.3422557,27.9557924 31.9285595,27.9557924 C31.4970911,27.9557924 31.242357,28.1038937 31.242357,28.3285139 C31.242357,28.535362 31.4437747,28.5886785 32.0114962,28.7249316 C32.8926987,28.9317797 33.4011797,29.0853114 33.4011797,29.7181975 C33.4011797,30.4162481 32.7742177,30.7593494 32.0055722,30.7593494 C31.1480658,30.7593494 30.5324582,30.3456532 30.4085468,29.6416785" id="Fill-15" fill-rule="nonzero"></path>
                        <path d="M1.85180886,16.1968481 C2.46445443,13.0541392 5.2221,10.7166076 8.52278354,10.7166076 C9.91197342,10.7166076 11.2493278,11.1436329 12.3674924,11.9098101 L13.6747329,10.6025696 C12.6498722,9.8398481 11.4640747,9.31013924 10.2037329,9.05886076 C10.5853405,4.97718987 14.0188215,1.82510127 18.1572646,1.82510127 C19.7918089,1.82510127 21.3626696,2.31531646 22.7010114,3.24243038 C23.862619,4.04711392 24.7798595,5.12973418 25.3786823,6.39501266 C23.7870873,6.8131519 22.3100241,7.59413924 21.0669608,8.67577215 L22.3613658,9.97017722 C23.9470367,8.62936709 25.973062,7.86713924 28.0928848,7.86713924 C32.8029987,7.86713924 36.6654797,11.5153671 36.9448975,16.1968481 L38.7729608,16.1968481 C38.6372013,13.4633924 37.473619,10.9145696 35.4925177,9.01541772 C33.4921633,7.098 30.8643532,6.04253165 28.0928848,6.04253165 C27.804581,6.04253165 27.5177582,6.05487342 27.2329101,6.07807595 C26.5111633,4.32455696 25.3066063,2.82725316 23.7401886,1.74216456 C22.0952772,0.602278481 20.1650241,1.40309705e-14 18.1572646,1.40309705e-14 C13.0714671,1.40309705e-14 8.8525557,3.87581013 8.38653038,8.89348101 C4.13849241,8.95913924 0.627505063,12.0766709 4.93670886e-05,16.1968481 L1.85180886,16.1968481 Z" id="Fill-17" fill-rule="nonzero"></path>
                        <path d="M3.63751519,21.2338215 C3.63751519,19.3948975 5.00251519,17.9958342 6.87550253,17.9958342 C8.38712278,17.9958342 9.72990759,18.909619 9.96686962,20.4888722 L8.30813544,20.4888722 C8.11659114,19.8120494 7.52961646,19.4852392 6.87550253,19.4852392 C5.89408481,19.4852392 5.26218608,20.2069861 5.27304684,21.2338215 C5.26218608,22.2720114 5.91679367,22.9824038 6.8641481,22.9824038 C7.52961646,22.9824038 8.11659114,22.6437456 8.30813544,21.9669228 L9.96686962,21.9669228 C9.71855316,23.6029481 8.35355316,24.4718089 6.8641481,24.4718089 C5.00251519,24.4718089 3.63751519,23.0727456 3.63751519,21.2338215" id="Fill-20" fill-rule="nonzero"></path>
                        <polygon id="Fill-22" fill-rule="nonzero" points="10.722038 24.3364443 12.3353544 24.3364443 12.3353544 16.2046975 10.722038 16.2046975"></polygon>
                        <path d="M14.8176797,21.2338215 C14.8176797,22.2601633 15.5172114,22.9374797 16.4196418,22.9374797 C17.3220722,22.9374797 18.0216038,22.2601633 18.0216038,21.2338215 C18.0216038,20.2183405 17.3220722,19.5301633 16.4196418,19.5301633 C15.5172114,19.5301633 14.8176797,20.2183405 14.8176797,21.2338215 M19.6576291,21.2338215 C19.6576291,23.1068089 18.235857,24.4718089 16.4196418,24.4718089 C14.6142873,24.4718089 13.1930089,23.0954544 13.1930089,21.2338215 C13.1930089,19.3608342 14.6369962,17.9958342 16.4196418,17.9958342 C18.2131481,17.9958342 19.6576291,19.3608342 19.6576291,21.2338215" id="Fill-24" fill-rule="nonzero"></path>
                        <path d="M26.1891911,18.1314949 L26.1891911,24.3359506 L24.5758747,24.3359506 L24.5758747,23.478938 C24.1246595,24.110343 23.5154696,24.4717101 22.6579633,24.4717101 C21.2929633,24.4717101 20.4468114,23.5352165 20.4468114,22.0235962 L20.4468114,18.1314949 L22.0601278,18.1314949 L22.0601278,21.6740772 C22.0601278,22.4861658 22.3647228,22.937381 23.1995203,22.937381 C24.0910899,22.937381 24.5758747,22.4071785 24.5758747,21.3916975 L24.5758747,18.1314949 L26.1891911,18.1314949 Z" id="Fill-25" fill-rule="nonzero"></path>
                        <path d="M31.908862,21.2338215 C31.908862,20.2183405 31.2206848,19.5301633 30.3182544,19.5301633 C29.4158241,19.5301633 28.749862,20.2183405 28.749862,21.2338215 C28.749862,22.2601633 29.4271785,22.9374797 30.3182544,22.9374797 C31.2206848,22.9374797 31.908862,22.2601633 31.908862,21.2338215 Z M33.5221785,16.2043025 L33.5221785,24.3360494 L31.908862,24.3360494 L31.908862,23.5017456 C31.4803557,24.0877329 30.8257481,24.4718089 29.9568873,24.4718089 C28.3435709,24.4718089 27.1251911,23.1403785 27.1251911,21.2338215 C27.1251911,19.3159101 28.3549253,17.9958342 29.9455329,17.9958342 C30.8257481,17.9958342 31.4803557,18.4021253 31.908862,18.9999608 L31.908862,16.2043025 L33.5221785,16.2043025 Z" id="Fill-26" fill-rule="nonzero"></path>
                    </g>
                </g>
            </g>
        </g>
    </g>
</svg>