<svg width="136" height="40" viewBox="0 0 136 40" fill="none" xmlns="http://www.w3.org/2000/svg">
<rect x="0.5" y="0.5" width="135" height="39" rx="3.5" fill="black" stroke="#22252C"/>
<path fill-rule="evenodd" clip-rule="evenodd" d="M46.9009 23.0138V24.8311H51.2624C51.1941 25.687 50.8382 26.4947 50.2528 27.1229C49.368 28.0244 48.1427 28.5086 46.8807 28.4556C44.2042 28.4556 42.0345 26.2859 42.0345 23.6094C42.0345 20.933 44.2042 18.7633 46.8807 18.7633C48.1129 18.745 49.3027 19.2129 50.1922 20.0657L51.4745 18.7835C50.2589 17.5812 48.6104 16.9189 46.9009 16.946C44.4566 16.8509 42.1561 18.1007 40.9056 20.2031C39.6552 22.3055 39.6552 24.9235 40.9056 27.0259C42.1561 29.1283 44.4566 30.3781 46.9009 30.283C48.6477 30.3528 50.3412 29.6732 51.5552 28.4152C52.6155 27.2505 53.1804 25.7187 53.1302 24.1445C53.1339 23.7657 53.1034 23.3872 53.0394 23.0138H46.9009ZM58.0875 21.6912C55.7121 21.6968 53.791 23.6269 53.7966 26.0022C53.8022 28.3776 55.7323 30.2986 58.1077 30.2931C60.483 30.2875 62.4041 28.3574 62.3986 25.982C62.4152 24.8355 61.9657 23.7313 61.153 22.9224C60.3402 22.1135 59.2339 21.6692 58.0875 21.6912ZM63.2062 26.0022C63.2006 23.6269 65.1217 21.6968 67.497 21.6912C68.6434 21.6692 69.7497 22.1135 70.5624 22.9224C71.3751 23.7313 71.8246 24.8355 71.808 25.982C71.8136 28.3574 69.8925 30.2875 67.5172 30.2931C65.1419 30.2986 63.2118 28.3776 63.2062 26.0022ZM64.9648 27.1112C65.4258 28.0763 66.4299 28.6614 67.4968 28.5868C68.1665 28.5713 68.8015 28.2859 69.2577 27.7955C69.714 27.305 69.9528 26.6511 69.9199 25.982C69.9173 24.9125 69.2612 23.9532 68.2653 23.5631C67.2695 23.1729 66.1364 23.4311 65.4079 24.2142C64.6795 24.9973 64.5037 26.1461 64.9648 27.1112ZM55.5556 27.1112C56.0166 28.0763 57.0207 28.6614 58.0877 28.5868C58.7573 28.5713 59.3923 28.2859 59.8486 27.7955C60.3048 27.305 60.5436 26.6511 60.5107 25.982C60.5081 24.9125 59.852 23.9532 58.8562 23.5631C57.8603 23.1729 56.7272 23.4311 55.9988 24.2142C55.2703 24.9973 55.0946 26.1461 55.5556 27.1112ZM88.9717 21.6912C90.6456 21.7528 92.1076 22.8413 92.6467 24.4272L92.8587 24.8714L87.114 27.244C87.4718 28.066 88.2981 28.5834 89.1938 28.5464C90.0569 28.5548 90.8598 28.1053 91.3039 27.3652L92.7678 28.3748C91.725 29.9546 89.7667 30.6594 87.9563 30.1064C86.1459 29.5535 84.9155 27.8749 84.9332 25.982C84.8635 24.8679 85.2579 23.7747 86.023 22.9618C86.788 22.1489 87.8554 21.689 88.9717 21.6912ZM86.7909 25.8608C86.7496 25.2273 86.965 24.6038 87.3885 24.1309C87.812 23.6579 88.4081 23.3754 89.0423 23.3469C89.7074 23.3063 90.332 23.6683 90.6274 24.2656L86.7909 25.8608ZM84.0146 30.0205H82.1267V17.4003H84.0146V30.0205ZM79.0372 22.6503H78.9665C78.3958 22.0003 77.5699 21.6316 76.705 21.6407C74.4133 21.7518 72.6123 23.6422 72.6123 25.9366C72.6123 28.2309 74.4133 30.1213 76.705 30.2325C77.5716 30.2499 78.4009 29.8797 78.9665 29.2229H79.0372V29.8387C79.0372 31.4844 78.1588 32.3628 76.7454 32.3628C75.7797 32.3415 74.9223 31.7394 74.5747 30.8382L72.9391 31.5147C73.5581 33.0695 75.072 34.0814 76.7454 34.0589C78.9564 34.0589 80.7838 32.7565 80.7838 29.5863V21.9435H79.0372V22.6503ZM74.4238 25.9871C74.4238 27.3627 75.4935 28.5012 76.8665 28.5868C77.5227 28.5616 78.1399 28.2689 78.5747 27.7769C79.0095 27.2849 79.224 26.6363 79.1684 25.982C79.2182 25.3301 79.0014 24.6858 78.5675 24.1967C78.1336 23.7076 77.5197 23.4155 76.8665 23.3873C75.4935 23.4729 74.4238 24.6114 74.4238 25.9871ZM101.491 17.4002H96.9678V30.0204H98.8557V25.2348H101.491C102.957 25.3402 104.36 24.6174 105.126 23.3619C105.891 22.1064 105.891 20.5285 105.126 19.2731C104.36 18.0176 102.957 17.2948 101.491 17.4002ZM98.8558 23.458H101.491L101.531 23.4782C102.303 23.4782 103.016 23.0664 103.402 22.3979C103.788 21.7294 103.788 20.9058 103.402 20.2373C103.016 19.5688 102.303 19.157 101.531 19.157H98.8558V23.458ZM113.142 21.6507C111.736 21.5641 110.414 22.3223 109.78 23.5791L111.446 24.2757C111.789 23.6557 112.466 23.2959 113.172 23.357C113.656 23.3004 114.143 23.4407 114.522 23.7464C114.902 24.052 115.143 24.4974 115.191 24.9824V25.1036C114.584 24.7845 113.908 24.6181 113.222 24.619C111.425 24.619 109.588 25.6286 109.588 27.4661C109.624 28.2552 109.978 28.996 110.57 29.5193C111.162 30.0425 111.94 30.3035 112.728 30.2425C113.692 30.2959 114.611 29.8251 115.131 29.0108H115.191V30.0204H117.008V25.1642C117.008 22.9531 115.333 21.6709 113.182 21.6709L113.142 21.6507ZM111.436 27.4964C111.436 28.2536 112.294 28.5666 112.91 28.5666L112.95 28.5868C114.091 28.564 115.04 27.7015 115.171 26.5676C114.647 26.2752 114.054 26.1287 113.455 26.1435C112.506 26.1435 111.436 26.4868 111.436 27.4964ZM123.632 21.9435L121.471 27.4156H121.411L119.169 21.9435H117.15L120.512 29.5964L118.594 33.8469H120.563L125.732 21.9435H123.632ZM108.548 30.0205H106.67V17.4003H108.548V30.0205Z" fill="white"/>
<path d="M9.24253 7.34435C8.90983 7.73772 8.74008 8.24338 8.76801 8.75782V31.0905C8.73366 31.6058 8.9042 32.1138 9.24253 32.504L9.3132 32.5847L21.8223 20.0756V19.7727L9.3132 7.27368L9.24253 7.34435Z" fill="url(#paint0_linear)"/>
<path d="M25.9614 24.2453L21.822 20.0756V19.7727L25.9614 15.603L26.0523 15.6636L31.0095 18.4703C32.423 19.2679 32.423 20.5804 31.0095 21.3881L26.0725 24.1948L25.9614 24.2453Z" fill="url(#paint1_linear)"/>
<path d="M26.083 24.1849L21.8225 19.9243L9.24268 32.5041C9.83131 33.0281 10.7099 33.0578 11.3326 32.5748L26.083 24.1849Z" fill="url(#paint2_linear)"/>
<path d="M26.083 15.6637L11.3326 7.28385C10.7136 6.79391 9.83219 6.81946 9.24268 7.34443L21.8225 19.9242L26.083 15.6637Z" fill="url(#paint3_linear)"/>
<path opacity="0.2" d="M25.9619 24.094L11.3326 32.4233C10.735 32.8743 9.91088 32.8743 9.31335 32.4233L9.24268 32.494L9.31335 32.5748C9.91088 33.0257 10.735 33.0257 11.3326 32.5748L26.083 24.1849L25.9619 24.094Z" fill="black"/>
<path opacity="0.12" d="M9.24226 32.3628C8.918 31.9623 8.75909 31.453 8.79807 30.9392V31.0907C8.76372 31.6059 8.93425 32.1139 9.27255 32.5041L9.34322 32.4334L9.24226 32.3628Z" fill="black"/>
<path opacity="0.12" d="M31.0098 21.2368L25.9617 24.094L26.0525 24.1849L31.0098 21.3782C31.6058 21.1261 32.0164 20.5684 32.08 19.9243C31.952 20.507 31.5547 20.9941 31.0098 21.2368Z" fill="black"/>
<path opacity="0.25" d="M11.3323 7.42513L31.0097 18.6117C31.5546 18.8543 31.9519 19.3415 32.0799 19.9242C32.0163 19.2801 31.6058 18.7224 31.0097 18.4703L11.3323 7.28379C9.92888 6.4761 8.76782 7.14244 8.76782 8.75783V8.90927C8.79811 7.29388 9.92888 6.62754 11.3323 7.42513Z" fill="white"/>
<path fill-rule="evenodd" clip-rule="evenodd" d="M40.48 14.139H41.217V12.8568H45.8108V14.1289H46.5579V12.1097H45.8815V6.79907H41.843V9.82793C41.9454 10.663 41.676 11.5009 41.1059 12.1198H40.48V14.139ZM42.0449 12.14C42.4649 11.4447 42.6654 10.639 42.6204 9.82795V7.54622H45.0738V12.14H42.0449Z" fill="white"/>
<path d="M41.217 14.139V14.389H41.467V14.139H41.217ZM40.48 14.139H40.23V14.389H40.48V14.139ZM41.217 12.8568V12.6068H40.967V12.8568H41.217ZM45.8108 12.8568H46.0608V12.6068H45.8108V12.8568ZM45.8108 14.1289H45.5608V14.3789H45.8108V14.1289ZM46.5579 14.1289V14.3789H46.8079V14.1289H46.5579ZM46.5579 12.1097H46.8079V11.8597H46.5579V12.1097ZM45.8815 12.1097H45.6315V12.3597H45.8815V12.1097ZM45.8815 6.79907H46.1315V6.54907H45.8815V6.79907ZM41.843 6.79907V6.54907H41.593V6.79907H41.843ZM41.843 9.82793H41.593V9.84321L41.5948 9.85837L41.843 9.82793ZM41.1059 12.1198V12.3698H41.2156L41.2898 12.2891L41.1059 12.1198ZM40.48 12.1198V11.8698H40.23V12.1198H40.48ZM42.6204 9.82795H42.37L42.3708 9.84182L42.6204 9.82795ZM42.0449 12.14L41.8309 12.0107L41.6018 12.39H42.0449V12.14ZM42.6204 7.54622V7.29622H42.3704V7.54622H42.6204ZM45.0738 7.54622H45.3238V7.29622H45.0738V7.54622ZM45.0738 12.14V12.39H45.3238V12.14H45.0738ZM41.217 13.889H40.48V14.389H41.217V13.889ZM40.967 12.8568V14.139H41.467V12.8568H40.967ZM45.8108 12.6068H41.217V13.1068H45.8108V12.6068ZM46.0608 14.1289V12.8568H45.5608V14.1289H46.0608ZM46.5579 13.8789H45.8108V14.3789H46.5579V13.8789ZM46.3079 12.1097V14.1289H46.8079V12.1097H46.3079ZM45.8815 12.3597H46.5579V11.8597H45.8815V12.3597ZM45.6315 6.79907V12.1097H46.1315V6.79907H45.6315ZM41.843 7.04907H45.8815V6.54907H41.843V7.04907ZM42.093 9.82793V6.79907H41.593V9.82793H42.093ZM41.2898 12.2891C41.9095 11.6164 42.2025 10.7054 42.0911 9.79748L41.5948 9.85837C41.6884 10.6206 41.4424 11.3855 40.9221 11.9504L41.2898 12.2891ZM40.48 12.3698H41.1059V11.8698H40.48V12.3698ZM40.73 14.139V12.1198H40.23V14.139H40.73ZM42.3708 9.84182C42.413 10.6026 42.2249 11.3585 41.8309 12.0107L42.2589 12.2692C42.7048 11.5309 42.9178 10.6753 42.87 9.81409L42.3708 9.84182ZM42.3704 7.54622V9.82795H42.8704V7.54622H42.3704ZM45.0738 7.29622H42.6204V7.79622H45.0738V7.29622ZM45.3238 12.14V7.54622H44.8238V12.14H45.3238ZM42.0449 12.39H45.0738V11.89H42.0449V12.39Z" fill="white"/>
<path fill-rule="evenodd" clip-rule="evenodd" d="M50.4096 12.9891C51.2412 12.9891 52.0386 12.6582 52.6258 12.0694C53.223 11.4791 53.5485 10.6674 53.5243 9.82803C53.539 8.99038 53.215 8.18226 52.6258 7.58669C52.0386 6.9979 51.2412 6.66699 50.4096 6.66699C49.5781 6.66699 48.7807 6.9979 48.1935 7.58669C46.9934 8.83998 46.9934 10.8161 48.1935 12.0694C48.7807 12.6582 49.5781 12.9891 50.4096 12.9891ZM50.4045 12.2511C49.7846 12.2597 49.1888 12.0112 48.7588 11.5646C47.8698 10.5776 47.8698 9.07852 48.7588 8.0915C49.1888 7.64491 49.7846 7.39637 50.4045 7.40497C51.0252 7.39266 51.6224 7.6418 52.0503 8.0915C52.9535 9.07301 52.9535 10.5831 52.0503 11.5646C51.6224 12.0143 51.0252 12.2634 50.4045 12.2511Z" fill="white"/>
<path d="M52.6258 12.0694L52.45 11.8916L52.4488 11.8928L52.6258 12.0694ZM53.5243 9.82803L53.2741 9.82366L53.2745 9.83522L53.5243 9.82803ZM52.6258 7.58669L52.8035 7.41086L52.8028 7.41015L52.6258 7.58669ZM48.1935 7.58669L48.0164 7.41012L48.0129 7.41379L48.1935 7.58669ZM48.1935 12.0694L48.0129 12.2423L48.0165 12.2459L48.1935 12.0694ZM48.7588 11.5646L48.573 11.732L48.5787 11.738L48.7588 11.5646ZM50.4045 12.2511L50.4095 12.001L50.4011 12.0011L50.4045 12.2511ZM48.7588 8.0915L48.5786 7.91801L48.5731 7.92419L48.7588 8.0915ZM50.4045 7.40497L50.4011 7.65508L50.4095 7.65492L50.4045 7.40497ZM52.0503 8.0915L52.2342 7.92219L52.2314 7.91918L52.0503 8.0915ZM52.0503 11.5646L52.2314 11.7369L52.2342 11.7339L52.0503 11.5646ZM52.4488 11.8928C51.9085 12.4346 51.1748 12.7391 50.4096 12.7391V13.2391C51.3076 13.2391 52.1687 12.8817 52.8028 12.2459L52.4488 11.8928ZM53.2745 9.83522C53.2966 10.6053 52.998 11.35 52.45 11.8916L52.8015 12.2472C53.4481 11.6082 53.8004 10.7295 53.7742 9.82085L53.2745 9.83522ZM52.4481 7.76252C52.9899 8.31021 53.2878 9.05336 53.2744 9.82366L53.7743 9.8324C53.7901 8.9274 53.4401 8.05431 52.8035 7.41086L52.4481 7.76252ZM50.4096 6.91699C51.1748 6.91699 51.9085 7.22147 52.4488 7.76323L52.8028 7.41015C52.1687 6.77434 51.3076 6.41699 50.4096 6.41699V6.91699ZM48.3705 7.76323C48.9108 7.22147 49.6445 6.91699 50.4096 6.91699V6.41699C49.5117 6.41699 48.6506 6.77434 48.0165 7.41015L48.3705 7.76323ZM48.3741 11.8965C47.2666 10.7399 47.2666 8.9162 48.3741 7.75959L48.0129 7.41379C46.7203 8.76377 46.7203 10.8923 48.0129 12.2423L48.3741 11.8965ZM50.4096 12.7391C49.6445 12.7391 48.9108 12.4346 48.3705 11.8928L48.0165 12.2459C48.6506 12.8817 49.5117 13.2391 50.4096 13.2391V12.7391ZM48.5787 11.738C49.0567 12.2344 49.719 12.5107 50.408 12.5011L50.4011 12.0011C49.8503 12.0088 49.321 11.788 48.9389 11.3912L48.5787 11.738ZM48.5731 7.92419C47.5984 9.0063 47.5984 10.6498 48.5731 11.7319L48.9446 11.3973C48.1412 10.5053 48.1412 9.15074 48.9446 8.25882L48.5731 7.92419ZM50.408 7.15499C49.719 7.14543 49.0567 7.4217 48.5787 7.9181L48.9389 8.26491C49.321 7.86812 49.8503 7.6473 50.4011 7.65494L50.408 7.15499ZM52.2314 7.91918C51.7551 7.41863 51.0904 7.14132 50.3996 7.15501L50.4095 7.65492C50.9599 7.64401 51.4896 7.86498 51.8691 8.26383L52.2314 7.91918ZM52.2342 11.7339C53.2255 10.6567 53.2255 8.9994 52.2342 7.92221L51.8663 8.2608C52.6815 9.14662 52.6815 10.5095 51.8663 11.3953L52.2342 11.7339ZM50.3996 12.5011C51.0904 12.5148 51.7551 12.2375 52.2314 11.7369L51.8691 11.3923C51.4896 11.7911 50.9599 12.0121 50.4095 12.0012L50.3996 12.5011Z" fill="white"/>
<path d="M57.4416 12.9882C56.6162 13.0011 55.8212 12.6766 55.2407 12.0896C54.0304 10.8248 54.0304 8.83137 55.2407 7.56656C55.8309 6.96929 56.6427 6.64387 57.482 6.668C58.3385 6.64377 59.1582 7.01637 59.7031 7.67762L59.1681 8.20262C58.7656 7.68514 58.1369 7.39528 57.482 7.42521C56.8539 7.40919 56.2471 7.65408 55.8061 8.10165C54.9049 9.0917 54.9049 10.6049 55.8061 11.5949C56.2471 12.0425 56.8539 12.2874 57.482 12.2714C58.1842 12.2514 58.8418 11.9226 59.2791 11.3728L59.8243 11.9079C59.5477 12.2394 59.2035 12.5079 58.8147 12.6954C58.3852 12.8961 57.9156 12.9962 57.4416 12.9882Z" fill="white" stroke="white" stroke-width="0.5"/>
<path d="M62.9941 12.8568H62.2167V7.54619H60.5205V6.79907H64.6801V7.54619H62.9941V12.8568Z" fill="white" stroke="white" stroke-width="0.5"/>
<path d="M70.0311 6.79907L67.7393 11.9077C67.6268 12.3223 67.3379 12.6665 66.9491 12.8492C66.5604 13.0319 66.111 13.0347 65.7201 12.8568L65.922 12.1399C66.0455 12.2094 66.1842 12.2475 66.3258 12.251C66.4752 12.2585 66.6233 12.2197 66.7499 12.1399C66.8725 12.0379 66.9664 11.9057 67.0224 11.7563L67.2446 11.2717L65.2253 6.79907H66.1441L67.6383 10.2722L69.1123 6.79907H70.0311Z" fill="white" stroke="white" stroke-width="0.5"/>
<path d="M70.9094 12.8568V6.79907H75.2912V12.8568H74.5138V7.54619H71.6868V12.8568H70.9094Z" fill="white" stroke="white" stroke-width="0.5"/>
<path d="M76.6748 12.8568V6.79907H77.4522V9.39379H80.4809V6.79907H81.2684V12.8568H80.4809V10.1207H77.4522V12.8568H76.6748Z" fill="white" stroke="white" stroke-width="0.5"/>
<path fill-rule="evenodd" clip-rule="evenodd" d="M85.3875 12.9899C86.2207 12.9899 87.0198 12.6588 87.6087 12.0694H87.5986C88.7884 10.812 88.7884 8.84409 87.5986 7.58669C87.0114 6.9979 86.214 6.66699 85.3825 6.66699C84.5509 6.66699 83.7536 6.9979 83.1664 7.58669C81.9664 8.83999 81.9664 10.8161 83.1664 12.0694C83.7553 12.6588 84.5543 12.9899 85.3875 12.9899ZM85.3875 12.2511C84.7669 12.2634 84.1697 12.0143 83.7418 11.5646C82.8385 10.5831 82.8385 9.07301 83.7418 8.0915C84.1697 7.6418 84.7669 7.39266 85.3875 7.40497C86.0075 7.39637 86.6032 7.64491 87.0333 8.0915C87.9223 9.07852 87.9223 10.5776 87.0333 11.5646C86.6032 12.0112 86.0075 12.2597 85.3875 12.2511Z" fill="white"/>
<path d="M87.6087 12.0694L87.7856 12.2461L88.2119 11.8194H87.6087V12.0694ZM87.5986 12.0694L87.417 11.8976L87.0179 12.3194H87.5986V12.0694ZM87.5986 7.58669L87.7803 7.41481L87.7756 7.41016L87.5986 7.58669ZM83.1664 7.58669L82.9893 7.41012L82.9858 7.4138L83.1664 7.58669ZM83.1664 12.0694L82.9858 12.2423L82.9895 12.2461L83.1664 12.0694ZM83.7418 11.5646L83.5578 11.7339L83.5607 11.7369L83.7418 11.5646ZM85.3875 12.2511L85.391 12.001L85.3826 12.0012L85.3875 12.2511ZM83.7418 8.0915L83.5607 7.91915L83.5579 7.92221L83.7418 8.0915ZM85.3875 7.40497L85.3826 7.65506L85.391 7.65494L85.3875 7.40497ZM87.0333 8.0915L87.2191 7.92409L87.2133 7.9181L87.0333 8.0915ZM87.0333 11.5646L87.2134 11.7381L87.219 11.7319L87.0333 11.5646ZM87.4319 11.8927C86.8898 12.4352 86.1544 12.7399 85.3875 12.7399V13.2399C86.2871 13.2399 87.1497 12.8824 87.7856 12.2461L87.4319 11.8927ZM87.5986 12.3194H87.6087V11.8194H87.5986V12.3194ZM87.417 7.75852C88.5156 8.91952 88.5156 10.7366 87.417 11.8976L87.7802 12.2412C89.0612 10.8874 89.0612 8.76865 87.7802 7.41487L87.417 7.75852ZM85.3825 6.91699C86.1476 6.91699 86.8813 7.22147 87.4216 7.76323L87.7756 7.41016C87.1415 6.77434 86.2805 6.41699 85.3825 6.41699V6.91699ZM83.3434 7.76323C83.8837 7.22147 84.6174 6.91699 85.3825 6.91699V6.41699C84.4845 6.41699 83.6235 6.77434 82.9894 7.41016L83.3434 7.76323ZM83.347 11.8965C82.2395 10.7399 82.2395 8.91621 83.347 7.75959L82.9858 7.4138C81.6932 8.76377 81.6932 10.8923 82.9858 12.2423L83.347 11.8965ZM85.3875 12.7399C84.6207 12.7399 83.8853 12.4352 83.3432 11.8927L82.9895 12.2461C83.6253 12.8824 84.488 13.2399 85.3875 13.2399V12.7399ZM83.5607 11.7369C84.037 12.2375 84.7017 12.5148 85.3925 12.5011L85.3826 12.0012C84.8321 12.0121 84.3024 11.7911 83.9229 11.3923L83.5607 11.7369ZM83.5579 7.92221C82.5665 8.9994 82.5665 10.6567 83.5579 11.7339L83.9258 11.3953C83.1106 10.5095 83.1106 9.14662 83.9258 8.2608L83.5579 7.92221ZM85.3925 7.15501C84.7017 7.14132 84.037 7.41863 83.5607 7.91918L83.9229 8.26383C84.3024 7.86498 84.8321 7.64401 85.3826 7.65492L85.3925 7.15501ZM87.2133 7.9181C86.7354 7.4217 86.0731 7.14543 85.3841 7.15499L85.391 7.65494C85.9418 7.6473 86.4711 7.86812 86.8532 8.26491L87.2133 7.9181ZM87.219 11.7319C88.1937 10.6498 88.1937 9.0063 87.219 7.92419L86.8475 8.25882C87.6509 9.15074 87.6509 10.5053 86.8475 11.3973L87.219 11.7319ZM85.3841 12.5011C86.0731 12.5107 86.7354 12.2344 87.2133 11.738L86.8532 11.3912C86.4711 11.788 85.9418 12.0088 85.391 12.0011L85.3841 12.5011Z" fill="white"/>
<path fill-rule="evenodd" clip-rule="evenodd" d="M91.6772 12.8569V6.79916H93.8681C94.3223 6.7946 94.7617 6.96029 95.0999 7.26359C95.4414 7.55998 95.6337 7.99271 95.6249 8.44484C95.6273 8.7168 95.5501 8.98354 95.4027 9.21214C95.2537 9.42892 95.0475 9.60016 94.8071 9.70685C95.0985 9.80652 95.3547 9.98896 95.5441 10.2319C95.7297 10.4793 95.829 10.7807 95.8268 11.09C95.8372 11.5612 95.6374 12.0127 95.2816 12.3218C94.9312 12.6478 94.4679 12.8252 93.9893 12.8165L91.6772 12.8569ZM92.4544 9.39392H93.8679C94.1358 9.40942 94.3962 9.30157 94.5746 9.10113C94.7458 8.93336 94.8438 8.70474 94.8472 8.46507C94.8568 8.22464 94.7737 7.98973 94.615 7.80881C94.4432 7.61816 94.195 7.51445 93.9386 7.52612H92.4847L92.4544 9.39392ZM94.0295 12.1097H92.4544V10.1208H93.9891C94.2744 10.1134 94.5495 10.2271 94.7463 10.4338C94.922 10.6159 95.0229 10.8573 95.029 11.1102C95.0281 11.3653 94.9307 11.6106 94.7564 11.7968C94.5729 12.0043 94.3063 12.119 94.0295 12.1097Z" fill="white"/>
<path d="M91.6772 6.79916V6.54916H91.4272V6.79916H91.6772ZM91.6772 12.8569H91.4272V13.1113L91.6816 13.1068L91.6772 12.8569ZM93.8681 6.79916V7.04918L93.8706 7.04915L93.8681 6.79916ZM95.0999 7.26359L94.9329 7.44971L94.936 7.4524L95.0999 7.26359ZM95.6249 8.44484L95.3748 8.43994L95.3749 8.44708L95.6249 8.44484ZM95.4027 9.21214L95.6089 9.35384L95.6129 9.34758L95.4027 9.21214ZM94.8071 9.70685L94.7057 9.47834L94.1227 9.73704L94.7262 9.94341L94.8071 9.70685ZM95.5441 10.2319L95.7441 10.0818L95.7412 10.0781L95.5441 10.2319ZM95.8268 11.09L95.5767 11.0882L95.5769 11.0956L95.8268 11.09ZM95.2816 12.3218L95.1175 12.1329L95.1113 12.1387L95.2816 12.3218ZM93.9893 12.8165L93.9938 12.5664L93.9849 12.5665L93.9893 12.8165ZM93.8679 9.39392L93.8823 9.14434L93.8751 9.14392H93.8679V9.39392ZM92.4544 9.39392L92.2045 9.38987L92.2003 9.64392H92.4544V9.39392ZM94.5746 9.10113L94.3997 8.92257L94.3936 8.92852L94.3879 8.93488L94.5746 9.10113ZM94.8472 8.46507L94.5974 8.45515L94.5973 8.46151L94.8472 8.46507ZM94.615 7.80881L94.803 7.64398L94.8007 7.64142L94.615 7.80881ZM93.9386 7.52612V7.77638L93.9499 7.77586L93.9386 7.52612ZM92.4847 7.52612V7.27612H92.2387L92.2347 7.52206L92.4847 7.52612ZM92.4544 12.1097H92.2044V12.3597H92.4544V12.1097ZM94.0295 12.1097L94.0378 11.8597H94.0295V12.1097ZM92.4544 10.1208V9.87078H92.2044V10.1208H92.4544ZM93.9891 10.1208V10.3709L93.9955 10.3707L93.9891 10.1208ZM94.7463 10.4338L94.5653 10.6062L94.5664 10.6073L94.7463 10.4338ZM95.029 11.1102L95.2791 11.1111L95.2789 11.1041L95.029 11.1102ZM94.7564 11.7968L94.5738 11.6258L94.5691 11.6311L94.7564 11.7968ZM91.4272 6.79916V12.8569H91.9272V6.79916H91.4272ZM93.8681 6.54916H91.6772V7.04916H93.8681V6.54916ZM95.2668 7.07749C94.8822 6.73247 94.3823 6.54399 93.8656 6.54918L93.8706 7.04915C94.2623 7.04522 94.6413 7.18811 94.9329 7.44969L95.2668 7.07749ZM95.8748 8.44973C95.8851 7.92346 95.6613 7.41978 95.2637 7.07477L94.936 7.4524C95.2215 7.70019 95.3823 8.06196 95.3749 8.43994L95.8748 8.44973ZM95.6129 9.34758C95.7867 9.07795 95.8777 8.76336 95.8749 8.44259L95.3749 8.44708C95.3769 8.67025 95.3135 8.88912 95.1926 9.0767L95.6129 9.34758ZM94.9085 9.93537C95.1912 9.80993 95.4336 9.60862 95.6088 9.35378L95.1967 9.07051C95.0739 9.24921 94.9039 9.39038 94.7057 9.47834L94.9085 9.93537ZM95.7412 10.0781C95.5219 9.7969 95.2254 9.58569 94.888 9.4703L94.7262 9.94341C94.9717 10.0274 95.1874 10.181 95.347 10.3856L95.7412 10.0781ZM96.0768 11.0918C96.0794 10.7278 95.9625 10.373 95.7441 10.0818L95.3441 10.3819C95.4969 10.5855 95.5786 10.8337 95.5768 11.0882L96.0768 11.0918ZM95.4455 12.5105C95.8575 12.1526 96.0888 11.63 96.0767 11.0845L95.5769 11.0956C95.5856 11.4925 95.4173 11.8727 95.1176 12.133L95.4455 12.5105ZM93.9847 13.0664C94.5281 13.0763 95.0541 12.875 95.4519 12.5048L95.1113 12.1387C94.8083 12.4207 94.4077 12.5741 93.9938 12.5665L93.9847 13.0664ZM91.6816 13.1068L93.9936 13.0664L93.9849 12.5665L91.6729 12.6069L91.6816 13.1068ZM93.8679 9.14392H92.4544V9.64392H93.8679V9.14392ZM94.3879 8.93488C94.2603 9.07827 94.074 9.15543 93.8823 9.14434L93.8535 9.6435C94.1977 9.66341 94.5321 9.52487 94.7614 9.26738L94.3879 8.93488ZM94.5973 8.46151C94.5948 8.63524 94.5238 8.80096 94.3997 8.92257L94.7496 9.27969C94.9679 9.06577 95.0929 8.77425 95.0972 8.46863L94.5973 8.46151ZM94.4271 7.97363C94.5434 8.10638 94.6044 8.27874 94.5974 8.45515L95.097 8.47498C95.1091 8.17054 95.0039 7.87308 94.803 7.64399L94.4271 7.97363ZM93.9499 7.77586C94.1317 7.76759 94.3075 7.84109 94.4293 7.9762L94.8007 7.64142C94.5788 7.39523 94.2583 7.2613 93.9272 7.27638L93.9499 7.77586ZM92.4847 7.77612H93.9386V7.27612H92.4847V7.77612ZM92.7044 9.39797L92.7347 7.53017L92.2347 7.52206L92.2045 9.38987L92.7044 9.39797ZM92.4544 12.3597H94.0295V11.8597H92.4544V12.3597ZM92.2044 10.1208V12.1097H92.7044V10.1208H92.2044ZM93.9891 9.87078H92.4544V10.3708H93.9891V9.87078ZM94.9273 10.2613C94.6818 10.0035 94.3385 9.86165 93.9826 9.87086L93.9955 10.3707C94.2102 10.3651 94.4172 10.4507 94.5653 10.6062L94.9273 10.2613ZM95.2789 11.1041C95.2713 10.7886 95.1454 10.4874 94.9262 10.2602L94.5664 10.6073C94.6985 10.7443 94.7744 10.926 94.7791 11.1163L95.2789 11.1041ZM94.9389 11.9676C95.1564 11.7353 95.2779 11.4293 95.279 11.1111L94.779 11.1093C94.7783 11.3013 94.7051 11.4858 94.5739 11.6259L94.9389 11.9676ZM94.0211 12.3596C94.3724 12.3714 94.7108 12.2257 94.9437 11.9624L94.5691 11.6311C94.435 11.7828 94.2402 11.8667 94.0378 11.8599L94.0211 12.3596Z" fill="white"/>
<defs>
<linearGradient id="paint0_linear" x1="16.3415" y1="-7.89274" x2="-3.68999" y2="-2.56075" gradientUnits="userSpaceOnUse">
<stop stop-color="#00A0FF"/>
<stop offset="0.01" stop-color="#00A1FF"/>
<stop offset="0.26" stop-color="#00BEFF"/>
<stop offset="0.51" stop-color="#00D2FF"/>
<stop offset="0.76" stop-color="#00DFFF"/>
<stop offset="1" stop-color="#00E3FF"/>
</linearGradient>
<linearGradient id="paint1_linear" x1="32.8571" y1="9.6258" x2="8.43453" y2="9.6258" gradientUnits="userSpaceOnUse">
<stop stop-color="#FFE000"/>
<stop offset="0.41" stop-color="#FFBD00"/>
<stop offset="0.78" stop-color="#FFA500"/>
<stop offset="1" stop-color="#FF9C00"/>
</linearGradient>
<linearGradient id="paint2_linear" x1="8.8868" y1="13.3814" x2="-7.22816" y2="40.4383" gradientUnits="userSpaceOnUse">
<stop stop-color="#FF3A44"/>
<stop offset="1" stop-color="#C31162"/>
</linearGradient>
<linearGradient id="paint3_linear" x1="-0.575901" y1="3.87026" x2="6.6149" y2="15.9531" gradientUnits="userSpaceOnUse">
<stop stop-color="#32A071"/>
<stop offset="0.07" stop-color="#2DA771"/>
<stop offset="0.48" stop-color="#15CF74"/>
<stop offset="0.8" stop-color="#06E775"/>
<stop offset="1" stop-color="#00F076"/>
</linearGradient>
</defs>
</svg>
