<svg width="100" height="40" viewBox="0 0 100 40" fill="none" xmlns="http://www.w3.org/2000/svg">
<path d="M100 0H0V40H100V0Z" fill="#1D1F23"/>
<g clip-path="url(#clip0_22469_948580)">
<path fill-rule="evenodd" clip-rule="evenodd" d="M40.4459 23.3218C38.4542 23.3218 36.7832 21.5507 36.7832 19.3765C36.7832 17.2023 38.4542 15.4312 40.4459 15.4312C41.5436 15.4312 42.3306 15.8978 42.9232 16.5129L42.2237 17.2766C41.7963 16.8417 41.2328 16.5023 40.4459 16.5023C38.9886 16.5023 37.8519 17.7856 37.8519 19.3659C37.8519 20.9568 38.9886 22.2294 40.4459 22.2294C41.3882 22.2294 41.9226 21.8158 42.2723 21.4446C42.554 21.1371 42.7386 20.6916 42.8066 20.0871H40.4459V19.0053H43.7684C43.8073 19.1962 43.817 19.4295 43.817 19.6735C43.817 20.4795 43.613 21.4764 42.9621 22.1976C42.3306 22.94 41.5242 23.3218 40.4459 23.3218ZM70.5544 23.1616V17.0527H72.332V16.1937H67.9507V17.0527H69.7383V23.1616H70.5544ZM75.1118 23.1741H75.9665L78.298 16.2062H77.3852L75.5685 21.859H75.5296L73.7808 16.2062H72.8675L75.1118 23.1741ZM46.6643 23.3195C47.9273 23.3195 48.9571 22.2483 48.9571 20.7847C48.9571 19.3105 47.9273 18.2499 46.6643 18.2499C45.4013 18.2499 44.3715 19.3105 44.3715 20.7847C44.3715 22.2377 45.4013 23.3195 46.6643 23.3195ZM46.6643 19.2468C47.3638 19.2468 47.9565 19.8726 47.9565 20.7847C47.9565 21.6861 47.3541 22.3225 46.6643 22.3225C45.9648 22.3225 45.3722 21.6861 45.3722 20.7847C45.3722 19.8726 45.9745 19.2468 46.6643 19.2468ZM54.0961 20.7848C54.0961 22.2483 53.0663 23.3195 51.8033 23.3195C50.5403 23.3195 49.5105 22.2378 49.5105 20.7848C49.5105 19.3106 50.5403 18.25 51.8033 18.25C53.0663 18.2394 54.0961 19.3106 54.0961 20.7848ZM53.0954 20.7848C53.0954 19.8727 52.5028 19.2469 51.8033 19.2469C51.1135 19.2469 50.5112 19.8727 50.5112 20.7848C50.5112 21.6862 51.1038 22.3226 51.8033 22.3226C52.4931 22.3226 53.0954 21.6862 53.0954 20.7848ZM59.1092 22.9588V18.3984H58.1473V18.812H58.1085C57.8753 18.515 57.4381 18.2499 56.8844 18.2499C55.7283 18.2499 54.6596 19.3635 54.6596 20.7953C54.6596 22.2164 55.7186 23.3195 56.8844 23.3195C57.4381 23.3195 57.8753 23.0543 58.1085 22.7467H58.1473V23.1073C58.1473 24.083 57.6713 24.6027 56.9038 24.6027C56.2723 24.6027 55.8837 24.1149 55.7283 23.7013L54.8345 24.1043C55.087 24.7724 55.7671 25.5997 56.8941 25.5997C58.0988 25.5997 59.1092 24.8361 59.1092 22.9588ZM56.9621 19.2468C57.6616 19.2468 58.2057 19.9044 58.2057 20.7953C58.2057 21.6756 57.6616 22.3225 56.9621 22.3225C56.2626 22.3225 55.67 21.6756 55.67 20.7953C55.67 19.9044 56.2529 19.2468 56.9621 19.2468ZM60.8966 15.7041V23.1705H59.8765V15.7041H60.8966ZM65.7154 22.1953L64.9188 21.6225C64.6467 22.0468 64.297 22.3225 63.7821 22.3225C63.2672 22.3225 62.8883 22.0574 62.6552 21.5483L65.764 20.1483L65.6571 19.862C65.4629 19.2999 64.8702 18.2499 63.6655 18.2499C62.4706 18.2499 61.5088 19.2787 61.5088 20.7847C61.5088 22.2059 62.4608 23.3195 63.7821 23.3195C64.8411 23.3195 65.4629 22.6089 65.7154 22.1953ZM64.5496 19.7665L62.4706 20.7105C62.4511 19.7241 63.17 19.2256 63.685 19.2256C64.093 19.2256 64.4331 19.4484 64.5496 19.7665Z" fill="#F2F2F2"/>
<path d="M31.3998 14.9331H24.7934C24.2202 14.9331 23.7539 15.4422 23.7539 16.0679V17.2027H31.8078C32.381 17.2027 32.8473 17.7118 32.8473 18.3376V16.5134C32.8473 15.6331 32.1964 14.9331 31.3998 14.9331Z" fill="#F2F2F2"/>
<path d="M23.1233 14.9331C22.3267 14.9331 21.6758 15.6437 21.6758 16.5134V20.4269C21.6758 21.0526 22.1421 21.5617 22.7153 21.5617H23.7548V16.0679C23.7548 15.4422 24.2212 14.9331 24.7944 14.9331H23.1233Z" fill="#F2F2F2"/>
<path d="M23.1233 23.8298H29.7297C30.3029 23.8298 30.7692 23.3207 30.7692 22.6949V21.5601H22.7153C22.1421 21.5601 21.6758 21.0511 21.6758 20.4253V22.2601C21.6758 23.1192 22.317 23.8298 23.1233 23.8298Z" fill="#F2F2F2"/>
<path d="M31.3995 23.8337C32.1962 23.8337 32.8471 23.1231 32.8471 22.2534V18.3399C32.8471 17.7142 32.3807 17.2051 31.8076 17.2051H30.768V22.6989C30.768 23.3246 30.3017 23.8337 29.7285 23.8337H31.3995Z" fill="#F2F2F2"/>
</g>
<defs>
<clipPath id="clip0_22469_948580">
<rect width="56.6502" height="10.6667" fill="white" transform="translate(21.6758 14.9331)"/>
</clipPath>
</defs>
</svg>
