<svg width="20" height="20" viewBox="0 0 20 20" fill="none" xmlns="http://www.w3.org/2000/svg">
<path fill-rule="evenodd" clip-rule="evenodd" d="M9.99964 3.86652C11.8773 3.86652 13.144 4.67759 13.8662 5.35535L16.6883 2.5999C14.955 0.98885 12.6995 0 9.99964 0C6.08868 0 2.71103 2.24436 1.06665 5.5109L4.29986 8.02191C5.11094 5.61089 7.35529 3.86652 9.99964 3.86652Z" fill="#EA4335"/>
<path fill-rule="evenodd" clip-rule="evenodd" d="M19.5991 10.2218C19.5991 9.39963 19.5325 8.79966 19.388 8.17746H9.99951V11.8884H15.5104C15.3993 12.8106 14.7993 14.1994 13.466 15.1327L16.6215 17.5771C18.5103 15.8327 19.5991 13.2661 19.5991 10.2218Z" fill="#4285F4"/>
<path fill-rule="evenodd" clip-rule="evenodd" d="M4.31094 11.9772C4.09984 11.355 3.97762 10.6884 3.97762 9.99952C3.97762 9.31065 4.09984 8.64401 4.29983 8.02182L1.06663 5.5108C0.388874 6.86631 0 8.38847 0 9.99952C0 11.6106 0.388874 13.1327 1.06663 14.4882L4.31094 11.9772Z" fill="#FBBC05"/>
<path fill-rule="evenodd" clip-rule="evenodd" d="M9.99982 19.9994C12.6997 19.9994 14.9663 19.1105 16.6218 17.5772L13.4663 15.1329C12.6219 15.7217 11.4886 16.1328 9.99982 16.1328C7.35547 16.1328 5.11112 14.3885 4.31115 11.9774L1.07794 14.4885C2.72232 17.755 6.08886 19.9994 9.99982 19.9994Z" fill="#34A853"/>
</svg>
