<?xml version="1.0" encoding="utf-8"?>
<!-- Generator: Adobe Illustrator 24.0.1, SVG Export Plug-In . SVG Version: 6.00 Build 0)  -->
<svg version="1.1" id="Слой_1" xmlns="http://www.w3.org/2000/svg" xmlns:xlink="http://www.w3.org/1999/xlink" x="0px" y="0px"
	 viewBox="0 0 136 40" style="enable-background:new 0 0 136 40;" xml:space="preserve">
<style type="text/css">
	.st0{fill:#FFFFFF;stroke:#FFFFFF;stroke-width:0.2;stroke-miterlimit:10;}
	.st1{fill:#FFFFFF;}
	.st2{clip-path:url(#SVGID_2_);fill:#00A0FF;}
	.st3{clip-path:url(#SVGID_2_);fill:#00A1FF;}
	.st4{clip-path:url(#SVGID_2_);fill:#00A4FF;}
	.st5{clip-path:url(#SVGID_2_);fill:#00A7FF;}
	.st6{clip-path:url(#SVGID_2_);fill:#00AAFF;}
	.st7{clip-path:url(#SVGID_2_);fill:#00ADFF;}
	.st8{clip-path:url(#SVGID_2_);fill:#00B0FF;}
	.st9{clip-path:url(#SVGID_2_);fill:#00B2FF;}
	.st10{clip-path:url(#SVGID_2_);fill:#00B5FF;}
	.st11{clip-path:url(#SVGID_2_);fill:#00B8FF;}
	.st12{clip-path:url(#SVGID_2_);fill:#00BBFF;}
	.st13{clip-path:url(#SVGID_2_);fill:#00BEFF;}
	.st14{clip-path:url(#SVGID_2_);fill:#00C1FF;}
	.st15{clip-path:url(#SVGID_2_);fill:#00C4FF;}
	.st16{clip-path:url(#SVGID_2_);fill:#00C7FF;}
	.st17{clip-path:url(#SVGID_2_);fill:#00C9FF;}
	.st18{clip-path:url(#SVGID_2_);fill:#00CCFF;}
	.st19{clip-path:url(#SVGID_2_);fill:#00CFFF;}
	.st20{clip-path:url(#SVGID_2_);fill:#00D2FF;}
	.st21{clip-path:url(#SVGID_2_);fill:#00D5FF;}
	.st22{clip-path:url(#SVGID_2_);fill:#00D9FF;}
	.st23{clip-path:url(#SVGID_2_);fill:#00DCFF;}
	.st24{clip-path:url(#SVGID_2_);fill:#00DFFF;}
	.st25{clip-path:url(#SVGID_2_);fill:#00E3FF;}
	.st26{clip-path:url(#SVGID_4_);fill:#FFE000;}
	.st27{clip-path:url(#SVGID_4_);fill:#FFDD00;}
	.st28{clip-path:url(#SVGID_4_);fill:#FFDB00;}
	.st29{clip-path:url(#SVGID_4_);fill:#FFD800;}
	.st30{clip-path:url(#SVGID_4_);fill:#FFD500;}
	.st31{clip-path:url(#SVGID_4_);fill:#FFD300;}
	.st32{clip-path:url(#SVGID_4_);fill:#FFD000;}
	.st33{clip-path:url(#SVGID_4_);fill:#FFCD00;}
	.st34{clip-path:url(#SVGID_4_);fill:#FFCA00;}
	.st35{clip-path:url(#SVGID_4_);fill:#FFC800;}
	.st36{clip-path:url(#SVGID_4_);fill:#FFC500;}
	.st37{clip-path:url(#SVGID_4_);fill:#FFC200;}
	.st38{clip-path:url(#SVGID_4_);fill:#FFC000;}
	.st39{clip-path:url(#SVGID_4_);fill:#FFBD00;}
	.st40{clip-path:url(#SVGID_4_);fill:#FFBA00;}
	.st41{clip-path:url(#SVGID_6_);fill:#FF3A44;}
	.st42{clip-path:url(#SVGID_6_);fill:#FC3845;}
	.st43{clip-path:url(#SVGID_6_);fill:#FA3647;}
	.st44{clip-path:url(#SVGID_6_);fill:#F73548;}
	.st45{clip-path:url(#SVGID_6_);fill:#F53349;}
	.st46{clip-path:url(#SVGID_6_);fill:#F2314B;}
	.st47{clip-path:url(#SVGID_6_);fill:#EF2F4C;}
	.st48{clip-path:url(#SVGID_6_);fill:#ED2E4D;}
	.st49{clip-path:url(#SVGID_6_);fill:#EA2C4E;}
	.st50{clip-path:url(#SVGID_6_);fill:#E82A50;}
	.st51{clip-path:url(#SVGID_6_);fill:#E52851;}
	.st52{clip-path:url(#SVGID_6_);fill:#E22652;}
	.st53{clip-path:url(#SVGID_6_);fill:#E02554;}
	.st54{clip-path:url(#SVGID_6_);fill:#DD2355;}
	.st55{clip-path:url(#SVGID_8_);fill:#15CF74;}
	.st56{clip-path:url(#SVGID_8_);fill:#13D274;}
	.st57{clip-path:url(#SVGID_8_);fill:#11D574;}
	.st58{clip-path:url(#SVGID_8_);fill:#0FD874;}
	.st59{clip-path:url(#SVGID_8_);fill:#0EDB75;}
	.st60{clip-path:url(#SVGID_8_);fill:#0CDE75;}
	.st61{clip-path:url(#SVGID_8_);fill:#0AE175;}
	.st62{clip-path:url(#SVGID_8_);fill:#08E475;}
	.st63{clip-path:url(#SVGID_8_);fill:#06E775;}
	.st64{clip-path:url(#SVGID_8_);fill:#04EA75;}
	.st65{clip-path:url(#SVGID_8_);fill:#02ED76;}
	.st66{clip-path:url(#SVGID_8_);fill:#00F076;}
	.st67{opacity:0.2;enable-background:new    ;}
	.st68{opacity:0.12;enable-background:new    ;}
	.st69{opacity:0.25;fill:#FFFFFF;enable-background:new    ;}
	.st70{fill:none;stroke:#22252C;}
</style>
<path d="M5,0.5h127c1.9,0,3.5,1.6,3.5,3.5v32c0,1.9-1.6,3.5-3.5,3.5H5c-1.9,0-3.5-1.6-3.5-3.5V4C1.5,2.1,3.1,0.5,5,0.5z"/>
<path class="st0" d="M48.9,10.2c0,0.4,0,0.7-0.2,1c-0.1,0.3-0.3,0.6-0.6,0.9c-0.3,0.3-0.6,0.5-1,0.6c-0.4,0.1-0.8,0.2-1.1,0.2
	c-0.4,0-0.8-0.1-1.1-0.2c-0.4-0.1-0.7-0.4-1-0.7c-0.6-0.6-0.9-1.3-0.9-2.1c0-0.8,0.3-1.6,0.9-2.1c0.4-0.4,1-0.7,1.6-0.8
	c0.6-0.1,1.2,0,1.7,0.2c0.3,0.1,0.7,0.4,0.9,0.6l-0.5,0.5c-0.2-0.2-0.4-0.4-0.7-0.5c-0.3-0.1-0.6-0.2-0.9-0.2
	c-0.4,0-0.7,0.1-1.1,0.3c-0.3,0.2-0.6,0.4-0.8,0.7s-0.3,0.7-0.4,1c0,0.4,0,0.8,0.2,1.1c0.1,0.3,0.4,0.7,0.7,0.9
	c0.3,0.2,0.6,0.4,1,0.5c0.4,0.1,0.7,0.1,1.1,0c0.4-0.1,0.7-0.3,1-0.6c0.3-0.3,0.5-0.7,0.5-1.2h-2.1V9.8h2.8
	C48.9,9.9,48.9,10.1,48.9,10.2z"/>
<path class="st0" d="M53.3,7.8h-2.6v1.8H53v0.7h-2.4v1.8h2.6v0.7h-3.3V7.1h3.3V7.8z"/>
<path class="st0" d="M56.4,12.9h-0.7v-5h-1.6V7.1h4v0.7h-1.6V12.9z"/>
<path class="st0" d="M60.9,12.9V7.1h0.7v5.7H60.9z"/>
<path class="st0" d="M64.9,12.9h-0.7v-5h-1.6V7.1h3.9v0.7h-1.6V12.9z"/>
<path class="st0" d="M74,12.1c-0.3,0.3-0.6,0.5-1,0.6c-0.4,0.1-0.7,0.2-1.1,0.2c-0.4,0-0.8-0.1-1.1-0.2c-0.4-0.1-0.7-0.4-1-0.6
	c-0.5-0.6-0.8-1.3-0.8-2.1c0-0.8,0.3-1.6,0.8-2.1c0.3-0.3,0.6-0.5,1-0.7C71.1,7.1,71.5,7,71.9,7c0.4,0,0.8,0.1,1.1,0.2
	c0.4,0.1,0.7,0.4,1,0.7c0.3,0.3,0.5,0.6,0.6,1c0.1,0.4,0.2,0.8,0.2,1.1c0,0.4-0.1,0.8-0.2,1.2C74.5,11.5,74.2,11.9,74,12.1z
	 M70.3,11.7c0.2,0.2,0.4,0.4,0.7,0.5c0.3,0.1,0.6,0.2,0.8,0.2c0.3,0,0.6-0.1,0.8-0.2c0.3-0.1,0.5-0.3,0.7-0.5c0.4-0.4,0.6-1,0.6-1.6
	c0-0.6-0.2-1.2-0.6-1.6C73.2,8.2,73,8,72.7,7.9c-0.3-0.1-0.6-0.2-0.8-0.2c-0.3,0-0.6,0.1-0.8,0.2c-0.3,0.1-0.5,0.3-0.7,0.5
	c-0.4,0.4-0.6,1-0.6,1.6C69.7,10.6,69.9,11.2,70.3,11.7z"/>
<path class="st0" d="M75.9,12.9V7.1h0.9l2.8,4.5v-1.1V7.1h0.7v5.7h-0.8l-2.9-4.7v1.1v3.6H75.9z"/>
<path class="st1" d="M68.7,21.3c-0.8,0-1.6,0.2-2.3,0.7c-0.7,0.5-1.2,1.1-1.5,1.8c-0.3,0.7-0.4,1.6-0.2,2.4c0.2,0.8,0.5,1.5,1.1,2.1
	c0.6,0.6,1.3,1,2.1,1.1s1.6,0.1,2.4-0.2c0.7-0.3,1.4-0.8,1.8-1.5c0.4-0.7,0.7-1.5,0.7-2.3c0-0.5-0.1-1.1-0.3-1.6
	c-0.2-0.5-0.5-1-0.9-1.3c-0.4-0.4-0.8-0.7-1.3-0.9C69.8,21.4,69.3,21.3,68.7,21.3z M68.7,27.8c-0.5,0-1-0.1-1.4-0.3
	c-0.4-0.2-0.8-0.6-1-1.1S66,25.5,66.1,25s0.3-0.9,0.6-1.3c0.3-0.4,0.8-0.6,1.3-0.7c0.5-0.1,1-0.1,1.5,0.1c0.5,0.2,0.9,0.5,1.1,0.9
	c0.3,0.4,0.4,0.9,0.4,1.4c0,0.3,0,0.6-0.1,0.9c-0.1,0.3-0.3,0.6-0.5,0.8c-0.2,0.2-0.5,0.4-0.8,0.5S69,27.8,68.7,27.8z M59.8,21.3
	c-0.8,0-1.6,0.2-2.3,0.7c-0.7,0.5-1.2,1.1-1.5,1.8c-0.3,0.7-0.4,1.6-0.2,2.4c0.2,0.8,0.5,1.5,1.1,2.1c0.6,0.6,1.3,1,2.1,1.1
	s1.6,0.1,2.4-0.2s1.4-0.8,1.8-1.5c0.4-0.7,0.7-1.5,0.7-2.3c0-0.5-0.1-1.1-0.3-1.6c-0.2-0.5-0.5-1-0.9-1.3c-0.4-0.4-0.8-0.7-1.3-0.9
	C60.9,21.4,60.3,21.3,59.8,21.3z M59.8,27.8c-0.5,0-1-0.1-1.4-0.3c-0.4-0.2-0.8-0.6-1-1.1c-0.2-0.4-0.3-0.9-0.2-1.4s0.3-0.9,0.6-1.3
	c0.3-0.4,0.8-0.6,1.3-0.7c0.5-0.1,1-0.1,1.5,0.1c0.5,0.2,0.9,0.5,1.1,0.9c0.3,0.4,0.4,0.9,0.4,1.4c0,0.3,0,0.6-0.1,0.9
	c-0.1,0.3-0.3,0.6-0.5,0.8c-0.2,0.2-0.5,0.4-0.8,0.5C60.4,27.7,60.1,27.8,59.8,27.8z M49.2,22.5v1.7h4.1c-0.1,0.8-0.4,1.6-1,2.2
	c-0.4,0.4-0.9,0.8-1.5,1c-0.6,0.2-1.1,0.3-1.7,0.3c-1.2,0-2.4-0.5-3.3-1.3c-0.9-0.9-1.3-2-1.3-3.3c0-1.2,0.5-2.4,1.3-3.3
	c0.9-0.9,2-1.3,3.3-1.3c1.2,0,2.3,0.4,3.1,1.2l1.2-1.2c-0.6-0.6-1.2-1-2-1.3c-0.7-0.3-1.5-0.4-2.3-0.4c-0.9,0-1.7,0.1-2.5,0.4
	c-0.8,0.3-1.5,0.8-2.1,1.4s-1.1,1.3-1.4,2.1c-0.3,0.8-0.5,1.6-0.5,2.5s0.2,1.7,0.5,2.5c0.3,0.8,0.8,1.5,1.4,2.1
	c0.6,0.6,1.3,1.1,2.1,1.4c0.8,0.3,1.6,0.4,2.5,0.4c0.8,0,1.6-0.1,2.4-0.4c0.8-0.3,1.4-0.8,2-1.4c1-1.1,1.5-2.6,1.5-4.1
	c0-0.4,0-0.7-0.1-1.1H49.2z M92.6,23.9c-0.2-0.7-0.7-1.4-1.3-1.8c-0.6-0.5-1.4-0.7-2.1-0.8c-0.5,0-1,0.1-1.5,0.3
	c-0.5,0.2-0.9,0.5-1.3,0.9c-0.4,0.4-0.6,0.8-0.8,1.3c-0.2,0.5-0.3,1-0.2,1.5c0,0.9,0.3,1.7,0.8,2.4c0.5,0.7,1.2,1.2,2.1,1.5
	c0.8,0.3,1.7,0.2,2.6-0.1c0.8-0.3,1.5-0.9,2-1.6l-1.4-1c-0.2,0.3-0.5,0.6-0.9,0.8c-0.4,0.2-0.7,0.3-1.2,0.3c-0.4,0-0.8-0.1-1.2-0.3
	c-0.4-0.2-0.6-0.5-0.8-0.9l5.5-2.3L92.6,23.9z M87,25.2c0-0.3,0-0.6,0.1-0.9c0.1-0.3,0.2-0.5,0.4-0.8c0.2-0.2,0.4-0.4,0.7-0.5
	s0.6-0.2,0.9-0.2c0.3,0,0.6,0.1,0.9,0.2c0.3,0.2,0.5,0.4,0.6,0.7L87,25.2z M82.6,29.2h1.8v-12h-1.8V29.2z M79.7,22.2L79.7,22.2
	c-0.3-0.3-0.7-0.5-1-0.7c-0.4-0.2-0.8-0.2-1.2-0.2c-1,0.1-2,0.5-2.8,1.3c-0.7,0.8-1.1,1.8-1.1,2.8c0,1,0.4,2.1,1.1,2.8
	c0.7,0.8,1.7,1.2,2.8,1.3c0.4,0,0.8-0.1,1.2-0.2c0.4-0.2,0.7-0.4,1-0.7h0.1V29c0,1.6-0.8,2.4-2.2,2.4c-0.4,0-0.9-0.2-1.2-0.4
	c-0.4-0.3-0.6-0.6-0.8-1l-1.6,0.6c0.3,0.7,0.8,1.3,1.4,1.8c0.6,0.4,1.4,0.7,2.2,0.6c2.1,0,3.8-1.2,3.8-4.2v-7.3h-1.7V22.2z
	 M77.6,27.8c-0.6,0-1.2-0.3-1.6-0.8c-0.4-0.5-0.7-1.1-0.7-1.7s0.2-1.2,0.7-1.7s1-0.7,1.6-0.8c0.3,0,0.6,0.1,0.9,0.2
	c0.3,0.1,0.5,0.3,0.7,0.5c0.2,0.2,0.4,0.5,0.5,0.8c0.1,0.3,0.1,0.6,0.1,0.9c0,0.3,0,0.6-0.1,0.9c-0.1,0.3-0.3,0.6-0.5,0.8
	c-0.2,0.2-0.5,0.4-0.7,0.6C78.2,27.7,77.9,27.8,77.6,27.8z M101,17.2h-4.3v12h1.8v-4.5h2.5c0.5,0,1,0,1.5-0.2
	c0.5-0.2,0.9-0.4,1.3-0.8c0.4-0.3,0.7-0.8,0.9-1.2c0.2-0.5,0.3-1,0.3-1.5s-0.1-1-0.3-1.5c-0.2-0.5-0.5-0.9-0.9-1.2
	c-0.4-0.3-0.8-0.6-1.3-0.8C102,17.2,101.5,17.2,101,17.2z M101,22.9h-2.5v-4.1h2.5c0.3,0,0.5,0.1,0.8,0.2c0.2,0.1,0.5,0.3,0.7,0.4
	c0.2,0.2,0.3,0.4,0.4,0.7c0.1,0.2,0.2,0.5,0.2,0.8c0,0.3-0.1,0.5-0.2,0.8c-0.1,0.2-0.3,0.5-0.4,0.7c-0.2,0.2-0.4,0.3-0.7,0.4
	C101.6,22.9,101.3,23,101,22.9L101,22.9z M112,21.2c-0.7,0-1.3,0.1-1.9,0.4c-0.6,0.3-1,0.8-1.3,1.4l1.6,0.7c0.2-0.3,0.4-0.5,0.7-0.7
	c0.3-0.2,0.6-0.2,0.9-0.2c0.2,0,0.5,0,0.7,0.1c0.2,0.1,0.4,0.2,0.6,0.3c0.2,0.1,0.3,0.3,0.4,0.5c0.1,0.2,0.2,0.4,0.2,0.7v0.1
	c-0.6-0.3-1.2-0.5-1.9-0.5c-1.7,0-3.4,1-3.4,2.7c0,0.4,0.1,0.7,0.3,1.1c0.2,0.3,0.4,0.6,0.7,0.9c0.3,0.2,0.6,0.4,1,0.6
	c0.4,0.1,0.7,0.2,1.1,0.1c0.4,0,0.9-0.1,1.3-0.3c0.4-0.2,0.7-0.5,1-0.9h0.1v1h1.7v-4.6C115.7,22.5,114.1,21.2,112,21.2L112,21.2z
	 M111.8,27.8c-0.6,0-1.4-0.3-1.4-1c0-1,1-1.3,1.9-1.3c0.6,0,1.1,0.1,1.6,0.4c-0.1,0.5-0.3,1-0.7,1.4
	C112.9,27.6,112.4,27.8,111.8,27.8L111.8,27.8z M122,21.5l-2.1,5.2h-0.1l-2.1-5.2h-1.9l3.2,7.3l-1.8,4h1.9l4.9-11.3H122z
	 M105.9,29.2h1.8v-12h-1.8V29.2z"/>
<g>
	<g>
		<defs>
			<path id="SVGID_1_" d="M13.5,7.7C13.1,8,13,8.5,13,9v21.2c0,0.5,0.1,1,0.5,1.3l0.1,0.1l11.9-11.9v-0.3L13.5,7.7L13.5,7.7z"/>
		</defs>
		<clipPath id="SVGID_2_">
			<use xlink:href="#SVGID_1_"  style="overflow:visible;"/>
		</clipPath>
		<polygon class="st2" points="25.4,9.8 23.1,7.6 25.4,7.6 		"/>
		<polygon class="st2" points="25.4,10 23,7.6 23.1,7.6 25.4,9.8 		"/>
		<polygon class="st3" points="25.4,10.1 22.8,7.6 23,7.6 25.4,10 		"/>
		<polygon class="st3" points="25.4,10.9 22.1,7.6 22.8,7.6 25.4,10.1 		"/>
		<polygon class="st4" points="25.4,11.6 21.4,7.6 22.1,7.6 25.4,10.9 		"/>
		<polygon class="st5" points="25.4,12.3 20.6,7.6 21.4,7.6 25.4,11.6 		"/>
		<polygon class="st6" points="25.4,13.1 19.9,7.6 20.6,7.6 25.4,12.3 		"/>
		<polygon class="st7" points="25.4,13.8 19.2,7.6 19.9,7.6 25.4,13.1 		"/>
		<polygon class="st8" points="25.4,14.5 18.4,7.6 19.2,7.6 25.4,13.8 		"/>
		<polygon class="st9" points="25.4,15.3 17.7,7.6 18.4,7.6 25.4,14.5 		"/>
		<polygon class="st10" points="25.4,16 17,7.6 17.7,7.6 25.4,15.3 		"/>
		<polygon class="st11" points="25.4,16.7 16.3,7.6 17,7.6 25.4,16 		"/>
		<polygon class="st12" points="25.4,17.5 15.5,7.6 16.3,7.6 25.4,16.7 		"/>
		<polygon class="st13" points="25.4,18.2 14.8,7.6 15.5,7.6 25.4,17.5 		"/>
		<polygon class="st13" points="25.4,19.2 13.8,7.6 14.8,7.6 25.4,18.2 		"/>
		<polygon class="st14" points="25.4,20.2 13,7.8 13,7.6 13.8,7.6 25.4,19.2 		"/>
		<polygon class="st15" points="25.4,21.2 13,8.8 13,7.8 25.4,20.2 		"/>
		<polygon class="st16" points="25.4,22.2 13,9.8 13,8.8 25.4,21.2 		"/>
		<polygon class="st17" points="25.4,22.6 25.1,22.9 13,10.8 13,9.8 25.4,22.2 		"/>
		<polygon class="st18" points="25.1,22.9 24.6,23.4 13,11.8 13,10.8 		"/>
		<polygon class="st19" points="24.6,23.4 24.1,23.9 13,12.8 13,11.8 		"/>
		<polygon class="st20" points="24.1,23.9 23.6,24.4 13,13.8 13,12.8 		"/>
		<polygon class="st20" points="23.6,24.4 22.8,25.2 13,15.4 13,13.8 		"/>
		<polygon class="st21" points="22.8,25.2 22,26 13,17 13,15.4 		"/>
		<polygon class="st22" points="22,26 21.1,26.8 13,18.6 13,17 		"/>
		<polygon class="st23" points="21.1,26.8 20.3,27.6 13,20.2 13,18.6 		"/>
		<polygon class="st24" points="20.3,27.6 19.5,28.4 13,21.8 13,20.2 		"/>
		<polygon class="st24" points="19.5,28.4 17.6,30.3 13,25.7 13,21.8 		"/>
		<polygon class="st25" points="17.6,30.3 16.3,31.6 15,31.6 13,29.6 13,25.7 		"/>
		<polygon class="st25" points="13,29.6 15,31.6 13,31.6 		"/>
	</g>
</g>
<g>
	<g>
		<defs>
			<path id="SVGID_3_" d="M29.3,23.7l-3.9-4v-0.3l3.9-4l0.1,0.1l4.7,2.7c1.3,0.8,1.3,2,0,2.8l-4.7,2.7L29.3,23.7z"/>
		</defs>
		<clipPath id="SVGID_4_">
			<use xlink:href="#SVGID_3_"  style="overflow:visible;"/>
		</clipPath>
		<rect x="35.2" y="15.5" class="st26" width="0.3" height="8.2"/>
		<rect x="34.5" y="15.5" class="st27" width="0.7" height="8.2"/>
		<rect x="33.8" y="15.5" class="st28" width="0.7" height="8.2"/>
		<rect x="33.1" y="15.5" class="st29" width="0.7" height="8.2"/>
		<rect x="32.5" y="15.5" class="st30" width="0.7" height="8.2"/>
		<rect x="31.8" y="15.5" class="st31" width="0.7" height="8.2"/>
		<rect x="31.1" y="15.5" class="st32" width="0.7" height="8.2"/>
		<rect x="30.4" y="15.5" class="st33" width="0.7" height="8.2"/>
		<rect x="29.8" y="15.5" class="st34" width="0.7" height="8.2"/>
		<rect x="29.1" y="15.5" class="st35" width="0.7" height="8.2"/>
		<rect x="28.4" y="15.5" class="st36" width="0.7" height="8.2"/>
		<rect x="27.7" y="15.5" class="st37" width="0.7" height="8.2"/>
		<rect x="27" y="15.5" class="st38" width="0.7" height="8.2"/>
		<rect x="26.4" y="15.5" class="st39" width="0.7" height="8.2"/>
		<rect x="25.4" y="15.5" class="st39" width="1" height="8.2"/>
		<rect x="25.4" y="15.5" class="st40" width="0" height="8.2"/>
	</g>
</g>
<g>
	<g>
		<defs>
			<path id="SVGID_5_" d="M29.4,23.6l-4-4L13.5,31.5c0.3,0.2,0.6,0.4,1,0.4c0.4,0,0.7-0.1,1-0.3L29.4,23.6z"/>
		</defs>
		<clipPath id="SVGID_6_">
			<use xlink:href="#SVGID_5_"  style="overflow:visible;"/>
		</clipPath>
		<polygon class="st41" points="29.4,24 25,19.6 29.4,19.6 		"/>
		<polygon class="st41" points="29.4,25.8 23.2,19.6 25,19.6 29.4,24 		"/>
		<polygon class="st42" points="29.4,26.5 28.9,27 22,20.2 22.6,19.6 23.2,19.6 29.4,25.8 		"/>
		<rect x="24.3" y="19.2" transform="matrix(0.7073 -0.707 0.707 0.7073 -9.699 24.6904)" class="st43" width="1.3" height="9.7"/>
		
			<rect x="23.4" y="20.1" transform="matrix(0.7073 -0.707 0.707 0.7073 -10.6069 24.3139)" class="st44" width="1.3" height="9.7"/>
		<rect x="22.5" y="21" transform="matrix(0.7073 -0.707 0.707 0.7073 -11.5149 23.9375)" class="st45" width="1.3" height="9.7"/>
		
			<rect x="21.6" y="21.9" transform="matrix(0.7073 -0.707 0.707 0.7073 -12.4228 23.5611)" class="st46" width="1.3" height="9.7"/>
		
			<rect x="20.7" y="22.8" transform="matrix(0.7073 -0.707 0.707 0.7073 -13.3307 23.1847)" class="st47" width="1.3" height="9.7"/>
		<polygon class="st48" points="24.3,31.6 24,31.9 22.8,31.9 16.5,25.6 17.4,24.7 		"/>
		<polygon class="st49" points="21,31.9 15.6,26.5 16.5,25.6 22.8,31.9 		"/>
		<polygon class="st50" points="19.2,31.9 14.7,27.4 15.6,26.5 21,31.9 		"/>
		<polygon class="st51" points="17.4,31.9 13.8,28.3 14.7,27.4 19.2,31.9 		"/>
		<polygon class="st52" points="15.6,31.9 13.5,29.8 13.5,28.7 13.8,28.3 17.4,31.9 		"/>
		<polygon class="st53" points="13.8,31.9 13.5,31.6 13.5,29.8 15.6,31.9 		"/>
		<polygon class="st54" points="13.5,31.6 13.8,31.9 13.5,31.9 		"/>
	</g>
</g>
<g>
	<g>
		<defs>
			<path id="SVGID_7_" d="M29.4,15.5l-14-8c-0.3-0.2-0.6-0.3-1-0.3c-0.4,0-0.7,0.1-1,0.4l11.9,11.9L29.4,15.5z"/>
		</defs>
		<clipPath id="SVGID_8_">
			<use xlink:href="#SVGID_7_"  style="overflow:visible;"/>
		</clipPath>
		<polygon class="st55" points="13.8,7.3 13.5,7.6 13.5,7.3 		"/>
		<polygon class="st56" points="14.5,7.3 13.5,8.3 13.5,7.6 13.8,7.3 		"/>
		<polygon class="st57" points="15.2,7.3 13.5,9 13.5,8.3 14.5,7.3 		"/>
		<polygon class="st58" points="15.9,7.3 13.5,9.7 13.5,9 15.2,7.3 		"/>
		<polygon class="st59" points="16.6,7.3 13.5,10.4 13.5,9.7 15.9,7.3 		"/>
		<polygon class="st60" points="17.3,7.3 13.8,10.8 13.5,10.5 13.5,10.4 16.6,7.3 		"/>
		<polygon class="st61" points="18,7.3 14.1,11.1 13.8,10.8 17.3,7.3 		"/>
		<polygon class="st62" points="18.7,7.3 14.5,11.5 14.1,11.1 18,7.3 		"/>
		<polygon class="st63" points="19.4,7.3 14.8,11.8 14.5,11.5 18.7,7.3 		"/>
		<polygon class="st63" points="20.3,7.3 15.3,12.3 14.8,11.8 19.4,7.3 		"/>
		<polygon class="st64" points="21.3,7.3 15.8,12.8 15.3,12.3 20.3,7.3 		"/>
		<polygon class="st65" points="22.3,7.3 16.3,13.3 15.8,12.8 21.3,7.3 		"/>
		<polygon class="st66" points="23.3,7.3 16.7,13.8 16.3,13.3 22.3,7.3 		"/>
		<polygon class="st66" points="24,7.3 29.4,12.7 29.4,19.6 22.6,19.6 16.7,13.8 23.3,7.3 		"/>
	</g>
</g>
<path class="st67" d="M29.3,23.5l-13.9,7.9c-0.3,0.2-0.6,0.3-1,0.3c-0.3,0-0.7-0.1-1-0.3l-0.1,0.1l0.1,0.1c0.3,0.2,0.6,0.3,1,0.3
	c0.3,0,0.7-0.1,1-0.3l14-8L29.3,23.5z"/>
<path class="st68" d="M13.5,31.4C13.1,31,13,30.5,13,30v0.1c0,0.5,0.1,1,0.5,1.3L13.5,31.4L13.5,31.4z"/>
<path class="st68" d="M34.1,20.8l-4.8,2.7l0.1,0.1l4.7-2.7c0.3-0.1,0.5-0.3,0.7-0.6c0.2-0.2,0.3-0.5,0.3-0.8
	c-0.1,0.3-0.2,0.5-0.4,0.7C34.6,20.5,34.4,20.7,34.1,20.8z"/>
<path class="st69" d="M15.4,7.7l18.7,10.6c0.3,0.1,0.5,0.3,0.7,0.5c0.2,0.2,0.3,0.5,0.4,0.7c0-0.3-0.1-0.6-0.3-0.8
	c-0.2-0.2-0.4-0.4-0.7-0.6L15.4,7.6C14.1,6.8,13,7.5,13,9v0.1C13,7.6,14.1,7,15.4,7.7z"/>
<path class="st70" d="M5,0.5h127c1.9,0,3.5,1.6,3.5,3.5v32c0,1.9-1.6,3.5-3.5,3.5H5c-1.9,0-3.5-1.6-3.5-3.5V4C1.5,2.1,3.1,0.5,5,0.5
	z"/>
</svg>
