<svg width="100" height="40" viewBox="0 0 100 40" fill="none" xmlns="http://www.w3.org/2000/svg">
<path d="M100 0H0V40H100V0Z" fill="#1D1F23"/>
<path d="M63.136 22.1076C63.1517 21.952 63.1609 21.7947 63.1609 21.6356C63.1609 19.2255 61.3174 17.2729 59.0429 17.2729C56.7691 17.2729 54.9258 19.2255 54.9258 21.6356C54.9258 24.0448 56.7691 25.9967 59.0429 25.9967C60.7727 25.9967 62.2513 24.8691 62.8625 23.2671L61.0876 22.9302C60.6944 23.7097 59.9505 24.2347 59.1001 24.2347C57.9713 24.2347 57.0365 23.315 56.8485 22.1076H63.136V22.1076ZM59.1001 19.0835C60.064 19.0835 60.8872 19.756 61.2233 20.7078H56.9744C57.3095 19.756 58.1346 19.0835 59.1001 19.0835Z" fill="#F2F2F2"/>
<path d="M53.8197 17.4556H51.7168V25.8399H53.8197V17.4556Z" fill="#F2F2F2"/>
<path d="M52.769 14.0371C52.1198 14.0371 51.5957 14.608 51.5957 15.3083C51.5957 16.0075 52.1198 16.5769 52.769 16.5769C53.4155 16.5769 53.9407 16.0075 53.9407 15.3083C53.9407 14.608 53.4155 14.0371 52.769 14.0371Z" fill="#F2F2F2"/>
<path d="M38.8451 14.7676V19.2811H34.3123V14.7676H32.0137V25.8326H34.3123V21.3189H38.8451V25.8326H41.1457V14.7676H38.8451Z" fill="#F2F2F2"/>
<path d="M48.3355 17.4596V17.9095C47.7243 17.5083 47.008 17.2778 46.2405 17.2778C44.0112 17.2778 42.2031 19.2292 42.2031 21.6373C42.2031 24.0449 44.0112 25.9968 46.2405 25.9968C46.9881 25.9968 47.6865 25.7768 48.2869 25.3958V25.8326H50.3388V17.4596H48.3355ZM46.3431 24.1587C45.042 24.1587 43.9903 23.0309 43.9903 21.6383C43.9903 20.2445 45.042 19.1158 46.3431 19.1158C47.6438 19.1158 48.6973 20.2445 48.6973 21.6383C48.6973 23.0309 47.6438 24.1587 46.3431 24.1587Z" fill="#F2F2F2"/>
<path d="M67.5095 16.6772C65.573 17.0432 64.1007 18.8684 64.0781 21.0697V25.8402H66.0916L66.0927 20.98C66.0927 19.8674 66.8637 18.9492 67.8574 18.8174L67.5095 16.6772Z" fill="#F2F2F2"/>
</svg>
