<svg width="100" height="40" viewBox="0 0 100 40" fill="none" xmlns="http://www.w3.org/2000/svg">
<rect width="100" height="40" rx="2" fill="#1D1F23"/>
<path fill-rule="evenodd" clip-rule="evenodd" d="M27.5868 16.0025C28.2312 16.0025 28.8487 15.9953 29.466 16.0053C29.7859 16.0105 29.9624 16.2313 29.9382 16.567C29.8841 17.3003 29.8265 18.0466 29.7695 18.7903H33.1402C33.2089 17.8743 33.2779 16.9405 33.3477 16.0108H35.7246L35.1563 23.8527C35.1513 23.9407 35.1466 24.0009 35.0352 24C34.287 23.9957 33.539 23.9974 32.7611 23.9974C32.8465 22.8211 32.9314 21.6529 33.017 20.4737H29.6474C29.5618 21.6391 29.4759 22.8042 29.3892 23.9834H27L27.5868 16.0025Z" fill="white"/>
<path fill-rule="evenodd" clip-rule="evenodd" d="M53.4551 23.7039C53.5683 21.9137 53.6807 20.1325 53.7941 18.3403C55.0454 18.1957 55.8899 18.1008 56.9166 18.0858C58.3656 18.0645 60.2101 17.9149 60.2096 19.7617L59.9718 23.7017H57.7935L58.0183 19.923C58.0427 19.265 57.3655 19.2609 56.8805 19.2817C56.5615 19.2956 56.2438 19.3322 55.9105 19.3607C55.8218 20.8154 55.7333 22.2554 55.6443 23.7039H53.4551Z" fill="white"/>
<path fill-rule="evenodd" clip-rule="evenodd" d="M48.0766 21.5124C48.0889 22.2493 48.8543 22.5837 49.4495 22.695C50.4297 22.878 51.6088 22.6457 52.617 22.505L52.4366 23.6909C51.1557 24.0704 48.5315 24.2055 47.1426 23.4784C45.9097 22.8332 45.5744 21.3849 46.0857 20.1462C46.6499 18.7792 48.084 18.1261 49.459 18.0774C50.4955 18.0404 51.5598 18.3291 52.2051 19.0141C52.7457 19.5884 53.0187 20.4422 52.8336 21.5124C51.3487 21.5124 49.5615 21.5124 48.0766 21.5124ZM50.9363 20.4006C50.9378 19.5925 50.3334 19.206 49.6362 19.2209C48.9904 19.2349 48.2845 19.6068 48.1827 20.4006H50.9363Z" fill="white"/>
<path fill-rule="evenodd" clip-rule="evenodd" d="M69.1859 21.5124C69.1982 22.2493 69.9638 22.5837 70.5588 22.695C71.5389 22.878 72.7181 22.6457 73.7263 22.505L73.5459 23.6909C72.265 24.0704 69.6408 24.2055 68.2519 23.4784C67.0192 22.8332 66.6836 21.3849 67.1952 20.1462C67.7594 18.7792 69.1932 18.1261 70.5682 18.0774C71.6045 18.0404 72.669 18.3291 73.3143 19.0141C73.855 19.5884 74.1282 20.4422 73.9428 21.5124C72.458 21.5124 70.6707 21.5124 69.1859 21.5124ZM72.0455 20.4006C72.0471 19.5925 71.4427 19.206 70.7455 19.2209C70.0996 19.2349 69.3937 19.6068 69.292 20.4006H72.0455Z" fill="white"/>
<path fill-rule="evenodd" clip-rule="evenodd" d="M45.406 19.5864C44.5309 19.4297 42.852 19.1366 42.0552 19.3904C41.5742 19.5971 42.2663 19.9168 42.4239 19.9946C43.1048 20.3307 43.9959 20.6546 44.6521 21.0664C45.8758 21.663 46.0993 23.4449 43.9707 23.8757C42.7971 24.1218 40.6589 23.9541 39.3828 23.7909L39.4779 22.4941C41.0822 22.7615 41.5747 22.7482 42.7511 22.7476C42.9413 22.7476 43.2355 22.4814 42.9782 22.3287C42.0212 21.8147 40.5122 21.4152 39.8333 20.6608C39.3045 20.0738 39.392 19.187 40.0151 18.7134C41.2813 17.7508 44.257 18.0857 45.5196 18.3709L45.406 19.5864Z" fill="white"/>
<path fill-rule="evenodd" clip-rule="evenodd" d="M66.5133 19.5864C65.6384 19.4297 63.9594 19.1366 63.1629 19.3904C62.6816 19.5971 63.3739 19.9168 63.5313 19.9946C64.2121 20.3307 65.1033 20.6546 65.7595 21.0664C66.9834 21.663 67.2066 23.4449 65.0781 23.8757C63.9045 24.1218 61.7663 23.9541 60.4902 23.7909L60.5853 22.4941C62.1896 22.7615 62.6821 22.7482 63.8585 22.7476C64.0487 22.7476 64.3428 22.4814 64.0858 22.3287C63.1285 21.8147 61.6196 21.4152 60.9408 20.6608C60.4119 20.0738 60.4994 19.187 61.1225 18.7134C62.3887 17.7508 65.3644 18.0857 66.627 18.3709L66.5133 19.5864Z" fill="white"/>
<path fill-rule="evenodd" clip-rule="evenodd" d="M36.4357 18.0742H38.8203C38.6769 19.9554 38.5338 21.828 38.3907 23.7039H36.0059C36.1495 21.8213 36.2923 19.9485 36.4357 18.0742Z" fill="white"/>
<path fill-rule="evenodd" clip-rule="evenodd" d="M36.5684 17.4815C36.6079 16.9794 36.6455 16.4985 36.6843 16.0066L38.5998 16C39.306 16.0006 39.0796 16.506 39.0163 17.4815H36.5684Z" fill="white"/>
</svg>
