<svg width="136" height="40" viewBox="0 0 136 40" fill="none" xmlns="http://www.w3.org/2000/svg">
<rect x="0.5" y="0.5" width="135" height="39" rx="3.5" fill="black" stroke="#22252C"/>
<path d="M49.4355 27.0221H44.8116L43.6831 30.1098H41.6455L46.1753 18.5581H48.1032L52.7427 30.1098H50.611L49.4355 27.0221ZM45.3916 25.4547H48.8399L47.6016 22.1474C47.4292 21.6929 47.2568 21.1913 47.1001 20.6271C46.9433 21.113 46.7866 21.6145 46.6142 22.1318L45.3916 25.4547Z" fill="white"/>
<path d="M53.6516 23.6208C53.6516 22.9782 53.6359 22.2885 53.5889 21.5205H55.4384C55.5011 21.881 55.5481 22.2415 55.5795 22.6177C56.3475 21.787 57.2252 21.3638 58.2127 21.3638C58.7926 21.3638 59.3255 21.5048 59.8114 21.8026C60.2973 22.0848 60.6892 22.555 61.0027 23.1819C61.3005 23.8089 61.4572 24.6083 61.4572 25.5644C61.4572 26.5675 61.2848 27.4296 60.94 28.1349C60.5951 28.8403 60.1249 29.3888 59.498 29.7493C58.8867 30.1099 58.1657 30.2979 57.3663 30.2979C56.7864 30.2979 56.2064 30.2039 55.6422 30.0001V33.5425L53.6672 33.7149V23.6208H53.6516ZM58.824 28.0252C59.2315 27.4923 59.4196 26.6929 59.4196 25.6584C59.4196 24.7023 59.2472 23.997 58.918 23.5581C58.5889 23.1193 58.15 22.9155 57.5857 22.9155C57.2096 22.9155 56.8491 23.0095 56.5199 23.1819C56.1908 23.37 55.8929 23.6051 55.5951 23.903V28.5111C55.7989 28.6051 56.0183 28.6835 56.2848 28.7462C56.5513 28.8089 56.802 28.8246 57.0528 28.8246C57.8365 28.8246 58.4321 28.5581 58.824 28.0252Z" fill="white"/>
<path d="M62.6955 23.6208C62.6955 22.9782 62.6798 22.2885 62.6328 21.5205H64.4823C64.545 21.881 64.5921 22.2415 64.6234 22.6177C65.3914 21.787 66.2692 21.3638 67.2566 21.3638C67.8366 21.3638 68.3695 21.5048 68.8554 21.8026C69.3413 22.0848 69.7331 22.555 70.0466 23.1819C70.3444 23.8089 70.5011 24.6083 70.5011 25.5644C70.5011 26.5675 70.3287 27.4296 69.9839 28.1349C69.6391 28.8403 69.1689 29.3888 68.5419 29.7493C67.9306 30.1099 67.2096 30.2979 66.4102 30.2979C65.8303 30.2979 65.2504 30.2039 64.6861 30.0001V33.5425L62.7112 33.7149V23.6208H62.6955ZM67.8836 28.0252C68.2911 27.4923 68.4792 26.6929 68.4792 25.6584C68.4792 24.7023 68.3068 23.997 67.9776 23.5581C67.6485 23.1193 67.2096 22.9155 66.6454 22.9155C66.2692 22.9155 65.9087 23.0095 65.5795 23.1819C65.2504 23.37 64.9526 23.6051 64.6548 23.903V28.5111C64.8585 28.6051 65.078 28.6835 65.3444 28.7462C65.6109 28.8089 65.8616 28.8246 66.1124 28.8246C66.8961 28.8246 67.4761 28.5581 67.8836 28.0252Z" fill="white"/>
<path d="M74.2002 29.5769C73.3538 29.1066 72.6955 28.4327 72.2409 27.5549C71.7864 26.6772 71.5513 25.6427 71.5513 24.4515C71.5513 23.1505 71.8177 22.0534 72.335 21.1443C72.8679 20.2352 73.5732 19.5612 74.4823 19.1066C75.3914 18.6521 76.4102 18.417 77.5387 18.417C78.197 18.417 78.8397 18.4954 79.4353 18.6364C80.0466 18.7775 80.5952 18.9813 81.1281 19.232L80.6265 20.7524C79.5764 20.2508 78.5732 20.0001 77.6328 20.0001C76.8334 20.0001 76.1281 20.1725 75.5168 20.5173C74.9055 20.8621 74.451 21.3637 74.1061 22.022C73.777 22.6803 73.6046 23.4954 73.6046 24.4358C73.6046 25.2665 73.73 25.9875 73.9964 26.6302C74.2629 27.2728 74.6547 27.7744 75.219 28.1505C75.7676 28.5267 76.4729 28.7148 77.3193 28.7148C77.6955 28.7148 78.0873 28.6835 78.4635 28.6208C78.8397 28.5581 79.2002 28.464 79.545 28.3386V26.0032H76.8804V24.4515H81.4729V29.3104C80.8146 29.6239 80.1249 29.859 79.3883 30.0157C78.6673 30.1882 77.9463 30.2665 77.2253 30.2665C76.0654 30.2822 75.0622 30.0471 74.2002 29.5769Z" fill="white"/>
<path d="M88.5577 30.1254C88.495 29.7962 88.448 29.4044 88.4166 28.9812C88.1188 29.3417 87.7113 29.6552 87.2254 29.9059C86.7395 30.1567 86.1909 30.2821 85.5797 30.2821C85.0781 30.2821 84.6392 30.1881 84.2317 29.9843C83.8242 29.7962 83.495 29.4984 83.2599 29.1066C83.0248 28.7147 82.8994 28.2445 82.8994 27.6802C82.8994 26.8495 83.1972 26.1755 83.8085 25.6896C84.4041 25.1881 85.4073 24.9373 86.8179 24.9373C87.3508 24.9373 87.8681 24.9686 88.3853 25.047V24.8746C88.3853 24.1066 88.2286 23.5737 87.8994 23.2602C87.5703 22.9467 87.1157 22.79 86.5044 22.79C86.0812 22.79 85.6424 22.8527 85.1565 22.978C84.6706 23.1034 84.263 23.2445 83.9025 23.4169L83.5891 21.9749C83.9339 21.8182 84.4041 21.6614 84.9841 21.536C85.564 21.4106 86.1596 21.3323 86.8022 21.3323C87.5389 21.3323 88.1815 21.442 88.6988 21.6771C89.216 21.8965 89.6236 22.2884 89.9214 22.837C90.2192 23.3856 90.3602 24.1222 90.3602 25.0627V28.4796C90.3602 28.8401 90.3759 29.373 90.4229 30.094H88.5577V30.1254ZM87.3822 28.5266C87.7897 28.3229 88.1345 28.0878 88.3853 27.79V26.1912C87.8524 26.1285 87.4135 26.0972 87.0687 26.0972C86.2536 26.0972 85.6894 26.2226 85.3759 26.489C85.0624 26.7555 84.9057 27.1003 84.9057 27.5548C84.9057 27.978 85.0154 28.2915 85.2505 28.4953C85.4699 28.699 85.7834 28.8088 86.1753 28.8088C86.5671 28.8244 86.9746 28.7147 87.3822 28.5266Z" fill="white"/>
<path d="M92.0688 28.0564V17.884L94.0281 17.7273V27.7116C94.0281 28.0721 94.0908 28.3386 94.2162 28.4953C94.3416 28.6521 94.5453 28.7304 94.8118 28.7304C94.9372 28.7304 95.1096 28.6991 95.329 28.6364L95.5641 30.047C95.3761 30.1254 95.1566 30.1881 94.8745 30.2195C94.608 30.2665 94.3572 30.2822 94.1065 30.2822C92.7585 30.2822 92.0688 29.5455 92.0688 28.0564Z" fill="white"/>
<path d="M96.9746 28.0564V17.884L98.9339 17.7273V27.7116C98.9339 28.0721 98.9966 28.3386 99.1219 28.4953C99.2473 28.6521 99.4511 28.7304 99.7176 28.7304C99.8429 28.7304 100.015 28.6991 100.235 28.6364L100.47 30.047C100.282 30.1254 100.062 30.1881 99.7802 30.2195C99.5138 30.2665 99.263 30.2822 99.0122 30.2822C97.6643 30.2822 96.9746 29.5455 96.9746 28.0564Z" fill="white"/>
<path d="M108.636 26.066H103.009C103.103 27.8685 103.965 28.7619 105.58 28.7619C105.987 28.7619 106.395 28.7149 106.818 28.6209C107.241 28.5268 107.649 28.3858 108.04 28.229L108.464 29.577C107.508 30.0472 106.426 30.2823 105.219 30.2823C104.31 30.2823 103.526 30.1099 102.899 29.7651C102.272 29.4202 101.802 28.9187 101.489 28.276C101.175 27.6334 101.019 26.8497 101.019 25.9249C101.019 24.9688 101.191 24.1538 101.52 23.4641C101.849 22.7745 102.319 22.2572 102.915 21.8967C103.511 21.5362 104.2 21.3481 104.984 21.3481C105.799 21.3481 106.473 21.5362 107.022 21.9124C107.57 22.2886 107.978 22.8058 108.229 23.4328C108.495 24.0597 108.62 24.7651 108.62 25.5331V26.066H108.636ZM106.708 24.8121C106.677 24.1224 106.504 23.6052 106.191 23.276C105.877 22.9312 105.47 22.7588 104.953 22.7588C104.451 22.7588 104.044 22.9312 103.699 23.276C103.37 23.6209 103.15 24.1381 103.056 24.8121H106.708Z" fill="white"/>
<path d="M110.219 23.6835C110.219 23.2133 110.203 22.4923 110.156 21.5205H112.006C112.037 21.7556 112.068 22.0534 112.1 22.3826C112.131 22.7117 112.147 22.9782 112.163 23.1976C112.398 22.8214 112.617 22.508 112.837 22.2415C113.056 21.9751 113.322 21.7713 113.605 21.6146C113.902 21.4578 114.231 21.3638 114.608 21.3638C114.905 21.3638 115.172 21.3951 115.391 21.4578L115.141 23.1663C114.952 23.1036 114.733 23.0722 114.498 23.0722C114.028 23.0722 113.636 23.1976 113.291 23.4327C112.946 23.6678 112.57 24.0597 112.178 24.6083V30.1412H110.219V23.6835Z" fill="white"/>
<path d="M116.567 33.6365C116.285 33.5895 116.05 33.5268 115.862 33.4641L116.222 32.0221C116.348 32.0535 116.52 32.1005 116.724 32.1318C116.928 32.1632 117.116 32.1789 117.304 32.1789C118.182 32.1789 118.824 31.6146 119.263 30.5017L119.388 30.1883L116.222 21.5049H118.338L119.937 26.3481C120.204 27.1789 120.36 27.8058 120.439 28.2604C120.595 27.6334 120.768 27.0221 120.972 26.3952L122.586 21.5049H124.577L121.41 30.2196C121.113 31.0503 120.783 31.7086 120.439 32.2102C120.094 32.7118 119.686 33.088 119.216 33.3387C118.746 33.5895 118.182 33.6992 117.508 33.6992C117.163 33.7149 116.865 33.6992 116.567 33.6365Z" fill="white"/>
<path fill-rule="evenodd" clip-rule="evenodd" d="M27.022 7.27271H15.8935C10.6584 7.27271 8.73047 9.18493 8.73047 14.4357V25.5642C8.73047 30.7994 10.6427 32.7273 15.8935 32.7273H27.022C32.2571 32.7273 34.185 30.815 34.185 25.5642V14.4357C34.1693 9.18493 32.2571 7.27271 27.022 7.27271Z" fill="#C8102E"/>
<path d="M13.7774 20H14.4513V23.3229H13.7774V21.975H12.257V23.3229H11.583V20H12.257V21.348H13.7774V20ZM17.5705 21.8966C17.5705 22.4295 17.304 22.7273 16.8181 22.7273C16.3322 22.7273 16.0501 22.4295 16.0501 21.8809V20H15.3761V21.8966C15.3761 22.837 15.8934 23.37 16.8024 23.37C17.7115 23.37 18.2445 22.8214 18.2445 21.8653V19.9844H17.5705V21.8966ZM25.3761 22.2884L24.6238 20H24.0752L23.3228 22.2884L22.5861 20H21.8651L23.025 23.3229H23.5893L24.3416 21.1442L25.094 23.3229H25.6582L26.8181 20H26.1128L25.3761 22.2884ZM28.0093 21.8966H29.2319V21.2853H28.0093V20.6113H29.7962V20H27.351V23.3229H29.8589V22.7116H28.0093V21.8966ZM30.6739 23.3229H31.3322V20H30.6739V23.3229ZM19.5767 22.6333L19.2789 23.3229H18.5893L20.047 20H20.6426L22.1002 23.3229H21.3949L21.0971 22.6333H19.5767ZM19.8275 22.022H20.8463L20.3291 20.8308L19.8275 22.022Z" fill="white"/>
<path d="M21.4576 15.7679C19.1221 15.7679 17.2256 13.8713 17.2256 11.5359H17.8212C17.8212 13.5422 19.4513 15.1723 21.4576 15.1723C23.4638 15.1723 25.0939 13.5422 25.0939 11.5359H25.6895C25.6895 13.8556 23.793 15.7679 21.4576 15.7679Z" fill="white"/>
<path d="M42.7277 14.1693C42.3045 13.9342 41.991 13.5894 41.7715 13.1662C41.5521 12.743 41.4424 12.2257 41.4424 11.6615C41.4424 11.0658 41.5521 10.5329 41.7872 10.0784C42.0223 9.62384 42.3671 9.27901 42.806 9.02823C43.2449 8.77744 43.7621 8.66772 44.3734 8.66772C44.9534 8.66772 45.4392 8.79312 45.8624 9.02823C46.27 9.26334 46.5991 9.59249 46.8186 10.0314C47.038 10.4546 47.1477 10.9561 47.1477 11.5204C47.1477 12.1317 47.0223 12.6646 46.7872 13.1191C46.5521 13.5737 46.2073 13.9185 45.7684 14.1693C45.3295 14.4201 44.8123 14.5298 44.2167 14.5298C43.6367 14.5298 43.1508 14.4201 42.7277 14.1693ZM45.2825 13.4796C45.5646 13.2915 45.7684 13.0408 45.8938 12.7116C46.0349 12.3825 46.0976 12.022 46.0976 11.5988C46.0976 11.1912 46.0349 10.8307 45.9095 10.5016C45.7841 10.1724 45.596 9.92164 45.3295 9.73356C45.0631 9.54547 44.7182 9.45142 44.3107 9.45142C43.9189 9.45142 43.574 9.54547 43.2919 9.73356C43.0098 9.92164 42.806 10.1881 42.665 10.5016C42.5239 10.8307 42.4612 11.1756 42.4612 11.5674C42.4612 11.9749 42.5239 12.3511 42.665 12.6803C42.7903 13.0094 42.9941 13.2602 43.2606 13.4483C43.527 13.6364 43.8719 13.7304 44.2637 13.7304C44.6712 13.7461 45.0004 13.6677 45.2825 13.4796Z" fill="white"/>
<path d="M49.1383 9.57677H47.3672L47.4612 8.76172H51.8813L51.7872 9.57677H50.1101V14.4514H49.1227V9.57677H49.1383Z" fill="white"/>
<path d="M57.179 14.4514H56.0661L54.3734 11.9435H53.6994V14.4514H52.7119V8.76172H53.6994V11.1128H54.2166L55.3922 9.40435C55.5646 9.15357 55.737 8.96548 55.9094 8.85576C56.0818 8.74605 56.3013 8.68335 56.5677 8.68335C56.7872 8.68335 56.9909 8.7147 57.1633 8.79307L56.9596 9.56109C56.8498 9.51407 56.7558 9.4984 56.6461 9.4984C56.5364 9.4984 56.4266 9.52974 56.3483 9.59244C56.2699 9.65514 56.1759 9.74918 56.0975 9.87457L55.0473 11.3636L57.179 14.4514Z" fill="white"/>
<path d="M57.9312 8.76172H59.4672C60.1882 8.76172 60.7368 8.90278 61.1286 9.20059C61.5205 9.4984 61.7086 9.92159 61.7086 10.4702C61.7086 10.8464 61.6302 11.1755 61.4578 11.4576C61.2854 11.7398 61.0503 11.9592 60.7368 12.1003C60.4233 12.257 60.0785 12.3197 59.671 12.3197C59.4515 12.3197 59.2007 12.2884 58.9186 12.2413V14.4357H57.9312V8.76172ZM60.4076 11.3009C60.6114 11.1128 60.7211 10.8464 60.7211 10.5015C60.7211 10.1567 60.6114 9.89025 60.4076 9.74918C60.1882 9.59244 59.8747 9.51407 59.4672 9.51407H58.9343V11.536C59.1851 11.583 59.3732 11.5987 59.4986 11.5987C59.8904 11.583 60.1882 11.489 60.4076 11.3009Z" fill="white"/>
<path d="M63.5895 14.1693C63.1663 13.9342 62.8528 13.5894 62.6334 13.1662C62.4139 12.743 62.3042 12.2257 62.3042 11.6615C62.3042 11.0658 62.4139 10.5329 62.649 10.0784C62.8841 9.62384 63.229 9.27901 63.6678 9.02823C64.1067 8.77744 64.624 8.66772 65.2352 8.66772C65.8152 8.66772 66.3011 8.79312 66.7243 9.02823C67.1318 9.26334 67.4609 9.59249 67.6804 10.0314C67.8998 10.4546 68.0095 10.9561 68.0095 11.5204C68.0095 12.1317 67.8841 12.6646 67.649 13.1191C67.4139 13.5737 67.0691 13.9185 66.6302 14.1693C66.1913 14.4201 65.6741 14.5298 65.0785 14.5298C64.5142 14.5298 64.0127 14.4201 63.5895 14.1693ZM66.1443 13.4796C66.4265 13.2915 66.6302 13.0408 66.7556 12.7116C66.8967 12.3825 66.9594 12.022 66.9594 11.5988C66.9594 11.1912 66.8967 10.8307 66.7713 10.5016C66.6459 10.1881 66.4578 9.92164 66.1913 9.73356C65.9249 9.54547 65.5801 9.45142 65.1725 9.45142C64.7807 9.45142 64.4359 9.54547 64.1537 9.73356C63.8716 9.92164 63.6678 10.1881 63.5268 10.5016C63.3857 10.8307 63.323 11.1756 63.323 11.5674C63.323 11.9749 63.3857 12.3511 63.5268 12.6803C63.6522 13.0094 63.8559 13.2602 64.1224 13.4483C64.3888 13.6364 64.7337 13.7304 65.1255 13.7304C65.533 13.7461 65.8779 13.6677 66.1443 13.4796Z" fill="white"/>
<path d="M73.0093 14.4514V11.3166C73.0093 10.9247 73.025 10.4702 73.0563 9.96863L70.188 14.4514H69.0908V8.76173H69.9999V12.0219C69.9999 12.3824 69.9842 12.7586 69.9686 13.1818L72.7899 8.76173H73.9184V14.4671H73.0093V14.4514ZM70.7836 8.26017C70.5799 8.15045 70.4231 8.00938 70.3134 7.83697C70.2037 7.66455 70.141 7.47647 70.1096 7.27271H70.815C70.8933 7.6959 71.1441 7.89966 71.5516 7.89966C71.9748 7.89966 72.2099 7.6959 72.2883 7.27271H72.9936C72.9623 7.47647 72.8996 7.66455 72.7899 7.83697C72.6802 8.00938 72.5234 8.15045 72.3197 8.26017C72.1159 8.36988 71.8494 8.43258 71.5516 8.43258C71.2538 8.41691 71.003 8.36988 70.7836 8.26017Z" fill="white"/>
<path d="M76.5206 9.57677H74.7651L74.8592 8.76172H79.2949L79.2009 9.57677H77.5238V14.4514H76.5363V9.57677H76.5206Z" fill="white"/>
<path d="M80.1099 8.76172H83.4641L83.3857 9.56109H81.113V11.1285H83.2603V11.8808H81.113V13.6363H83.5111L83.4327 14.4514H80.1255V8.76172H80.1099Z" fill="white"/>
<path d="M90.3607 11.6301C90.5644 11.7554 90.7212 11.9122 90.8466 12.116C90.972 12.3197 91.019 12.5548 91.019 12.837C91.019 13.1504 90.9406 13.4326 90.7839 13.6833C90.6271 13.9185 90.392 14.1222 90.0942 14.2476C89.7807 14.3887 89.4202 14.4514 88.997 14.4514H87.1318V8.76172H88.9187C89.5299 8.76172 89.9688 8.87144 90.2823 9.10655C90.5801 9.34166 90.7369 9.65513 90.7369 10.0627C90.7369 10.4075 90.6428 10.6896 90.4547 10.9091C90.2666 11.1285 90.0158 11.3009 89.7024 11.3949C89.9218 11.4263 90.1569 11.5203 90.3607 11.6301ZM88.0879 11.0815H88.6992C88.903 11.0815 89.0911 11.0344 89.2478 10.9561C89.4046 10.8777 89.53 10.768 89.6083 10.6269C89.6867 10.4859 89.7337 10.3448 89.7337 10.1724C89.7337 9.93727 89.6553 9.76485 89.4829 9.65514C89.3105 9.54542 89.0754 9.48272 88.7463 9.48272H88.0879V11.0815ZM89.7337 13.4796C89.9375 13.3228 90.0315 13.0877 90.0315 12.7899C90.0315 12.4765 89.9218 12.2257 89.7024 12.0689C89.4829 11.9122 89.1538 11.8181 88.7463 11.8181H88.0879V13.7304H88.8246C89.2321 13.7304 89.53 13.6363 89.7337 13.4796Z" fill="white"/>
</svg>
