<svg width="100" height="40" viewBox="0 0 100 40" fill="none" xmlns="http://www.w3.org/2000/svg">
<path d="M100 0H0V40H100V0Z" fill="#1D1F23"/>
<g clip-path="url(#clip0_22469_947492)">
<path d="M36.1954 25.875C36.1872 25.8935 36.1811 25.9096 36.1749 25.9212C35.9907 26.2708 35.7798 26.5972 35.5279 26.8889C35.2679 27.1851 34.9772 27.4282 34.6313 27.5833C34.3896 27.6897 34.1419 27.743 33.8819 27.7314C33.712 27.7245 33.5523 27.6759 33.3967 27.6041C33.1367 27.486 32.889 27.3379 32.6453 27.1828C32.0271 26.7824 31.4353 26.3333 30.8519 25.8704C30.8232 25.8472 30.7925 25.824 30.7638 25.7986C30.7332 25.7731 30.7208 25.7407 30.7291 25.7083C30.7372 25.6782 30.7659 25.6597 30.8048 25.6597C30.8437 25.6597 30.8826 25.662 30.9235 25.6643C31.1139 25.6713 31.3023 25.6782 31.4927 25.6874C31.7752 25.699 32.0577 25.7106 32.3423 25.7199C32.6248 25.7315 32.9074 25.743 33.192 25.7523C33.4745 25.7638 33.757 25.7754 34.0416 25.7847C34.3262 25.7962 34.6108 25.8078 34.8953 25.8171C35.1779 25.8287 35.4604 25.8403 35.745 25.8495C35.8883 25.8541 36.0296 25.861 36.1708 25.868C36.1749 25.8726 36.1831 25.8726 36.1954 25.875Z" fill="#F2F2F2"/>
<path d="M21.7988 25.8704C21.8685 25.868 21.9319 25.8634 21.9954 25.861C22.2492 25.8518 22.5031 25.8403 22.7549 25.831C22.9044 25.8263 23.0518 25.8218 23.2013 25.8148L23.879 25.787C24.0325 25.7804 24.186 25.775 24.3396 25.7708L25.0111 25.743C25.1545 25.7384 25.2998 25.7338 25.4431 25.7268C25.701 25.7175 25.959 25.7059 26.219 25.6944C26.4462 25.6852 26.6735 25.6782 26.9008 25.6689C26.9827 25.6666 27.0646 25.662 27.1464 25.6597H27.2099C27.2365 25.662 27.257 25.6759 27.2652 25.7059C27.2734 25.7338 27.2652 25.7569 27.2467 25.7777L27.2161 25.8055C26.5937 26.3032 25.9631 26.7846 25.2998 27.2083C25.0828 27.3472 24.8617 27.4768 24.6323 27.5833C24.3928 27.6967 24.143 27.7407 23.883 27.7198C23.6475 27.699 23.4244 27.6226 23.2115 27.5046C22.9494 27.3587 22.7181 27.162 22.5092 26.9328C22.2349 26.6319 22.0077 26.2893 21.8152 25.9166C21.812 25.9003 21.8065 25.8847 21.7988 25.8704Z" fill="#F2F2F2"/>
<path d="M29.2542 19.6367C29.2542 19.4214 29.2501 19.2062 29.2542 18.9932C29.2644 18.5881 29.2747 18.183 29.2911 17.7779C29.3013 17.5233 29.3197 17.2687 29.3402 17.0141C29.3709 16.6112 29.4118 16.2085 29.4671 15.808C29.549 15.2108 29.6555 14.6182 29.8111 14.0372C29.8971 13.7224 29.9953 13.4122 30.1263 13.1159C30.1673 13.0233 30.2164 12.9354 30.2594 12.8451C30.2779 12.808 30.3004 12.8011 30.3352 12.808C30.5542 12.8567 30.7733 12.9006 30.9904 12.9493C31.1705 12.9909 31.3466 13.0465 31.5165 13.1275C31.9731 13.3428 32.3375 13.6877 32.6138 14.1506C32.7879 14.4423 32.9148 14.7617 32.9824 15.1067C33.0151 15.271 33.0274 15.44 33.0295 15.609C33.0397 16.1575 32.9558 16.6923 32.8166 17.2154C32.6814 17.7247 32.5013 18.2154 32.3068 18.6992C32.0406 19.3566 31.7397 19.9955 31.4244 20.6251C30.8614 21.7432 30.2513 22.8289 29.6063 23.889C29.5961 23.9052 29.5859 23.9237 29.5736 23.9376C29.5572 23.9584 29.5388 23.97 29.5122 23.9608C29.5012 23.9571 29.4913 23.9503 29.4834 23.941C29.4755 23.9317 29.4699 23.9201 29.4671 23.9076C29.461 23.8797 29.4589 23.8497 29.4569 23.8196C29.4364 23.5557 29.4139 23.2918 29.3955 23.0302C29.3729 22.7131 29.3504 22.3959 29.33 22.0788C29.3159 21.8553 29.305 21.6315 29.2972 21.4075C29.2828 21.0673 29.2726 20.727 29.2603 20.3867C29.2583 20.308 29.2583 20.227 29.2562 20.1482C29.2542 19.977 29.2501 19.808 29.248 19.6367H29.2542Z" fill="#F2F2F2"/>
<path d="M28.7445 19.727C28.7363 20.0719 28.7302 20.4191 28.722 20.764C28.7158 20.9978 28.7077 21.2339 28.6954 21.4677C28.679 21.7873 28.6606 22.1068 28.6401 22.426C28.6278 22.6369 28.6135 22.8475 28.5971 23.058C28.5807 23.2802 28.5602 23.5047 28.5418 23.727C28.5377 23.7756 28.5336 23.8265 28.5296 23.8751C28.5254 23.9237 28.5111 23.9469 28.4824 23.9562C28.4456 23.9654 28.4231 23.9446 28.4046 23.9121C28.3207 23.7754 28.2375 23.638 28.1549 23.5002C27.598 22.565 27.0678 21.6112 26.5744 20.6298C26.3287 20.1413 26.0953 19.6483 25.8762 19.146C25.651 18.6251 25.4422 18.0974 25.2743 17.5488C25.1678 17.2016 25.0798 16.8474 25.0184 16.484C24.9877 16.3034 24.9713 16.1229 24.9631 15.9377C24.9549 15.7548 24.959 15.572 24.9754 15.389C25.0102 15.0233 25.1044 14.6807 25.2641 14.359C25.5117 13.8612 25.8537 13.4747 26.3041 13.2131C26.5211 13.0859 26.7504 13.0002 26.9879 12.947C27.1844 12.9029 27.3789 12.8613 27.5755 12.8173C27.6083 12.8103 27.641 12.808 27.6717 12.8011C27.7004 12.7965 27.7188 12.8035 27.7331 12.8335C27.7822 12.933 27.8355 13.0326 27.8806 13.1345C28.0566 13.5441 28.1774 13.9747 28.2798 14.4145C28.3801 14.8428 28.4558 15.2756 28.5152 15.7131C28.5541 16.0095 28.5889 16.3058 28.6176 16.6043C28.6463 16.9076 28.6688 17.2131 28.6872 17.5164C28.7056 17.8265 28.7179 18.1368 28.7261 18.4469C28.7343 18.7062 28.7363 18.9654 28.7404 19.2247C28.7424 19.3914 28.7404 19.558 28.7404 19.7247C28.7424 19.727 28.7424 19.727 28.7445 19.727Z" fill="#F2F2F2"/>
<path d="M35.1051 15.4331C35.1727 15.5095 35.2362 15.5789 35.2976 15.653C35.6169 16.0395 35.8975 16.4609 36.1206 16.9262C36.2701 17.2363 36.3909 17.5604 36.4625 17.903C36.5894 18.5165 36.5505 19.116 36.3131 19.69C36.1534 20.0766 35.9302 20.4122 35.6456 20.6946C35.49 20.8497 35.3365 21.0095 35.1768 21.1576C34.8226 21.484 34.4459 21.778 34.063 22.0604C33.2994 22.6252 32.5091 23.1391 31.7045 23.6252C31.25 23.9006 30.7894 24.1622 30.3328 24.4308C30.3205 24.4377 30.3062 24.4469 30.2918 24.4516C30.2427 24.4678 30.2038 24.4331 30.212 24.3751C30.214 24.352 30.2243 24.3289 30.2325 24.308C30.3369 24.0604 30.4393 23.8127 30.5437 23.5673C30.8998 22.7445 31.2802 21.9354 31.684 21.1414C32.104 20.3148 32.5457 19.5027 33.0087 18.7062C33.4775 17.9007 33.9648 17.109 34.4786 16.3382C34.669 16.0512 34.8676 15.7711 35.0621 15.4863C35.0744 15.4748 35.0867 15.4585 35.1051 15.4331Z" fill="#F2F2F2"/>
<path d="M22.8931 15.4331C22.9525 15.5164 23.0098 15.5951 23.0651 15.6762C23.5994 16.4423 24.1052 17.234 24.5904 18.0396C25.1923 19.0372 25.7594 20.0581 26.2897 21.1067C26.5845 21.6853 26.867 22.2734 27.1372 22.8659C27.3563 23.3497 27.5692 23.8382 27.7698 24.3312C27.776 24.3474 27.7821 24.3613 27.7883 24.3775C27.8026 24.4307 27.7678 24.477 27.7187 24.4631C27.7003 24.4585 27.6818 24.4469 27.6654 24.4377C27.122 24.1322 26.5842 23.8142 26.0522 23.484C25.4564 23.1159 24.8668 22.7317 24.2915 22.3243C23.798 21.9724 23.3128 21.6066 22.8562 21.197C22.6864 21.0441 22.5246 20.8821 22.3669 20.7178C22.2503 20.5951 22.1356 20.4724 22.0353 20.3312C21.767 19.9539 21.5808 19.5326 21.5009 19.0558C21.4314 18.6322 21.4539 18.2132 21.5583 17.7989C21.6606 17.3983 21.8204 17.0257 22.0149 16.6738C22.2544 16.241 22.5349 15.8428 22.8501 15.4794C22.8645 15.4655 22.8767 15.4516 22.8931 15.4331Z" fill="#F2F2F2"/>
<path d="M37.6412 20.4888C37.6473 20.5095 37.6534 20.5258 37.6596 20.5443C37.7291 20.7954 37.7723 21.0549 37.7886 21.3174C37.8234 21.8799 37.7537 22.4262 37.5695 22.9493C37.418 23.3776 37.1948 23.7572 36.9123 24.0929C36.6704 24.3804 36.3881 24.6205 36.077 24.8035C35.8457 24.9401 35.602 25.0304 35.3502 25.0998C35.1455 25.1554 34.9367 25.1947 34.7237 25.1924C34.5907 25.1924 34.4596 25.1994 34.3266 25.1994C33.135 25.2016 31.9455 25.2016 30.754 25.2016H30.7007C30.6762 25.1994 30.6557 25.1855 30.6475 25.1577C30.6373 25.1299 30.6434 25.1022 30.6618 25.0813C30.6741 25.0674 30.6905 25.0558 30.7049 25.0443C31.0733 24.7757 31.4419 24.5049 31.8145 24.2433C32.5945 23.6948 33.3868 23.1739 34.1853 22.6577C35.2519 21.9679 36.3267 21.2943 37.4078 20.6323C37.4712 20.5929 37.5347 20.5559 37.5981 20.5165C37.6084 20.5072 37.6227 20.5003 37.6412 20.4888Z" fill="#F2F2F2"/>
<path d="M20.3566 20.5C20.4323 20.5464 20.5019 20.5857 20.5694 20.6297C21.7815 21.3681 22.9853 22.1204 24.1789 22.8981C24.9589 23.4051 25.7348 23.9213 26.4965 24.4629C26.7667 24.6551 27.0329 24.8542 27.301 25.0509C27.3154 25.0625 27.3318 25.0741 27.342 25.088C27.3727 25.1296 27.3543 25.1875 27.3072 25.1991C27.2949 25.2014 27.2806 25.2014 27.2683 25.2014C27.0492 25.2014 26.8302 25.2014 26.609 25.2037C26.3122 25.206 26.0174 25.206 25.7206 25.2084C25.522 25.2084 25.3233 25.2106 25.1268 25.2106C24.7153 25.2106 24.3038 25.2129 23.8944 25.2129C23.6937 25.2129 23.4951 25.2153 23.2945 25.206C22.93 25.1921 22.5758 25.1134 22.236 24.963C21.4969 24.6343 20.9462 24.0671 20.5654 23.2824C20.3934 22.926 20.2869 22.5463 20.2337 22.1459C20.1969 21.8634 20.1866 21.581 20.2091 21.2986C20.2276 21.044 20.2708 20.7924 20.3381 20.5486C20.3443 20.5324 20.3484 20.5208 20.3566 20.5Z" fill="#F2F2F2"/>
<path d="M51.0913 25.3604C50.9768 25.3396 50.8577 25.3241 50.7431 25.3033C50.3078 25.2254 49.8999 25.0643 49.5379 24.763C49.0843 24.3837 48.8047 23.8643 48.6535 23.2564C48.5527 22.8564 48.516 22.4512 48.516 22.0355V17.8951V17.7757C48.6031 17.7445 49.7166 17.7393 49.8495 17.7704V22.0512C49.8495 22.3473 49.8862 22.6382 49.9779 22.9187C50.1657 23.4902 50.5415 23.8019 51.0639 23.8902C51.3343 23.937 51.6046 23.9213 51.8704 23.8435C52.2919 23.7136 52.5806 23.4174 52.741 22.9551C52.8419 22.659 52.8739 22.3421 52.8739 22.0252V17.9211V17.7757C52.961 17.7445 54.0745 17.734 54.1983 17.7652C54.1983 17.8016 54.2028 17.8432 54.2028 17.8847C54.2028 19.2873 54.2074 20.6849 54.2028 22.0875C54.2028 22.5914 54.1295 23.0798 53.9645 23.5473C53.6575 24.4253 53.0893 24.976 52.2919 25.2149C52.1087 25.2721 51.9162 25.2877 51.7283 25.3241C51.6871 25.3292 51.6504 25.3396 51.6092 25.35C51.4442 25.3604 51.2701 25.3604 51.0913 25.3604ZM69.8793 17.76H71.2449C71.2357 17.8068 71.2265 17.8535 71.2127 17.8899C70.9745 18.664 70.7362 19.4432 70.4979 20.2173C70.003 21.8329 69.5081 23.4486 69.0086 25.0643C68.949 25.2669 68.9857 25.2409 68.7886 25.2461H67.9409C67.8401 25.2461 67.8401 25.2461 67.8035 25.1318C67.3269 23.5785 66.8549 22.0252 66.3783 20.4718C66.3646 20.4355 66.3508 20.3991 66.3279 20.3264C66.305 20.3888 66.2913 20.4252 66.2775 20.4615C66.053 21.1991 65.8238 21.9368 65.5993 22.6746C65.3518 23.485 65.1044 24.3006 64.857 25.111C64.8157 25.2513 64.8341 25.2513 64.6874 25.2513H63.8167C63.7067 25.2513 63.7067 25.2513 63.6701 25.1318C62.9277 22.7161 62.1854 20.2952 61.4385 17.8795C61.4293 17.8484 61.4201 17.8172 61.411 17.7757H62.8223C63.3035 19.4744 63.7893 21.1784 64.2704 22.8875H64.2933C64.3024 22.8564 64.3162 22.8252 64.3254 22.7888C64.802 21.1628 65.274 19.5315 65.7505 17.9055C65.7597 17.8795 65.7688 17.8484 65.7734 17.8224C65.7826 17.7756 65.8147 17.7548 65.856 17.7548C66.1859 17.7548 66.5158 17.7548 66.8457 17.76C66.8549 17.76 66.8686 17.7652 66.887 17.7756C67.3819 19.4692 67.8767 21.1731 68.3717 22.8772C68.4221 22.8564 68.4221 22.8096 68.4358 22.7733C68.5642 22.3316 68.6879 21.8901 68.8116 21.4486C69.1507 20.2537 69.4898 19.064 69.8289 17.8691C69.8518 17.8275 69.8655 17.7964 69.8793 17.76ZM40.9414 25.2202V17.7652H42.2657C42.2657 17.812 42.2703 17.8588 42.2703 17.9055V20.768H45.3084C45.313 20.716 45.3176 20.6641 45.3176 20.6121V17.9211V17.7652H46.6327C46.6556 17.8484 46.6648 25.0591 46.6419 25.2202C46.5503 25.2513 45.4321 25.2513 45.3176 25.2149V22.2123C45.2122 22.1811 42.3849 22.1811 42.2748 22.2123V25.2149C42.1603 25.2513 41.0422 25.2513 40.9414 25.2202ZM77.3349 23.885V25.2097C77.2433 25.2357 72.4914 25.2409 72.3768 25.2149C72.3493 25.1162 72.3493 17.8951 72.3722 17.7704C72.4546 17.7445 77.092 17.7393 77.2112 17.7652V19.0899C77.1608 19.0952 77.1104 19.1004 77.06 19.1004H73.6782V20.6433H76.084C76.1206 20.7524 76.1252 21.8693 76.0886 22.0044H73.6919C73.6644 22.1239 73.6598 23.7551 73.6919 23.8798C74.8971 23.885 76.1069 23.885 77.3349 23.885ZM61.8922 25.2254C61.8418 25.2306 61.8097 25.2305 61.7776 25.2305C61.3881 25.2305 60.9986 25.2254 60.6137 25.2357C60.522 25.2357 60.4854 25.1994 60.4533 25.111C60.2929 24.6747 60.1233 24.2435 59.963 23.8071C59.9263 23.7136 59.8851 23.6772 59.7934 23.6772C58.8586 23.6824 57.9238 23.6824 56.989 23.6772C56.9019 23.6772 56.8607 23.7032 56.824 23.7967C56.6636 24.2331 56.4895 24.6643 56.3245 25.0955C56.3062 25.137 56.2925 25.1786 56.2741 25.2202H54.9223C54.9407 25.1734 54.9498 25.1318 54.9636 25.0955C55.541 23.6149 56.1137 22.1343 56.6911 20.6485C57.054 19.7173 57.416 18.7857 57.7772 17.8536C57.8093 17.7757 57.8413 17.7393 57.9238 17.7393C58.2446 17.7445 58.5699 17.7445 58.8907 17.7393C58.9824 17.7393 59.019 17.7757 59.0556 17.8639C59.4864 18.9808 59.9172 20.0927 60.3479 21.2043C60.8474 22.4875 61.3422 23.7759 61.8418 25.0591C61.851 25.1162 61.8693 25.163 61.8922 25.2254ZM59.3947 22.311C59.3856 22.2798 59.381 22.2486 59.3672 22.2226C59.2985 22.0408 59.2298 21.8538 59.1611 21.6719C58.9227 21.0381 58.6799 20.4096 58.437 19.7757C58.4233 19.7394 58.4187 19.6874 58.3683 19.6614C58.0337 20.5446 57.7038 21.4226 57.3693 22.3057C57.4793 22.3369 59.2894 22.3421 59.3947 22.311ZM78.9709 17.7497H80.2448L80.2585 17.7652C80.2631 17.7704 80.2631 17.7704 80.2631 17.7757C80.2677 20.2069 80.2677 22.6382 80.2677 25.0695C80.2677 25.111 80.2677 25.1526 80.2631 25.1942C80.2631 25.1994 80.2585 25.2097 80.2493 25.2202H78.9617C78.9709 22.7317 78.9709 20.2484 78.9709 17.7496V17.7497Z" fill="#F2F2F2"/>
</g>
<defs>
<clipPath id="clip0_22469_947492">
<rect width="60.0985" height="14.9333" fill="white" transform="translate(20.1973 12.7998)"/>
</clipPath>
</defs>
</svg>
