<svg width="100" height="40" viewBox="0 0 100 40" fill="none" xmlns="http://www.w3.org/2000/svg">
<rect width="100" height="40" rx="2" fill="#1D1F23"/>
<path d="M41.85 26C45.0781 26 47.7 23.3168 47.7 20.0013C47.7 16.6857 45.0781 14 41.85 14C38.6168 14 36 16.6857 36 20.0013C36 23.3168 38.6168 26 41.85 26Z" fill="white"/>
<path d="M41.6992 17.2998V22.6998H43.4993V22.2143H42.218V17.2998H41.6992Z" fill="#1D1F23"/>
<path d="M40.0508 18.7998C40.466 18.7998 40.8008 18.4625 40.8008 18.0506C40.8008 17.6384 40.466 17.2998 40.0508 17.2998C39.6355 17.2998 39.3008 17.6384 39.3008 18.0506C39.3008 18.4628 39.6355 18.7998 40.0508 18.7998Z" fill="#1D1F23"/>
<path d="M42.087 14.9075C42.0252 14.9043 41.9077 14.9004 41.8516 14.9004C39.1219 14.9004 36.9004 17.1905 36.9004 20.0017C36.9004 21.3672 37.4153 22.6471 38.3478 23.6096C39.2842 24.5698 40.5268 25.1004 41.8516 25.1004C43.1712 25.1004 44.4135 24.5698 45.3482 23.6096C46.2831 22.6471 46.8004 21.3672 46.8004 20.0017V19.7748H46.6001H43.265V20.2444H46.3288C46.3288 20.2547 46.3288 20.3045 46.3267 20.3174C46.1709 22.7207 44.2232 24.6242 41.8516 24.6242C40.6511 24.6242 39.5254 24.1431 38.6782 23.2694C37.8282 22.3994 37.3599 21.2403 37.3599 20.0016C37.3599 18.77 37.8282 17.6049 38.6782 16.7321C39.5254 15.8602 40.6511 15.3791 41.8516 15.3791C41.9033 15.3791 42.029 15.3791 42.087 15.3823V14.9075Z" fill="#1D1F23"/>
<path fill-rule="evenodd" clip-rule="evenodd" d="M61.3821 20.7849H59.9524V19.3175H62.9991V23.1341C62.3725 23.5884 61.2188 23.8998 60.0404 23.8998C57.4694 23.8998 56.3033 22.4719 56.3033 19.8367C56.3033 17.1887 57.5946 15.7998 60.0528 15.7998C61.1433 15.7998 62.3096 16.0984 62.9744 17.0842L61.883 18.1231C61.4697 17.5778 60.9682 17.292 60.0902 17.292C58.5103 17.292 58.0091 18.2408 58.0091 19.8499C58.0091 21.5372 58.5354 22.368 60.1153 22.368C60.6044 22.368 61.1185 22.2644 61.3821 22.1605V20.7849ZM50.6992 15.9155H52.4546V22.2516H56.0908V23.7831H50.6992V15.9155Z" fill="white"/>
</svg>
