<svg xmlns="http://www.w3.org/2000/svg" width="82" height="40" fill="none" viewBox="0 0 82 40">
  <g fill="#fff" clip-path="url(#a)">
    <path d="M7.46 0C2.37 0 0 2.89 0 7.39v5.22c0 4.67.84 6.66 4.2 8.77L6.8 23c2.1 1.27 2.37 2.21 2.37 4.94v4.6c0 1.35-.61 2.17-1.77 2.17-1.16 0-1.78-.77-1.78-2.16v-7.23H0v7.28C0 37.15 2.32 40 7.35 40c5.19 0 7.56-3 7.56-7.39v-5.67c0-4.33-1.1-6.56-4.3-8.6L8 16.66c-1.83-1.17-2.27-2-2.27-5V7.44c0-1.34.61-2.17 1.71-2.17 1.16 0 1.83.84 1.83 2.17v7.16h5.63V7.4C14.91 2.94 12.54 0 7.46 0ZM16.69 6.11h3.98v33.34h5.74V6.1h3.98V.55h-13.7v5.56ZM67.97.55v5.56h3.98v33.34h5.74V6.1h3.98V.55h-13.7ZM33.92.55l-3.2 38.89h5.68l.79-10.4h4.17l.78 10.4h5.81L44.75.55H33.92Zm3.67 23.22 1.36-17.94h.68l1.35 17.94H37.6ZM65.87 36.5V26.38c0-3.22-1.22-5-4.15-5.61v-.67c2.92-.45 4.42-2.61 4.42-6.11v-6.6c0-4.28-2.54-6.84-7.46-6.84h-7.8v38.89h5.75V23.17h3.48V36.5c0 2.21.94 2.94.94 2.94h5.74c.02 0-.92-.71-.92-2.94ZM60.4 14.27c0 2.79-.61 3.61-2.5 3.61h-1.26V5.84h1.49c1.77 0 2.27.72 2.27 3.6v4.83Z"/>
  </g>
  <defs>
    <clipPath id="a">
      <path fill="#fff" d="M0 0h81.67v40H0z"/>
    </clipPath>
  </defs>
</svg>