<svg xmlns="http://www.w3.org/2000/svg" width="26" height="16">
  <g fill="none">
    <path fill="#FF5F00" d="M9.061 1.745h7.674v12.534H9.061z"/>
    <path fill="#EB001B" d="M9.852 8.013a7.957 7.957 0 013.044-6.266 7.972 7.972 0 100 12.535 7.96 7.96 0 01-3.044-6.269z"/>
    <path fill="#F79E1B" d="M25.032 12.953v-.257h.11v-.053h-.263v.053h.104v.257h.049zm.511 0v-.31h-.08l-.092.221-.093-.221h-.08v.31h.057v-.235l.087.202h.06l.086-.202v.235h.055zm.25-4.94a7.971 7.971 0 01-12.897 6.266 7.97 7.97 0 000-12.534 7.971 7.971 0 0112.897 6.266v.002z"/>
  </g>
</svg>
