<svg width="100" height="40" viewBox="0 0 100 40" fill="none" xmlns="http://www.w3.org/2000/svg">
<rect width="100" height="40" rx="2" fill="#1D1F23"/>
<path fill-rule="evenodd" clip-rule="evenodd" d="M38.5404 27H25.5343C25.2392 27 25 26.7621 25 26.4685V13.5314C25 13.2378 25.2392 13 25.5343 13H38.5404C38.8355 13 39.0747 13.2378 39.0747 13.5314V26.4685C39.0747 26.7621 38.8355 27 38.5404 27ZM32.2557 17.4032H28.0379C27.9905 17.4032 27.9524 17.4407 27.9524 17.4869V22.5122C27.9524 22.5581 27.9905 22.5956 28.0379 22.5956H29.1455C29.1926 22.5956 29.2317 22.5581 29.2317 22.5122V18.5681C29.2317 18.5226 29.2698 18.4848 29.3172 18.4848H31.703C32.3738 18.4848 32.5643 18.9959 32.5643 19.3256V22.5122C32.5643 22.5581 32.6028 22.5956 32.6502 22.5956H33.7571C33.8042 22.5956 33.8429 22.5581 33.8429 22.5122V18.9473C33.8429 18.6532 33.8073 18.2304 33.4259 17.8582C33.0268 17.4697 32.6627 17.4032 32.2557 17.4032ZM31.4794 19.4048H30.3171C30.2697 19.4048 30.2308 19.4423 30.2308 19.4883V22.5126C30.2308 22.5583 30.2697 22.5958 30.3171 22.5958H31.4794C31.5264 22.5958 31.5649 22.5583 31.5649 22.5126V19.4883C31.5649 19.4423 31.5264 19.4048 31.4794 19.4048ZM36.0361 17.4032H34.9293C34.8819 17.4032 34.8435 17.4407 34.8435 17.4869V22.5122C34.8435 22.5581 34.8819 22.5956 34.9293 22.5956H36.0361C36.083 22.5956 36.1219 22.5581 36.1219 22.5122V17.4869C36.1219 17.4407 36.083 17.4032 36.0361 17.4032Z" fill="white"/>
<path fill-rule="evenodd" clip-rule="evenodd" d="M53.3952 23.8181V17.7905L50.9078 23.8181H50.6826L48.185 17.7905V23.8181H47.6016V17.0269H48.4716L50.7952 22.6574L53.1086 17.0269H53.9889V23.8181H53.3952ZM55.8995 18.0654C55.6847 18.0654 55.4902 17.8821 55.4902 17.6581C55.4902 17.4341 55.6847 17.2509 55.8995 17.2509C56.1247 17.2509 56.3088 17.4341 56.3088 17.6581C56.3088 17.8821 56.1247 18.0654 55.8995 18.0654ZM55.6335 18.9001V23.818H56.1656V18.9001H55.6335ZM60.4275 23.8181V17.0269H63.2322C64.3787 17.0269 65.1157 17.6887 65.1157 18.7578C65.1157 19.613 64.5322 20.1934 63.9181 20.3156C64.6448 20.4276 65.2488 21.181 65.2488 21.9854C65.2488 23.1156 64.5118 23.8181 63.2936 23.8181H60.4275ZM63.1605 20.0712H61.011V17.5563H63.1605C64.0408 17.5563 64.5015 18.1265 64.5015 18.8188C64.5015 19.5214 64.0408 20.0712 63.1605 20.0712ZM61.011 23.2885H63.2015C64.1023 23.2885 64.6345 22.7693 64.6345 21.9446C64.6345 21.2522 64.1534 20.6006 63.2015 20.6006H61.011V23.2885ZM66.3713 21.3541C66.3713 22.7897 67.3028 23.9402 68.7461 23.9402C70.2099 23.9402 71.1311 22.7897 71.1311 21.3541C71.1311 19.9184 70.2099 18.7781 68.7461 18.7781C67.3028 18.7781 66.3713 19.9184 66.3713 21.3541ZM68.7461 23.4617C69.913 23.4617 70.5579 22.4537 70.5579 21.3541C70.5579 20.2646 69.913 19.2566 68.7461 19.2566C67.5997 19.2566 66.9446 20.2646 66.9446 21.3541C66.9446 22.4537 67.5997 23.4617 68.7461 23.4617ZM73.7277 21.6492L75.3655 23.818H76.0001L74.045 21.2929L75.8875 18.9001H75.2529L73.7277 20.9263L72.1923 18.9001H71.5577L73.4002 21.2929L71.4451 23.818H72.0797L73.7277 21.6492Z" fill="white"/>
</svg>
