<svg width="46" height="15" viewBox="0 0 46 15" fill="none" xmlns="http://www.w3.org/2000/svg">
<path d="M32.9089 6.89917V14.3515H36.8233V9.93531H41.2595C43.1266 9.92065 44.7126 8.65915 45.3107 6.89917H32.9089Z" fill="#37A72E"/>
<path d="M32.387 0.757812C32.615 3.80393 35.3396 6.20908 38.6671 6.20908C38.678 6.20908 45.4733 6.20908 45.4733 6.20908C45.5235 5.92971 45.5498 5.64137 45.5498 5.34654C45.5498 2.82321 43.625 0.77648 41.244 0.757939L32.387 0.757812Z" fill="url(#paint0_linear)"/>
<path d="M26.5938 6.13658L26.5968 6.12963L26.5973 6.12974C26.6374 6.05358 26.7143 6.00206 26.8026 6.00206C26.9301 6.00206 27.0339 6.10955 27.0373 6.24355L27.0374 6.24357V14.2824H30.9518V0.757812H27.0374C26.541 0.775288 25.9802 1.16056 25.7717 1.63348L22.6567 8.6992C22.649 8.72808 22.6369 8.75504 22.6214 8.77925L22.6203 8.78161L22.6199 8.78147C22.5728 8.85322 22.4943 8.90019 22.4055 8.90019C22.2613 8.90019 22.1445 8.77662 22.1445 8.62418V0.757812H18.2302V14.2824H22.1445V14.2809C22.6354 14.2538 23.1831 13.8728 23.3886 13.4068L26.5857 6.1548C26.5882 6.1486 26.5909 6.14252 26.5938 6.13658Z" fill="#37A72E"/>
<path d="M11.9773 6.36777L9.68952 14.2824H6.87364L4.5845 6.36296C4.56243 6.23615 4.45736 6.14006 4.33108 6.14006C4.18876 6.14006 4.07338 6.26209 4.07338 6.41263C4.07338 6.41378 4.07339 6.41493 4.0734 6.41607L4.07338 14.2824H0.159058V0.757812H3.51885H4.51947C5.23972 0.757812 5.99448 1.34902 6.20496 2.07717L8.10996 8.6677C8.20474 8.99561 8.35852 8.99526 8.4532 8.6677L10.3582 2.07717C10.5688 1.34851 11.3234 0.757813 12.0437 0.757813L13.044 0.757812H16.4035V14.2824H12.4892V6.41608C12.4892 6.41493 12.4892 6.41378 12.4892 6.41263C12.4892 6.26209 12.3738 6.14006 12.2315 6.14006C12.1036 6.14006 11.9975 6.23858 11.9773 6.36777Z" fill="#37A72E"/>
<defs>
<linearGradient id="paint0_linear" x1="32.387" y1="6.20908" x2="45.5498" y2="6.20908" gradientUnits="userSpaceOnUse">
<stop stop-color="#00A0E5"/>
<stop offset="1" stop-color="#0077C3"/>
</linearGradient>
</defs>
</svg>
