<svg xmlns="http://www.w3.org/2000/svg" width="24" height="24">
  <g fill="none" fill-rule="evenodd">
    <path fill="#F68634" d="M0 12C0 5.373 5.373 0 12 0s12 5.373 12 12-5.373 12-12 12S0 18.627 0 12z"/>
    <path fill="#F2F2F2" d="M11.992 7.815c.732 0 1.328.575 1.328 1.282 0 .706-.596 1.282-1.328 1.282-.732 0-1.328-.576-1.328-1.282 0-.707.596-1.282 1.328-1.282zm2.167 4.624a.959.959 0 011.296.285.89.89 0 01-.294 1.252c-.58.351-1.21.6-1.863.744l1.793 1.731a.884.884 0 010 1.283.961.961 0 01-1.328 0L12 16.034l-1.762 1.7a.956.956 0 01-.665.266.956.956 0 01-.664-.266.885.885 0 010-1.283l1.793-1.73a6.16 6.16 0 01-1.863-.745.89.89 0 01-.294-1.252.959.959 0 011.295-.285 4.197 4.197 0 004.32 0zM11.992 6c1.77 0 3.208 1.39 3.208 3.097s-1.439 3.096-3.208 3.096c-1.77 0-3.208-1.389-3.208-3.096C8.784 7.389 10.223 6 11.992 6z"/>
  </g>
</svg>
