<svg width="100" height="40" viewBox="0 0 100 40" fill="none" xmlns="http://www.w3.org/2000/svg">
<path d="M100 0H0V40H100V0Z" fill="#1D1F23"/>
<g clip-path="url(#clip0_22469_947474)">
<path d="M75.3122 23.5452C74.9286 24.0006 74.4203 24.3107 73.8619 24.43C73.4916 24.5176 73.1107 24.5399 72.7338 24.4962C72.2276 24.444 71.7456 24.2368 71.3442 23.8988C71.0135 23.6325 70.739 23.2931 70.5388 22.9031C70.3811 22.6008 70.2721 22.2717 70.2166 21.9298C70.1354 21.451 70.1561 20.9585 70.2772 20.4898C70.3973 19.9548 70.6566 19.4683 71.0242 19.088C71.3919 18.7076 71.8525 18.4493 72.3516 18.3436C72.9176 18.2145 73.5037 18.2296 74.0634 18.3879C74.4673 18.4894 74.8371 18.7111 75.1309 19.0279C75.3241 19.2141 75.4815 19.4397 75.5939 19.6919C75.7346 19.9926 75.7972 20.329 75.7752 20.6652H73.9225C73.8837 20.4022 73.7541 20.1649 73.56 20.0012C73.4398 19.8926 73.2902 19.8294 73.1338 19.8214C72.9775 19.8134 72.823 19.861 72.6939 19.957C72.5125 20.0806 72.377 20.2694 72.3112 20.4903C72.1534 21.0216 72.1464 21.5919 72.291 22.1276C72.3454 22.3551 72.4569 22.5618 72.6132 22.725C72.7 22.8168 72.8048 22.8864 72.9199 22.9285C73.0349 22.9706 73.1572 22.9841 73.2777 22.9682C73.4252 22.9449 73.5605 22.8666 73.6604 22.7468C73.7671 22.6159 73.837 22.4548 73.8619 22.2823C73.8853 22.1658 73.8988 22.0473 73.9023 21.9282H75.856C75.8756 22.2235 75.8374 22.5199 75.7441 22.7982C75.6507 23.0764 75.5042 23.3303 75.3141 23.5431" fill="#F2F2F2"/>
<path d="M69.8732 16H67.8594V17.5712H69.8732V16Z" fill="#F2F2F2"/>
<path d="M69.8732 18.3672H67.8594V24.3192H69.8732V18.3672Z" fill="#F2F2F2"/>
<path d="M63.6518 19.0091C63.8992 18.7578 64.1855 18.5556 64.4976 18.4118C64.9927 18.1483 65.5623 18.1008 66.0888 18.279C66.3759 18.3678 66.6375 18.5342 66.8489 18.7626C67.0602 18.991 67.2145 19.2739 67.2972 19.5846C67.3766 19.8791 67.4172 20.1844 67.4178 20.4912V24.319H65.2617V20.8678C65.2581 20.756 65.2446 20.6449 65.2213 20.536C65.1966 20.4424 65.1528 20.3561 65.0931 20.2833C65.0334 20.2106 64.9594 20.1533 64.8765 20.1158C64.6926 20.03 64.4859 20.021 64.2963 20.0904C64.1066 20.1598 63.9474 20.3028 63.8494 20.4918C63.7696 20.6474 63.728 20.8226 63.7287 21.0006V24.3195H61.6543V18.3675H63.608L63.6518 19.0091Z" fill="#F2F2F2"/>
<path d="M39.7241 19.0091C39.9714 18.7578 40.2577 18.5556 40.5699 18.4118C41.0649 18.1483 41.6345 18.1008 42.161 18.279C42.4481 18.3678 42.7097 18.5342 42.9211 18.7626C43.1325 18.991 43.2867 19.2739 43.3694 19.5846C43.4488 19.8791 43.4895 20.1844 43.4901 20.4912V24.319H41.3551V20.8678C41.3516 20.756 41.338 20.6449 41.3147 20.536C41.29 20.4424 41.2462 20.3561 41.1865 20.2833C41.1268 20.2106 41.0528 20.1533 40.9699 20.1158C40.786 20.03 40.5793 20.021 40.3897 20.0904C40.2 20.1598 40.0408 20.3028 39.9428 20.4918C39.863 20.6474 39.8214 20.8226 39.8221 21.0006V24.3195H37.7305V18.3675H39.6842L39.7241 19.0091Z" fill="#F2F2F2"/>
<path d="M52.4936 22.1288C52.6434 22.155 52.7915 22.1919 52.9369 22.2392C52.9953 22.2631 53.0476 22.3016 53.0896 22.3516C53.1317 22.4015 53.1622 22.4615 53.1788 22.5266C53.1939 22.5967 53.1927 22.6697 53.1756 22.7392C53.1584 22.8087 53.1257 22.8725 53.0803 22.925C52.9834 23.0335 52.8557 23.1035 52.7177 23.124C52.5353 23.1676 52.3447 23.1444 52.1758 23.0578C52.0948 23.0194 52.02 22.9672 51.9542 22.9032C51.8582 22.8299 51.793 22.7185 51.7729 22.5933C51.7496 22.4918 51.736 22.388 51.7325 22.2834H49.7586V22.4162C49.7521 22.6136 49.7858 22.81 49.8571 22.9917C49.9539 23.2672 50.1052 23.5164 50.3005 23.7218C50.5551 23.9854 50.8667 24.1756 51.2069 24.2749C51.9068 24.4926 52.6417 24.5453 53.362 24.4296C53.702 24.3787 54.03 24.2586 54.3285 24.0754C54.4635 23.9996 54.5916 23.9103 54.7113 23.8088C54.9712 23.5755 55.1601 23.2629 55.2535 22.9117C55.3469 22.5604 55.3405 22.1869 55.2349 21.8397C55.16 21.576 55.0208 21.3391 54.832 21.1538C54.5735 20.9004 54.2627 20.7175 53.9256 20.6205C53.8448 20.5986 53.7847 20.5762 53.7039 20.5544C53.3018 20.4247 52.891 20.3286 52.4753 20.2669C52.3547 20.245 52.2537 20.2226 52.1532 20.2008C52.1055 20.189 52.0584 20.1742 52.0123 20.1565C51.9829 20.1419 51.9564 20.1211 51.9344 20.0953C51.9124 20.0696 51.8953 20.0394 51.8841 20.0065C51.8729 19.9736 51.8678 19.9387 51.8691 19.9037C51.8704 19.8686 51.878 19.8342 51.8916 19.8024V19.7821C51.917 19.72 51.9559 19.6655 52.005 19.6232C52.054 19.5808 52.1118 19.5519 52.1734 19.5389C52.3913 19.4687 52.6243 19.4763 52.8379 19.5608C52.9409 19.5975 53.0301 19.6692 53.0922 19.7654C53.1544 19.8615 53.1861 19.9768 53.1827 20.0941H55.096C55.097 19.8519 55.056 19.6117 54.9753 19.3858C54.9036 19.151 54.7706 18.9436 54.5926 18.7885C54.4415 18.6561 54.2715 18.5515 54.0891 18.4786C53.908 18.3965 53.7187 18.3371 53.5251 18.3016C53.0799 18.2171 52.6272 18.1874 52.1758 18.213C51.9166 18.223 51.6595 18.2676 51.4103 18.3458C51.0653 18.4303 50.7419 18.5966 50.4635 18.8328C50.2275 19.0393 50.0525 19.3161 49.9601 19.629C49.9235 19.7743 49.8965 19.9223 49.8793 20.0717C49.8585 20.3224 49.9002 20.5745 50 20.8018C50.0689 21.0086 50.1783 21.1967 50.3209 21.3533C50.4634 21.5098 50.6356 21.631 50.8256 21.7085C51.014 21.7948 51.2097 21.8614 51.4098 21.9074C51.7118 21.9736 52.0744 22.0621 52.4975 22.1288" fill="#F2F2F2"/>
<path d="M28.8088 21.7521H27.4191V19.8049H28.3255C28.4869 19.8091 28.6483 19.8018 28.8088 19.783C28.9224 19.7763 29.0334 19.7433 29.1342 19.686C29.2351 19.6288 29.3233 19.5487 29.393 19.4513C29.4683 19.349 29.517 19.2267 29.5339 19.0971C29.554 18.9876 29.554 18.8749 29.5339 18.7654C29.5189 18.558 29.4313 18.3646 29.289 18.2248C29.1467 18.0849 28.9605 18.0091 28.7684 18.0129H27.4191V24.3409H25.123V15.999H28.8895C29.0309 15.9952 29.1723 16.0025 29.3127 16.0209C29.7912 16.0451 30.254 16.2133 30.6491 16.5065C31.0442 16.7996 31.3561 17.2062 31.5496 17.6806C31.7691 18.1679 31.8531 18.7138 31.7915 19.2518C31.7408 19.8225 31.5244 20.3611 31.1734 20.7903C30.8224 21.2196 30.3549 21.5174 29.8378 21.6411C29.5007 21.7216 29.1559 21.7587 28.8107 21.7515" fill="#F2F2F2"/>
<path d="M58.979 18.2567C58.7793 18.2207 58.5769 18.2059 58.3745 18.2125C58.1725 18.2155 57.9707 18.2302 57.7701 18.2567C57.1724 18.3472 56.6196 18.6509 56.1992 19.1197C55.7273 19.6098 55.4403 20.2722 55.3938 20.9783C55.3564 21.409 55.3897 21.8435 55.4923 22.2615C55.6403 22.906 55.9881 23.4761 56.4775 23.8765C56.7892 24.1474 57.1546 24.3366 57.545 24.4295C57.823 24.4929 58.1067 24.5226 58.3908 24.5181C58.6748 24.5215 58.9584 24.4918 59.2366 24.4295C59.63 24.3461 59.9973 24.1558 60.3041 23.8765L59.1361 22.4823C59.093 22.5874 59.0312 22.6823 58.9542 22.7614C58.8771 22.8406 58.7864 22.9025 58.6873 22.9436C58.5881 22.9847 58.4824 23.0043 58.3762 23.0011C58.2701 22.9979 58.1655 22.972 58.0686 22.925C57.8879 22.8372 57.7441 22.6793 57.6657 22.4823C57.5909 22.2982 57.5368 22.105 57.5046 21.9069C57.4509 21.5101 57.4577 21.1065 57.5248 20.7122C57.556 20.5042 57.632 20.3071 57.7465 20.1367C57.8172 20.0185 57.9141 19.9214 58.0284 19.8541C58.1427 19.7868 58.2708 19.7516 58.4009 19.7516C58.531 19.7516 58.659 19.7868 58.7733 19.8541C58.8876 19.9214 58.9846 20.0185 59.0553 20.1367C59.1616 20.312 59.2368 20.5071 59.277 20.7122C59.3541 21.1054 59.361 21.5109 59.2972 21.9069C59.2715 22.1066 59.2172 22.3008 59.1361 22.4823L60.3041 23.8765C60.7935 23.4761 61.1412 22.906 61.2893 22.2615C61.4026 21.8456 61.4361 21.4089 61.3878 20.9783C61.3412 20.2722 61.0542 19.6098 60.5824 19.1197C60.1413 18.6576 59.578 18.3559 58.9711 18.2567" fill="#F2F2F2"/>
<path d="M49.4718 23.8544C49.4314 23.3675 49.4314 22.9477 49.4112 22.4603C49.391 21.8203 49.391 21.2656 49.391 20.624C49.3918 20.2951 49.3512 19.9676 49.2703 19.6507C49.2246 19.4401 49.1382 19.2424 49.0167 19.0708C48.8951 18.8991 48.7413 18.7574 48.5653 18.6549C48.3601 18.5242 48.1351 18.434 47.9008 18.3883C47.1595 18.2078 46.392 18.1927 45.6452 18.344C45.4377 18.3868 45.2351 18.4535 45.0407 18.5429C44.811 18.6452 44.6051 18.8015 44.438 19.0005C44.2708 19.1994 44.1466 19.4361 44.0742 19.6933C44.0133 19.8928 43.9926 20.1042 44.0136 20.3131C44.0136 20.3573 44.0338 20.3792 44.0338 20.4235L45.8466 20.4677C45.8489 20.3485 45.8624 20.2298 45.887 20.1136C45.9157 20.0275 45.9614 19.9492 46.021 19.8843C46.0806 19.8193 46.1525 19.7693 46.2318 19.7376C46.4644 19.6421 46.7199 19.6344 46.957 19.7157C47.0367 19.7417 47.1087 19.7902 47.1653 19.8563C47.2219 19.9224 47.2612 20.0037 47.2791 20.0917C47.298 20.1427 47.3041 20.1981 47.297 20.2525C47.29 20.3068 47.2699 20.3582 47.2387 20.4016C47.1867 20.4783 47.1173 20.5393 47.0373 20.5787C46.9767 20.6005 46.9387 20.6229 46.8762 20.6448C46.6146 20.7109 46.4131 20.7776 46.1511 20.8219C45.9496 20.8661 45.7683 20.888 45.5668 20.9323C45.2851 20.9984 45.0634 21.0651 44.8013 21.1536C44.5663 21.2291 44.3519 21.3659 44.1772 21.552C43.9377 21.7902 43.7811 22.1103 43.7338 22.4587C43.7003 22.6866 43.7071 22.9194 43.754 23.1445C43.8088 23.4402 43.9372 23.714 44.1254 23.9363C44.3135 24.1586 44.5542 24.321 44.8215 24.4059C45.4109 24.5985 46.0434 24.5673 46.6141 24.3173C46.8883 24.1923 47.1297 23.9957 47.3166 23.7451L47.1974 22.7259C47.1123 22.8755 46.9853 22.9918 46.8348 23.0576C46.6999 23.1221 46.5575 23.1668 46.4117 23.1904C46.2893 23.2099 46.1644 23.1946 46.0491 23.1461C45.9473 23.1173 45.8561 23.0555 45.7875 22.9691C45.7281 22.901 45.6865 22.8171 45.6668 22.7259C45.6556 22.6538 45.6607 22.5799 45.6817 22.5105C45.7027 22.4411 45.739 22.3783 45.7875 22.3275C45.8566 22.2682 45.9308 22.2164 46.0092 22.1728C46.2063 22.0858 46.4082 22.0119 46.6136 21.9515C46.8597 21.869 47.1017 21.773 47.3387 21.664C47.3589 21.87 47.3589 22.0777 47.3387 22.2837C47.3224 22.4337 47.2741 22.5776 47.1979 22.704L47.3186 23.7216C47.3589 23.8763 47.3993 23.9883 47.4392 24.12C47.4598 24.1926 47.4933 24.2602 47.5378 24.3189H49.552C49.5319 24.1643 49.4915 24.0315 49.4713 23.8544" fill="#F2F2F2"/>
<path d="M37.3285 23.8544C37.2881 23.3675 37.2881 22.9477 37.2679 22.4603C37.2477 21.8203 37.2477 21.2656 37.2477 20.624C37.2486 20.2951 37.208 19.9677 37.127 19.6507C37.0814 19.4401 36.995 19.2424 36.8734 19.0708C36.7519 18.8991 36.5981 18.7574 36.4221 18.6549C36.2169 18.5242 35.9919 18.434 35.7576 18.3883C35.0163 18.2078 34.2488 18.1927 33.5019 18.344C33.2945 18.3868 33.0918 18.4535 32.8975 18.5429C32.6677 18.6452 32.4619 18.8015 32.2947 19.0005C32.1276 19.1994 32.0033 19.4361 31.931 19.6933C31.8701 19.8928 31.8494 20.1042 31.8704 20.3131C31.8704 20.3573 31.8906 20.3792 31.8906 20.4235L33.7034 20.4677C33.7056 20.3485 33.7192 20.2298 33.7438 20.1136C33.7725 20.0275 33.8182 19.9492 33.8778 19.8843C33.9373 19.8193 34.0093 19.7693 34.0886 19.7376C34.3211 19.6421 34.5766 19.6344 34.8137 19.7157C34.8935 19.7417 34.9654 19.7902 35.0221 19.8563C35.0787 19.9224 35.118 20.0037 35.1359 20.0917C35.1547 20.1427 35.1609 20.1981 35.1538 20.2525C35.1467 20.3068 35.1266 20.3582 35.0955 20.4016C35.0435 20.4783 34.9741 20.5393 34.894 20.5787C34.8334 20.6005 34.7955 20.6229 34.7329 20.6448C34.4709 20.7109 34.2699 20.7776 34.0078 20.8219C33.8063 20.8661 33.6251 20.888 33.4236 20.9323C33.1418 20.9984 32.9201 21.0651 32.6581 21.1536C32.423 21.2291 32.2087 21.3659 32.0339 21.552C31.793 21.7862 31.642 22.1097 31.6108 22.4587C31.5772 22.6866 31.5841 22.9194 31.631 23.1445C31.6857 23.4402 31.8142 23.714 32.0023 23.9363C32.1905 24.1586 32.4312 24.321 32.6985 24.4059C33.2878 24.5985 33.9203 24.5673 34.4911 24.3173C34.7653 24.1923 35.0066 23.9957 35.1935 23.7451L35.0728 22.7275C34.9878 22.8771 34.8608 22.9934 34.7103 23.0592C34.5753 23.1237 34.433 23.1684 34.2871 23.192C34.1648 23.2115 34.0398 23.1963 33.9246 23.1477C33.8226 23.119 33.7312 23.0572 33.6625 22.9707C33.6031 22.9026 33.5615 22.8187 33.5418 22.7275C33.5306 22.6554 33.5357 22.5815 33.5567 22.5121C33.5777 22.4427 33.614 22.3799 33.6625 22.3291C33.7316 22.2698 33.8058 22.218 33.8842 22.1744C34.0813 22.0874 34.2832 22.0135 34.4886 21.9531C34.7346 21.8706 34.9767 21.7746 35.2137 21.6656C35.2339 21.8716 35.2339 22.0793 35.2137 22.2853C35.1973 22.4353 35.1491 22.5792 35.0728 22.7056L35.1935 23.7232C35.2339 23.8779 35.2743 23.9899 35.3142 24.1216C35.3348 24.1942 35.3682 24.2618 35.4127 24.3205H37.4265C37.3819 24.1689 37.349 24.0135 37.328 23.856" fill="#F2F2F2"/>
<path d="M44.8201 24.407C44.5528 24.3221 44.3121 24.1597 44.1239 23.9374C43.9358 23.7151 43.8074 23.4413 43.7526 23.1456C43.7056 22.9205 43.6988 22.6877 43.7324 22.4598C43.7798 22.1114 43.9363 21.7913 44.1758 21.5531C44.3505 21.3669 44.5648 21.2301 44.7999 21.1547C45.0615 21.0662 45.2831 20.9995 45.5654 20.9334C45.7669 20.8891 45.9482 20.8667 46.1496 20.823C46.4112 20.7787 46.6127 20.7126 46.8743 20.6459C46.9349 20.624 46.9728 20.6016 47.0354 20.5798C47.1154 20.5404 47.1848 20.4794 47.2368 20.4027C47.2679 20.3593 47.288 20.3079 47.2951 20.2536C47.3021 20.1992 47.296 20.1438 47.2772 20.0928C47.2593 20.0048 47.22 19.9235 47.1633 19.8574C47.1067 19.7913 47.0348 19.7428 46.9551 19.7168C46.718 19.6355 46.4625 19.6432 46.2299 19.7387C46.1506 19.7704 46.0786 19.8206 46.019 19.8856C45.9595 19.9507 45.9138 20.029 45.8851 20.1152C45.8607 20.2315 45.8474 20.3502 45.8452 20.4694L44.0344 20.4256C44.0344 20.3814 44.0142 20.3595 44.0142 20.3152C43.9932 20.1065 44.0139 19.8953 44.0748 19.696C44.147 19.4387 44.2712 19.2019 44.4383 19.003C44.6055 18.804 44.8115 18.6478 45.0413 18.5456C45.2356 18.4559 45.4382 18.3888 45.6457 18.3456C46.3926 18.1943 47.1601 18.2094 47.9014 18.3899C48.1357 18.4355 48.3607 18.5258 48.5659 18.6566C48.7416 18.7587 48.8953 18.9 49.0168 19.0712C49.1383 19.2424 49.2249 19.4395 49.2708 19.6496C49.3519 19.9666 49.3925 20.2941 49.3915 20.623C49.3915 21.263 49.3915 21.8176 49.4117 22.4592C49.4319 22.9462 49.4319 23.3659 49.4723 23.8534C49.4925 24.0304 49.5324 24.1632 49.5526 24.3179H47.5368C47.4923 24.2592 47.4589 24.1916 47.4383 24.119C47.3984 23.9862 47.358 23.8758 47.3176 23.7206L47.1969 22.703C47.2733 22.5765 47.3215 22.4327 47.3378 22.2827C47.358 22.0769 47.358 21.8693 47.3378 21.6635C47.1008 21.7726 46.8588 21.8686 46.6127 21.951C46.4075 22.0116 46.2058 22.0855 46.0088 22.1723C45.9304 22.2161 45.8561 22.2681 45.7871 22.3275C45.7386 22.3783 45.7023 22.4411 45.6813 22.5105C45.6603 22.58 45.6551 22.6539 45.6664 22.7259C45.6861 22.8171 45.7277 22.901 45.7871 22.9691C45.8557 23.0555 45.9469 23.1172 46.0487 23.1462C46.1639 23.1946 46.2889 23.2098 46.4112 23.1904C46.5571 23.1669 46.6995 23.1222 46.8344 23.0576C46.9849 22.9919 47.112 22.8757 47.1969 22.7259L47.3176 23.7435C47.1303 23.9957 46.8878 24.1935 46.6122 24.319C46.2867 24.4562 45.9409 24.5285 45.5915 24.5323C45.3301 24.531 45.0703 24.4888 44.8201 24.407ZM32.696 24.407C32.4287 24.3221 32.188 24.1597 31.9998 23.9374C31.8117 23.7151 31.6832 23.4413 31.6285 23.1456C31.5815 22.9205 31.5746 22.6877 31.6083 22.4598C31.6395 22.1108 31.7905 21.7873 32.0314 21.5531C32.2063 21.3668 32.4208 21.23 32.6561 21.1547C32.9176 21.0662 33.1393 20.9995 33.4211 20.9334C33.6226 20.8891 33.8038 20.8667 34.0053 20.823C34.2669 20.7787 34.4684 20.7126 34.7304 20.6459C34.7905 20.624 34.829 20.6016 34.8915 20.5798C34.9716 20.5404 35.041 20.4794 35.093 20.4027C35.1242 20.3594 35.1443 20.308 35.1514 20.2536C35.1585 20.1992 35.1523 20.1438 35.1334 20.0928C35.1154 20.0048 35.0761 19.9235 35.0195 19.8574C34.9629 19.7913 34.891 19.7428 34.8112 19.7168C34.5741 19.6355 34.3186 19.6432 34.0861 19.7387C34.0072 19.7707 33.9357 19.821 33.8765 19.8861C33.8174 19.9511 33.7721 20.0293 33.7437 20.1152C33.7191 20.2315 33.7056 20.3501 33.7033 20.4694L31.89 20.4256C31.89 20.3814 31.8698 20.3595 31.8698 20.3152C31.8489 20.1065 31.8695 19.8953 31.9304 19.696C32.0026 19.4387 32.1268 19.2019 32.294 19.003C32.4612 18.804 32.6671 18.6478 32.8969 18.5456C33.0913 18.4558 33.2939 18.3888 33.5014 18.3456C34.2482 18.1943 35.0157 18.2094 35.757 18.3899C35.9915 18.4355 36.2167 18.5258 36.4221 18.6566C36.598 18.759 36.7518 18.9008 36.8733 19.0724C36.9948 19.2441 37.0813 19.4417 37.127 19.6523C37.2079 19.9693 37.2485 20.2967 37.2477 20.6256C37.2477 21.2656 37.2477 21.8203 37.2674 22.4619C37.2876 22.9488 37.2876 23.3686 37.328 23.856C37.349 24.0135 37.382 24.1689 37.4265 24.3206H35.4147C35.3701 24.2619 35.3366 24.1943 35.3161 24.1216C35.2758 23.9888 35.2354 23.8784 35.195 23.7232L35.0738 22.703C35.1501 22.5765 35.1984 22.4327 35.2147 22.2827C35.2348 22.0769 35.2348 21.8693 35.2147 21.6635C34.9777 21.7727 34.7356 21.8686 34.4895 21.951C34.2843 22.0116 34.0826 22.0855 33.8856 22.1723C33.8072 22.2161 33.733 22.2681 33.6639 22.3275C33.6155 22.3783 33.5792 22.4411 33.5581 22.5105C33.5371 22.58 33.532 22.6539 33.5432 22.7259C33.5629 22.8171 33.6046 22.901 33.6639 22.9691C33.7326 23.0556 33.824 23.1174 33.926 23.1462C34.0413 23.1946 34.1662 23.2099 34.2886 23.1904C34.4345 23.1669 34.5768 23.1222 34.7117 23.0576C34.8623 22.9919 34.9894 22.8757 35.0743 22.7259L35.195 23.7435C35.0072 23.9959 34.7642 24.1937 34.4881 24.319C34.1625 24.4562 33.8167 24.5285 33.4674 24.5323C33.2058 24.5311 32.9458 24.4889 32.6955 24.407H32.696ZM72.7344 24.4955C72.2282 24.4433 71.7462 24.2361 71.3447 23.8982C71.0141 23.6318 70.7395 23.2924 70.5393 22.9024C70.3815 22.6 70.2725 22.2707 70.2171 21.9286C70.1356 21.4499 70.1562 20.9573 70.2772 20.4886C70.3979 19.9542 70.6573 19.4684 71.0249 19.0886C71.3925 18.7088 71.8529 18.451 72.3516 18.3456C72.9177 18.2164 73.5037 18.2316 74.0634 18.3899C74.4674 18.4914 74.8371 18.7131 75.1309 19.0299C75.3243 19.216 75.4819 19.4416 75.5945 19.6939C75.735 19.9947 75.7976 20.331 75.7757 20.6672H73.9226C73.8837 20.4043 73.7541 20.1672 73.56 20.0038C73.4399 19.895 73.2902 19.8318 73.1339 19.8238C72.9775 19.8158 72.823 19.8635 72.694 19.9595C72.5126 20.0832 72.3771 20.2719 72.3112 20.4928C72.1537 21.0242 72.1468 21.5945 72.2915 22.1302C72.3459 22.3577 72.4574 22.5644 72.6137 22.7275C72.7005 22.8194 72.8053 22.8889 72.9204 22.931C73.0354 22.9731 73.1577 22.9867 73.2782 22.9707C73.4257 22.9474 73.5611 22.8691 73.661 22.7494C73.7676 22.6184 73.8375 22.4573 73.8624 22.2848C73.8858 22.1684 73.8994 22.0498 73.9028 21.9307H75.8565C75.8761 22.226 75.838 22.5224 75.7446 22.8007C75.6513 23.079 75.5048 23.3328 75.3147 23.5456C74.9312 24.0011 74.4229 24.3115 73.8644 24.431C73.6161 24.4882 73.3631 24.5179 73.1092 24.5195C72.9838 24.5189 72.8585 24.5108 72.7339 24.4955H72.7344ZM57.5491 24.4288C57.1587 24.3359 56.7934 24.1466 56.4817 23.8758C55.9923 23.4753 55.6445 22.9053 55.4964 22.2608C55.3939 21.8427 55.3605 21.4083 55.3979 20.9776C55.4446 20.2715 55.7316 19.6092 56.2033 19.119C56.6238 18.6502 57.1766 18.3466 57.7743 18.256C57.9734 18.2295 58.1737 18.2146 58.3743 18.2112C58.5764 18.2047 58.7787 18.2195 58.9782 18.2555C59.5857 18.3544 60.1495 18.6561 60.591 19.1184C61.0628 19.6087 61.3498 20.2709 61.3964 20.9771C61.4448 21.4076 61.4112 21.8443 61.2979 22.2603C61.1498 22.9048 60.8021 23.4748 60.3127 23.8752C60.0059 24.1546 59.6386 24.3449 59.2452 24.4283C58.967 24.4907 58.6835 24.5203 58.3994 24.5168C58.1137 24.5219 57.8283 24.4924 57.5487 24.4288H57.5491ZM57.7506 20.1366C57.6361 20.3069 57.5601 20.504 57.529 20.712C57.4618 21.1064 57.4549 21.51 57.5088 21.9067C57.5409 22.1048 57.595 22.298 57.6698 22.4822C57.7483 22.6791 57.8921 22.837 58.0728 22.9248C58.1697 22.9718 58.2742 22.9977 58.3804 23.0009C58.4866 23.0041 58.5923 22.9846 58.6914 22.9434C58.7906 22.9023 58.8813 22.8404 58.9583 22.7612C59.0354 22.6821 59.0972 22.5872 59.1403 22.4822C59.2214 22.3006 59.2757 22.1064 59.3014 21.9067C59.3653 21.5107 59.3584 21.1052 59.2812 20.712C59.2409 20.507 59.1658 20.3118 59.0595 20.1366C58.9893 20.0175 58.8925 19.9196 58.7781 19.8517C58.6636 19.7838 58.5353 19.7483 58.4048 19.7483C58.2744 19.7483 58.146 19.7838 58.0316 19.8517C57.9172 19.9196 57.8204 20.0175 57.7501 20.1366H57.7506ZM51.2043 24.2742C50.8642 24.1748 50.5526 23.9846 50.2979 23.7211C50.1026 23.5157 49.9513 23.2665 49.8546 22.991C49.7833 22.8092 49.7497 22.6128 49.7561 22.4155V22.2827H51.7294C51.733 22.3872 51.7465 22.4911 51.7698 22.5926C51.79 22.7178 51.8552 22.8292 51.9511 22.9024C52.0169 22.9664 52.0918 23.0187 52.1728 23.0571C52.3416 23.1437 52.5322 23.1672 52.7147 23.1238C52.8527 23.1032 52.9803 23.0332 53.0772 22.9248C53.1226 22.8723 53.1553 22.8084 53.1725 22.7389C53.1896 22.6695 53.1908 22.5965 53.1758 22.5264C53.1594 22.4612 53.129 22.4012 53.087 22.3512C53.0451 22.3012 52.9928 22.2628 52.9344 22.239C52.789 22.1917 52.6409 22.1548 52.491 22.1286C52.0679 22.0619 51.7058 21.9739 51.4033 21.9072C51.2032 21.8613 51.0075 21.7947 50.8191 21.7083C50.6293 21.6302 50.4575 21.5084 50.3153 21.3514C50.1732 21.1944 50.0643 21.006 49.996 20.799C49.8962 20.5716 49.8545 20.3195 49.8753 20.0688C49.8924 19.9194 49.9192 19.7715 49.9556 19.6262C50.0483 19.3136 50.2235 19.0372 50.4595 18.831C50.7379 18.5953 51.0611 18.4296 51.4058 18.3456C51.6548 18.2674 51.9117 18.2228 52.1708 18.2128C52.6224 18.1871 53.0752 18.2168 53.5206 18.3014C53.7142 18.3369 53.9035 18.3963 54.0846 18.4784C54.2669 18.5513 54.437 18.656 54.5881 18.7883C54.7663 18.9432 54.8992 19.1506 54.9708 19.3856C55.0515 19.6113 55.0924 19.8514 55.0915 20.0934H53.1782C53.1818 19.9764 53.1504 19.8613 53.0887 19.7652C53.027 19.6691 52.9383 19.5972 52.8359 19.56C52.6221 19.4754 52.3889 19.4678 52.1708 19.5382C52.1093 19.5512 52.0515 19.5801 52.0025 19.6225C51.9534 19.6648 51.9145 19.7193 51.8891 19.7814V19.8032C51.8755 19.835 51.8678 19.8695 51.8665 19.9045C51.8652 19.9395 51.8704 19.9745 51.8816 20.0074C51.8928 20.0403 51.9099 20.0705 51.9319 20.0962C51.9539 20.1219 51.9803 20.1427 52.0097 20.1574C52.0559 20.175 52.1029 20.1898 52.1506 20.2016C52.2492 20.224 52.3521 20.2459 52.4728 20.2683C52.8885 20.33 53.2992 20.4261 53.7014 20.5558C53.7822 20.5782 53.8423 20.6 53.923 20.6224C54.2602 20.7194 54.5709 20.9022 54.8294 21.1558C55.0184 21.3409 55.1576 21.5779 55.2324 21.8416C55.3379 22.1888 55.3444 22.5623 55.251 22.9136C55.1576 23.2648 54.9686 23.5774 54.7088 23.8107C54.5891 23.9122 54.4609 24.0015 54.326 24.0774C54.0274 24.2605 53.6994 24.3806 53.3595 24.4315C53.1042 24.4694 52.8468 24.4888 52.5891 24.4896C52.1204 24.4884 51.6543 24.4159 51.2043 24.2742ZM25.123 24.3403V15.999H28.8891C29.0298 15.9953 29.1705 16.0026 29.3102 16.0208C29.7884 16.0454 30.2508 16.2136 30.6456 16.5067C31.0405 16.7997 31.3521 17.206 31.5457 17.68C31.7649 18.1674 31.8487 18.7132 31.7871 19.2512C31.7364 19.822 31.52 20.3606 31.1691 20.79C30.8181 21.2193 30.3505 21.5173 29.8334 21.6411C29.4962 21.7216 29.1515 21.7587 28.8063 21.7515H27.4191V24.3403H25.123ZM27.4191 19.807H28.325C28.4864 19.8112 28.6478 19.8039 28.8083 19.7851C28.9219 19.7784 29.0329 19.7454 29.1338 19.6881C29.2346 19.6309 29.3228 19.5508 29.3925 19.4534C29.4679 19.3511 29.5165 19.2288 29.5334 19.0992C29.5535 18.9897 29.5535 18.877 29.5334 18.7675C29.519 18.5597 29.4317 18.3657 29.2895 18.2253C29.1472 18.0849 28.9608 18.0087 28.7684 18.0123H27.4191V19.807ZM67.8625 24.3206V18.3664H69.8767V24.319L67.8625 24.3206ZM65.2644 24.3206V20.8667C65.2602 20.754 65.2459 20.642 65.2216 20.5323C65.1973 20.4389 65.1539 20.3527 65.0946 20.2799C65.0353 20.2072 64.9617 20.1498 64.8792 20.112C64.6954 20.0261 64.4886 20.017 64.299 20.0865C64.1093 20.1559 63.9501 20.299 63.8521 20.488C63.7723 20.6437 63.7308 20.8188 63.7314 20.9968V24.319H61.657V18.3664H63.6107L63.6511 19.0064C63.8985 18.7551 64.1848 18.5529 64.4969 18.4091C64.9919 18.1455 65.5616 18.0979 66.0881 18.2763C66.3752 18.3651 66.6368 18.5316 66.8481 18.76C67.0595 18.9884 67.2138 19.2712 67.2964 19.5819C67.3758 19.8765 67.4165 20.1817 67.4171 20.4886V24.319L65.2644 24.3206ZM41.358 24.3206V20.8667C41.3545 20.755 41.341 20.6439 41.3176 20.535C41.2933 20.4416 41.2499 20.3554 41.1907 20.2826C41.1314 20.2099 41.0578 20.1525 40.9753 20.1147C40.7914 20.0288 40.5847 20.0197 40.395 20.0891C40.2053 20.1586 40.0461 20.3016 39.9482 20.4907C39.8684 20.6463 39.8269 20.8215 39.8275 20.9995V24.319H37.7304V18.3664H39.6841L39.7245 19.0064C39.9719 18.7551 40.2582 18.5529 40.5703 18.4091C41.0653 18.1455 41.635 18.0979 42.1615 18.2763C42.4486 18.3651 42.7102 18.5316 42.9215 18.76C43.1329 18.9884 43.2872 19.2712 43.3698 19.5819C43.4492 19.8765 43.4899 20.1817 43.4905 20.4886V24.319L41.358 24.3206ZM67.8605 17.5723V15.999H69.8748V17.5696L67.8605 17.5723Z" fill="#F2F2F2"/>
</g>
<defs>
<clipPath id="clip0_22469_947474">
<rect width="50.7384" height="8.53333" fill="white" transform="translate(25.123 16)"/>
</clipPath>
</defs>
</svg>
