<?xml version="1.0" encoding="UTF-8"?>
<svg width="68px" height="16px" viewBox="0 0 68 16" version="1.1" xmlns="http://www.w3.org/2000/svg" xmlns:xlink="http://www.w3.org/1999/xlink">
    <!-- Generator: Sketch 63.1 (92452) - https://sketch.com -->
    <title>Payment Systems / Pay Online</title>
    <desc>Created with Sketch.</desc>
    <g id="Footer" stroke="none" stroke-width="1" fill="none" fill-rule="evenodd">
        <g id="[PROD-812]-Desktop" transform="translate(-443.000000, -883.000000)" fill="#757D8A">
            <g id="Group-11" transform="translate(388.000000, 847.000000)">
                <g id="Payment-Systems-/-Pay-Online" transform="translate(55.000000, 36.479339)">
                    <g id="Group-17">
                        <path d="M5.21396196,5.71190103 C4.85491257,5.23996983 4.38101315,5.00385956 3.79197754,5.00385956 C3.45982823,5.00385956 3.12767892,5.10088854 2.79572039,5.29456069 C2.46357108,5.48832929 2.21174047,5.72405376 2.04051474,6.00231281 L2.04051474,9.10685426 C2.21174047,9.3851133 2.4663374,9.62112713 2.80373318,9.81489573 C3.14122435,10.0085679 3.47060734,10.1053075 3.79197754,10.1053075 C4.38101315,10.1053075 4.85491257,9.86939014 5.21396196,9.39726604 C5.57272519,8.92533484 5.75224989,8.30805308 5.75224989,7.54551721 C5.75224989,6.79503762 5.57272519,6.18412158 5.21396196,5.71190103 L5.21396196,5.71190103 Z M1.90780764e-05,14.4592658 L1.90780764e-05,3.62298097 L2.04051474,3.62298097 L2.04051474,4.61400755 C2.34032671,4.23495797 2.69660978,3.94252073 3.10917319,3.73669585 C3.52135503,3.53116031 3.96320328,3.42795852 4.43471793,3.42795852 C5.09873038,3.42795852 5.69043692,3.59105593 6.21012372,3.91647916 C6.72961974,4.24219174 7.13655511,4.71421938 7.43131139,5.33265855 C7.72587689,5.95129061 7.87325503,6.68923167 7.87325503,7.54648171 C7.87325503,8.40392466 7.72587689,9.14446987 7.43131139,9.76850315 C7.13655511,10.3923435 6.72961974,10.8673611 6.21012372,11.1927844 C5.69043692,11.5182076 5.09873038,11.6812086 4.43471793,11.6812086 C3.96320328,11.6812086 3.52412135,11.5809967 3.11718598,11.380573 C2.70986905,11.1803423 2.35110582,10.8798032 2.04051474,10.4789559 L2.04051474,14.4592658 L1.90780764e-05,14.4592658 Z" id="Fill-1"></path>
                        <path d="M13.7377985,8.67887546 C13.5771611,8.48192399 13.3494642,8.32933966 13.0549941,8.22092955 C12.7602378,8.11261589 12.441634,8.05821794 12.0988963,8.05821794 C11.6810865,8.05821794 11.3329116,8.15698302 11.054467,8.35403093 C10.7758317,8.55098239 10.6367526,8.81216974 10.6367526,9.13711071 C10.6367526,9.46253394 10.7758317,9.71860942 11.054467,9.9058194 C11.3329116,10.0931258 11.6810865,10.1864897 12.0988963,10.1864897 C12.441634,10.1864897 12.7602378,10.1323811 13.0549941,10.0240674 C13.3494642,9.91565733 13.5771611,9.76278365 13.7377985,9.56583219 L13.7377985,8.67887546 Z M13.7377985,10.6576493 C13.4699423,10.9718843 13.1192872,11.2209189 12.6854518,11.4050425 C12.2516163,11.5890696 11.782868,11.6811796 11.2794929,11.6811796 C10.8401248,11.6811796 10.4143022,11.5831861 10.0021203,11.3879708 C9.58955694,11.1925625 9.24939484,10.8962673 8.98182482,10.4997602 C8.71387323,10.1032531 8.58013592,9.62775326 8.58013592,9.07335708 C8.58013592,8.49764539 8.71387323,8.02243488 8.98182482,7.64753266 C9.24939484,7.27282335 9.58679062,6.99842231 9.99401216,6.82452247 C10.4010429,6.65071907 10.8296319,6.56352802 11.2794929,6.56352802 C11.80414,6.56352802 12.2809966,6.64483561 12.7094902,6.80725787 C13.137793,6.96968013 13.4808168,7.20810521 13.7377985,7.52214731 L13.7377985,6.41605555 C13.7377985,5.96138896 13.5824075,5.59892882 13.2718165,5.3283858 C12.9610346,5.05803568 12.5487574,4.92271594 12.0346986,4.92271594 C11.1882997,4.92271594 10.4330941,5.23135682 9.76908164,5.84873503 L8.9978504,4.5203254 C9.45829977,4.15632206 9.98046672,3.88317488 10.5644466,3.70117321 C11.1482358,3.51917154 11.7559679,3.42802603 12.3882154,3.42802603 C13.3843771,3.42802603 14.1982479,3.6610499 14.8303999,4.12661537 C15.4623612,4.5924702 15.7784849,5.35066581 15.7784849,6.40110576 L15.7784849,11.4699535 L13.7377985,11.4699535 L13.7377985,10.6576493 Z" id="Fill-3"></path>
                        <path d="M18.1565004,13.0783776 C18.4349449,13.0783776 18.6598754,13.0336247 18.8312919,12.944794 C19.0025177,12.855481 19.1366365,12.7052115 19.2330762,12.493696 L19.5222045,11.8088991 L16.3729864,3.62297133 L18.5581893,3.62297133 L20.5827547,9.08167109 L22.6073202,3.62297133 L24.8085487,3.62297133 L21.161202,12.7534366 C20.8932504,13.4464318 20.5184616,13.9313838 20.036454,14.207521 C19.554351,14.4836581 18.9490991,14.6323844 18.2207935,14.6542786 C18.070649,14.6542786 17.8938906,14.6448265 17.6905184,14.6264045 C17.4868599,14.6075003 17.3262225,14.5844486 17.2085108,14.5565745 L17.5138554,12.9483626 C17.7065439,13.034975 17.9206953,13.0783776 18.1565004,13.0783776" id="Fill-5"></path>
                        <path d="M30.4561744,9.37013458 C30.815033,8.87997428 30.9945577,8.27166239 30.9945577,7.54548827 C30.9945577,6.83165979 30.815033,6.22942427 30.4561744,5.73926397 C30.097125,5.24910367 29.6126372,5.00383063 29.0020434,5.00383063 C28.3914496,5.00383063 27.909442,5.24910367 27.5560206,5.73926397 C27.2025038,6.22942427 27.0257455,6.83165979 27.0257455,7.54548827 C27.0257455,8.27166239 27.2025038,8.87997428 27.5560206,9.37013458 C27.909442,9.86029487 28.3914496,10.1052786 29.0020434,10.1052786 C29.6126372,10.1052786 30.097125,9.86029487 30.4561744,9.37013458 M26.8329615,11.1278444 C26.2114932,10.7586327 25.7348274,10.2596955 25.4028689,9.63006807 C25.0707196,9.00082647 24.9048357,8.30628804 24.9048357,7.54645278 C24.9048357,6.79761284 25.0707196,6.10866853 25.4028689,5.47913758 C25.7348274,4.84989599 26.2114932,4.35076581 26.8329615,3.98165061 C27.4539529,3.61263186 28.177012,3.42802603 29.0020434,3.42802603 C29.8376631,3.42802603 30.5658733,3.61263186 31.1872463,3.98165061 C31.8084284,4.35076581 32.2851896,4.84989599 32.6173389,5.47913758 C32.9492974,6.10866853 33.1154674,6.79761284 33.1154674,7.54645278 C33.1154674,8.30628804 32.9492974,9.00082647 32.6173389,9.63006807 C32.2851896,10.2596955 31.8084284,10.7586327 31.1872463,11.1278444 C30.5658733,11.4966702 29.8376631,11.6811796 29.0020434,11.6811796 C28.177012,11.6811796 27.4539529,11.4966702 26.8329615,11.1278444" id="Fill-8"></path>
                        <path d="M39.5423849,6.5273013 C39.5423849,5.98582946 39.4191405,5.5966526 39.1728425,5.35957782 C38.9262584,5.12250304 38.5727416,5.00386921 38.1123877,5.00386921 C37.7372173,5.00386921 37.3973414,5.09713662 37.0920921,5.2831892 C36.7867475,5.46943468 36.5376832,5.69792538 36.3448039,5.96875776 L36.3448039,11.4699921 L34.3043082,11.4699921 L34.3043082,3.62299062 L36.3448039,3.62299062 L36.3448039,4.64652094 C36.6232484,4.31097043 36.9981326,4.02383796 37.4696473,3.78541288 C37.9408758,3.5473736 38.4711509,3.42796816 39.0602819,3.42796816 C39.8959016,3.42796816 40.5250012,3.65018959 40.9482483,4.09405376 C41.3714001,4.53840018 41.5830713,5.15018427 41.5830713,5.92998475 L41.5830713,11.4699921 L39.5423849,11.4699921 L39.5423849,6.5273013 Z" id="Fill-10"></path>
                        <polygon id="Fill-12" points="43.2860567 11.4700596 45.3266478 11.4700596 45.3266478 0.633678307 43.2860567 0.633678307"></polygon>
                        <path d="M47.0297477,11.4699632 L49.0703387,11.4699632 L49.0703387,3.62296168 L47.0297477,3.62296168 L47.0297477,11.4699632 Z M47.1823723,2.1039663 C46.9414162,1.86023646 46.8208427,1.57059628 46.8208427,1.23475642 C46.8208427,0.899205914 46.9414162,0.609276388 47.1823723,0.365546542 C47.4233284,0.121913148 47.7098811,0 48.0420304,0 C48.384768,0 48.6739917,0.119405441 48.9096059,0.35754117 C49.1451248,0.595773349 49.2631227,0.888210583 49.2631227,1.23475642 C49.2631227,1.57059628 49.1451248,1.86023646 48.9096059,2.1039663 C48.6739917,2.34759969 48.384768,2.46951284 48.0420304,2.46951284 C47.7098811,2.46951284 47.4233284,2.34759969 47.1823723,2.1039663 L47.1823723,2.1039663 Z" id="Fill-14"></path>
                        <path d="M56.0115725,6.5273013 C56.0115725,5.98582946 55.8883281,5.5966526 55.6420301,5.35957782 C55.395446,5.12250304 55.0419292,5.00386921 54.5815753,5.00386921 C54.2064049,5.00386921 53.866529,5.09713662 53.5612797,5.2831892 C53.2559351,5.46943468 53.0068708,5.69792538 52.8139915,5.96875776 L52.8139915,11.4699921 L50.7734958,11.4699921 L50.7734958,3.62299062 L52.8139915,3.62299062 L52.8139915,4.64652094 C53.092436,4.31097043 53.4673202,4.02383796 53.9388349,3.78541288 C54.4100634,3.5473736 54.9403385,3.42796816 55.5294695,3.42796816 C56.3650892,3.42796816 56.9941888,3.65018959 57.4174359,4.09405376 C57.8405877,4.53840018 58.0522589,5.15018427 58.0522589,5.92998475 L58.0522589,11.4699921 L56.0115725,11.4699921 L56.0115725,6.5273013 Z" id="Fill-15"></path>
                        <path d="M61.9243835,5.46568277 C61.6030133,5.82766065 61.4194822,6.24220393 61.3740763,6.70969841 L65.1861622,6.70969841 C65.1540156,6.25339216 64.9797374,5.84145304 64.6639952,5.47378459 C64.3478715,5.10640549 63.8846558,4.92266772 63.274062,4.92266772 C62.6956147,4.92266772 62.2457537,5.10370488 61.9243835,5.46568277 M59.7713271,5.47098753 C60.1139694,4.8470507 60.5908259,4.35071759 61.2013244,3.98160238 C61.8119182,3.61258363 62.5028307,3.42797781 63.274062,3.42797781 C64.0345141,3.42797781 64.709401,3.60949722 65.2986274,3.97234316 C65.887663,4.33528554 66.3456323,4.84425365 66.6724397,5.49944036 C66.9990564,6.15491643 67.1624601,6.90472087 67.1624601,7.74962528 L67.1624601,8.20448478 L61.3941083,8.20448478 C61.4584014,8.77084079 61.6885784,9.24267554 62.0851162,9.62018192 C62.4812725,9.99788119 62.9954267,10.1864415 63.6275787,10.1864415 C64.0023675,10.1864415 64.3800181,10.1162257 64.7603395,9.97531183 C65.1404702,9.83468733 65.4538276,9.64506609 65.7003163,9.40664101 L66.6001338,10.6896226 C66.2145659,11.0153351 65.7405711,11.2620549 65.178054,11.4295891 C64.6158231,11.5971232 64.023735,11.6811314 63.4026482,11.6811314 C62.6206379,11.6811314 61.9136043,11.5101251 61.2817385,11.1684017 C60.649491,10.8266784 60.1541287,10.3436554 59.7954609,9.71962215 C59.4364115,9.09578177 59.257173,8.37153665 59.257173,7.54640455 C59.257173,6.78695509 59.4283987,6.09492436 59.7713271,5.47098753" id="Fill-16"></path>
                    </g>
                </g>
            </g>
        </g>
    </g>
</svg>