<svg width="100" height="40" viewBox="0 0 100 40" fill="none" xmlns="http://www.w3.org/2000/svg">
<rect width="100" height="40" rx="2" fill="#1D1F23"/>
<path d="M42.6226 16.1807H39.9909V19.6138H37.2504V16.1807H34.6172V24.8185H37.2504V21.4202H39.9909V24.8185H42.6226V16.1807Z" fill="white"/>
<path d="M51.78 23.0834V16.1807H49.1484V24.8185H53.9087L54.3029 23.0834H51.78Z" fill="white"/>
<rect x="44.5684" y="16.1807" width="2.63306" height="8.63785" fill="white"/>
<rect x="55.2422" y="16.1807" width="2.63269" height="8.63785" fill="white"/>
<path d="M70.8559 18.3858C70.8559 17.9167 71.3249 17.6982 72.0814 17.6982C72.9094 17.6982 73.8107 17.8799 74.4242 18.1325L74.2067 16.2541C73.5227 16.1084 72.9094 16 71.7911 16C69.6655 16 68.2229 16.8407 68.2229 18.6014C68.2229 21.6388 72.3334 21.0227 72.3334 22.4331C72.3334 22.9755 71.9368 23.2639 70.9628 23.2639C70.098 23.2639 68.7631 22.9755 67.9707 22.5777L68.2585 24.5653C69.0521 24.8543 70.1346 25 71.0002 25C73.1986 25 75.0004 24.2761 75.0004 22.1088C75.0004 19.2168 70.8559 19.759 70.8559 18.3858Z" fill="white"/>
<path fill-rule="evenodd" clip-rule="evenodd" d="M67.4272 19.2876C67.4272 21.4933 65.877 22.7577 63.4273 22.7577H62.4889V24.8189H59.8555V16.181C60.7566 16.0715 62.0181 16 63.0649 16C65.7703 16 67.4272 16.8665 67.4272 19.2876ZM62.9205 21.2041C64.291 21.2041 64.8313 20.4454 64.8313 19.3247C64.8313 18.2404 64.2177 17.6266 62.9205 17.6266C62.7851 17.6266 62.642 17.6266 62.4888 17.6356V21.2041H62.9205Z" fill="white"/>
<path fill-rule="evenodd" clip-rule="evenodd" d="M33.5712 19.2876C33.5712 21.4933 32.0209 22.7577 29.5697 22.7577H28.6315V24.8189H26V16.181C26.9024 16.0715 28.1641 16 29.2084 16C31.914 16 33.5712 16.8665 33.5712 19.2876ZM29.0648 21.2041C30.435 21.2041 30.9756 20.4454 30.9756 19.3247C30.9756 18.2404 30.362 17.6266 29.0648 17.6266C28.9294 17.6266 28.7846 17.6266 28.6313 17.6356V21.2041H29.0648Z" fill="white"/>
</svg>
