<svg width="100" height="40" viewBox="0 0 100 40" fill="none" xmlns="http://www.w3.org/2000/svg">
<path d="M100 0H0V40H100V0Z" fill="#1D1F23"/>
<g clip-path="url(#clip0_22469_947549)">
<path fill-rule="evenodd" clip-rule="evenodd" d="M34.1415 24.8266C32.7745 24.8266 31.6635 23.5607 31.6635 22.0041C31.6635 20.4475 32.7745 19.1816 34.1415 19.1816C35.5061 19.1816 36.6183 20.4475 36.6183 22.0041C36.6183 23.5607 35.5061 24.8266 34.1415 24.8266ZM34.1415 17.8779C32.1442 17.8779 30.5207 19.7298 30.5207 22.0041C30.5207 24.2784 32.1442 26.129 34.1415 26.129C36.1365 26.129 37.7611 24.2777 37.7611 22.0041C37.7611 19.7298 36.1365 17.8779 34.1415 17.8779ZM52.0744 24.8266C50.7091 24.8266 49.5975 23.5607 49.5975 22.0041V22.0015C49.5993 20.4462 50.7097 19.1816 52.0744 19.1816C53.4408 19.1816 54.5518 20.4475 54.5518 22.0041C54.5518 23.5607 53.4408 24.8266 52.0744 24.8266ZM52.0744 17.8779C51.2898 17.8757 50.5265 18.1661 49.9032 18.7037L49.597 19.2174V14.7307H49.5993C49.5993 14.5508 49.471 14.4048 49.3127 14.4048H48.7407C48.703 14.405 48.6657 14.4137 48.631 14.4302C48.5962 14.4467 48.5647 14.4708 48.5382 14.5011C48.5117 14.5313 48.4907 14.5672 48.4765 14.6066C48.4623 14.646 48.4551 14.6882 48.4553 14.7307V22.0041C48.4553 24.2784 50.0788 26.129 52.0744 26.129C54.0717 26.129 55.6952 24.2777 55.6952 22.0041C55.6952 19.7298 54.0717 17.8779 52.0744 17.8779ZM69.6953 24.8266C68.3289 24.8266 67.2179 23.5607 67.2179 22.0041C67.2179 20.4475 68.3289 19.1816 69.6953 19.1816C71.0605 19.1816 72.1715 20.4475 72.1715 22.0041C72.1715 23.5607 71.0605 24.8266 69.6953 24.8266ZM69.6953 17.8779C67.6986 17.8779 66.0751 19.7298 66.0751 22.0041C66.0751 24.2784 67.6986 26.129 69.6953 26.129C70.4797 26.1314 71.243 25.8415 71.8665 25.3044L72.1727 24.8468V25.8031H72.1715C72.1715 25.983 72.2998 26.129 72.4575 26.129H73.0295C73.1057 26.1285 73.1786 26.0939 73.2322 26.0328C73.2858 25.9717 73.3158 25.8891 73.3155 25.8031V22.0041C73.3155 19.7278 71.6908 17.8779 69.6953 17.8779ZM45.0125 17.8785C44.6823 17.8781 44.3554 17.953 44.0515 18.0987C43.7476 18.2445 43.4729 18.458 43.244 18.7266L43.1082 19.1398L42.9719 18.7266C42.7429 18.4579 42.4682 18.2442 42.1642 18.0985C41.8601 17.9527 41.5331 17.8779 41.2028 17.8785C39.837 17.8785 38.7254 19.1444 38.7254 20.701V25.8031C38.7254 25.983 38.8536 26.129 39.0114 26.129H39.5833C39.6596 26.1285 39.7325 26.0939 39.7861 26.0328C39.8397 25.9717 39.8696 25.8891 39.8693 25.8031H39.8682V20.7004C39.8682 19.8634 40.4673 19.1816 41.2028 19.1816C41.9377 19.1816 42.5357 19.8634 42.5362 20.7004V25.8031H42.5357C42.5357 25.983 42.6639 26.129 42.8217 26.129H43.3936C43.4698 26.1285 43.5428 26.0939 43.5964 26.0328C43.65 25.9717 43.6799 25.8891 43.6796 25.8031V20.7004C43.6796 19.8634 44.2782 19.1816 45.0125 19.1816C45.3684 19.1816 45.7041 19.3393 45.956 19.6274C46.0804 19.7685 46.179 19.9359 46.246 20.12C46.3131 20.3041 46.3472 20.5013 46.3465 20.7004V25.8031C46.3465 25.983 46.4748 26.129 46.6319 26.129H47.2039C47.2417 26.1288 47.279 26.1203 47.3138 26.1038C47.3487 26.0873 47.3803 26.0632 47.4068 26.033C47.4334 26.0027 47.4544 25.9668 47.4687 25.9273C47.4829 25.8879 47.4901 25.8457 47.4899 25.8031V20.7004C47.4899 19.1444 46.3795 17.8779 45.0125 17.8779V17.8785ZM62.2521 19.1796C62.8726 19.1796 63.4711 19.4514 63.9276 19.9292C63.9276 19.9292 63.983 19.9762 64.0385 20.0101C64.0951 20.044 64.1956 20.0492 64.1956 20.0492H64.919C64.919 20.0492 65.0819 20.0609 65.1749 19.8693C65.268 19.6776 65.1437 19.5205 65.1437 19.5205C64.8085 19.0115 64.3724 18.5979 63.8704 18.3127C63.3683 18.0275 62.8142 17.8786 62.2521 17.8779C60.2559 17.8779 58.6325 19.7285 58.6325 22.0028V22.0041C58.6325 24.2784 60.2559 26.129 62.2521 26.129C62.8142 26.1282 63.3683 25.9793 63.8704 25.6941C64.3724 25.4089 64.8085 24.9953 65.1437 24.4863C65.1437 24.4863 65.268 24.3286 65.1749 24.1382C65.0825 23.9459 64.919 23.9583 64.919 23.9583H64.1962C64.1962 23.9583 64.0957 23.9629 64.0391 23.9968C64.0005 24.0208 63.9634 24.0478 63.9281 24.0776C63.4735 24.5571 62.875 24.8249 62.2527 24.8272C60.8863 24.8272 59.7758 23.56 59.7758 22.0041V22.0028C59.7758 20.4468 60.8863 19.1803 62.2527 19.1803L62.2521 19.1796ZM57.6676 15.056C57.6681 14.8842 57.6081 14.7192 57.5009 14.5972C57.3936 14.4753 57.2479 14.4063 57.0956 14.4054C56.9436 14.4066 56.7982 14.4758 56.6913 14.5977C56.5845 14.7197 56.5248 14.8845 56.5254 15.056V15.3819H56.5248C56.5248 15.5625 56.6519 15.7078 56.8108 15.7078H57.3828C57.459 15.7073 57.5319 15.6727 57.5855 15.6116C57.6391 15.5505 57.6691 15.4679 57.6688 15.3819H57.6682V15.056H57.6676ZM57.6688 18.2038C57.6688 18.0239 57.5405 17.8779 57.3828 17.8779H56.8108C56.7731 17.878 56.7357 17.8866 56.701 17.9031C56.6662 17.9196 56.6346 17.9437 56.6081 17.9739C56.5816 18.0042 56.5606 18.0401 56.5464 18.0796C56.5322 18.119 56.5251 18.1612 56.5254 18.2038V25.8031C56.5254 25.983 56.6525 26.129 56.8108 26.129H57.3828C57.459 26.1285 57.5319 26.0939 57.5855 26.0328C57.6391 25.9717 57.6691 25.8891 57.6688 25.8031H57.6682V18.2038H57.6688ZM29.7581 17.8785H29.0965C27.7302 17.8785 26.6191 19.1444 26.6191 20.701V25.8031C26.6191 25.983 26.7468 26.129 26.9046 26.129H27.4765C27.5527 26.1285 27.6256 26.0939 27.6793 26.0328C27.7329 25.9717 27.7628 25.8891 27.7625 25.8031V20.7004C27.7625 19.8634 28.3605 19.1816 29.096 19.1816H29.7575C29.8337 19.181 29.9066 19.1464 29.9602 19.0853C30.0139 19.0242 30.0438 18.9416 30.0435 18.8556V18.2038C30.0435 18.0239 29.9152 17.8779 29.7575 17.8779" fill="#F2F2F2"/>
</g>
<defs>
<clipPath id="clip0_22469_947549">
<rect width="46.798" height="11.7333" fill="white" transform="translate(26.6016 14.3999)"/>
</clipPath>
</defs>
</svg>
