<svg width="100" height="40" viewBox="0 0 100 40" fill="none" xmlns="http://www.w3.org/2000/svg">
<rect width="100" height="40" rx="2" fill="#1D1F23"/>
<path d="M67.2105 22.1003L67.1114 16.2358H68.9149V23.628H66.3218L64.5212 17.562H64.4819L64.5824 23.628H62.7891V16.2358H65.4958L67.1711 22.1003H67.2105Z" fill="white"/>
<path d="M34.4192 16.9288L33.4213 23.7057H31.4531L32.8036 16.2358H36.045L37.3911 23.7057H35.4302L34.46 16.9288H34.4192Z" fill="white"/>
<path d="M42.915 21.9465L43.8154 16.2358H46.7872L46.9446 23.7057H45.1236L45.0755 16.99H45.0376L43.8197 23.7057H41.971L40.7517 16.99H40.7123L40.6672 23.7057H38.8418L39.0035 16.2358H41.9769L42.8757 21.9465H42.915Z" fill="white"/>
<path d="M28.3842 21.5987C28.4556 21.7794 28.4337 22.0123 28.4002 22.1527C28.339 22.4006 28.1744 22.6545 27.6907 22.6545C27.2333 22.6545 26.9565 22.3857 26.9565 21.9765V21.2537H25.0015L25 21.8316C25 23.4967 26.2791 24 27.6499 24C28.9684 24 30.0537 23.5385 30.2256 22.2931C30.3144 21.6479 30.2474 21.2253 30.2183 21.0655C29.9109 19.502 27.1444 19.0345 26.939 18.1609C26.9041 18.0116 26.9143 17.8518 26.9317 17.7667C26.9827 17.5292 27.1415 17.2664 27.5975 17.2664C28.0229 17.2664 28.2749 17.5367 28.2749 17.9444C28.2749 18.0818 28.2749 18.4058 28.2749 18.4058H30.0916V17.8817C30.0916 16.2539 28.6668 16 27.6354 16C26.3388 16 25.2797 16.4391 25.086 17.6547C25.0335 17.9907 25.0262 18.2893 25.102 18.6642C25.421 20.1889 28.0083 20.6309 28.3842 21.5987Z" fill="white"/>
<path d="M52.0787 21.5864C52.1501 21.7656 52.1268 21.9926 52.0947 22.133C52.035 22.3809 51.8718 22.6303 51.3911 22.6303C50.9409 22.6303 50.6656 22.3615 50.6656 21.9612L50.6641 21.2444H48.7295L48.7266 21.8149C48.7266 23.4636 49.994 23.9609 51.3503 23.9609C52.6541 23.9609 53.7293 23.5054 53.8997 22.2719C53.9886 21.6312 53.9259 21.2145 53.8939 21.0577C53.5879 19.5091 50.8506 19.0462 50.6466 18.18C50.6117 18.0307 50.6219 17.8739 50.6394 17.7932C50.6918 17.5528 50.8477 17.2974 51.2993 17.2974C51.7218 17.2974 51.968 17.5603 51.968 17.9665C51.968 18.1024 51.968 18.4234 51.968 18.4234H53.7715V17.9037C53.7715 16.2939 52.3584 16.0415 51.3357 16.0415C50.0537 16.0415 49.0034 16.4746 48.814 17.6827C48.7615 18.0142 48.7557 18.307 48.8315 18.6803C49.1447 20.1901 51.7072 20.6291 52.0787 21.5864Z" fill="white"/>
<path d="M58.1997 22.5887C58.7052 22.5887 58.8626 22.2303 58.8975 22.0466C58.9121 21.966 58.9165 21.8585 58.915 21.7614V16.2329H60.7579V21.5911C60.7623 21.7285 60.7492 22.0108 60.7419 22.081C60.6122 23.4758 59.5371 23.9283 58.1983 23.9283C56.858 23.9283 55.7814 23.4758 55.6532 22.081C55.6473 22.0108 55.6342 21.727 55.6371 21.5911V16.2329H57.4786V21.7599C57.4786 21.857 57.4815 21.966 57.4961 22.0451C57.5369 22.2288 57.6898 22.5887 58.1997 22.5887Z" fill="white"/>
<path d="M73.4018 22.51C73.9291 22.51 74.1142 22.168 74.1477 21.9694C74.1608 21.8843 74.1652 21.7797 74.1637 21.6856V20.6015H73.4163V19.5113H76.0007V21.5169C75.9993 21.6573 75.9964 21.7603 75.9745 22.0097C75.8536 23.3687 74.7027 23.854 73.412 23.854C72.1183 23.854 70.9704 23.3687 70.8465 22.0097C70.8261 21.7603 70.8232 21.6573 70.8203 21.5169L70.8218 18.3718C70.8218 18.2389 70.8378 18.0045 70.8524 17.879C71.0141 16.4827 72.1183 16.0332 73.412 16.0332C74.7042 16.0332 75.8361 16.4797 75.9701 17.879C75.9934 18.1165 75.9862 18.3718 75.9862 18.3718V18.6212H74.1491V18.2031C74.1506 18.2046 74.1462 18.0254 74.1258 17.9193C74.0952 17.7536 73.9554 17.3743 73.3989 17.3743C72.8671 17.3743 72.7127 17.7327 72.6734 17.9193C72.6515 18.0179 72.6428 18.1508 72.6428 18.2718V21.6886C72.6413 21.7827 72.6472 21.8873 72.6617 21.9724C72.6909 22.168 72.8744 22.51 73.4018 22.51Z" fill="white"/>
</svg>
