<svg width="100" height="40" viewBox="0 0 100 40" fill="none" xmlns="http://www.w3.org/2000/svg">
<rect width="100" height="40" rx="2" fill="#1D1F23"/>
<path fill-rule="evenodd" clip-rule="evenodd" d="M39.0319 19.9929C39.0319 20.9598 39.3741 21.8992 40.0863 22.5908C41.029 23.5063 42.4413 23.9999 43.9628 24V23.9999C45.4881 23.9999 46.9301 23.5122 47.8477 22.5908C48.528 21.9078 48.8877 20.9203 48.8877 19.993C48.8877 19.0363 48.5487 18.0946 47.8477 17.4062C46.8623 16.4389 45.5733 16 43.9628 16C42.5075 16 40.9617 16.5406 40.0862 17.4039C39.3889 18.0918 39.0319 19.0378 39.0319 19.9929ZM43.9628 22.9448V22.9449C43.1614 22.9449 42.3966 22.6365 41.8797 22.0801C41.3849 21.5477 41.1201 20.7934 41.1201 19.9929C41.1201 19.1899 41.3819 18.4352 41.8797 17.9016C42.3962 17.3484 43.1637 17.0421 43.9628 17.0421C44.7594 17.0421 45.5264 17.3516 46.0425 17.9016C46.543 18.4354 46.8041 19.1879 46.8041 19.9929C46.8041 20.8331 46.562 21.5207 46.0425 22.08C45.5194 22.6431 44.7703 22.9448 43.9628 22.9448ZM29 18.4039C29 17.4655 29.5935 16.8994 30.3185 16.5494C31.1041 16.1698 32.0287 16.0051 32.8424 16.0051C34.2783 16.0072 35.4496 16.5145 35.8639 16.7497C36.0289 16.8478 36.1162 16.729 36.1162 16.6376V16.3544H37.0419V18.7911H36.2129C36.1234 18.3405 35.8759 18.0174 35.6997 17.8619C35.5435 17.724 35.3468 17.6073 35.1787 17.5261C34.6845 17.2871 33.9076 17.0602 32.9902 17.0638C32.2142 17.0638 31.4697 17.2191 31.1012 17.4689C30.869 17.6261 30.7515 17.8207 30.7515 18.0502C30.7515 18.3728 31.0084 18.5052 31.1344 18.5474C31.4828 18.6641 32.2705 18.7485 32.8695 18.8126C32.985 18.825 33.0936 18.8367 33.1905 18.8476C33.7626 18.9124 34.9588 19.0858 35.4879 19.2263C35.7605 19.2984 36.0936 19.4276 36.3047 19.535C36.547 19.6581 36.7795 19.8178 36.9699 20.0238C37.1096 20.175 37.5068 20.672 37.5068 21.4728C37.5068 22.307 37.0504 22.7666 36.8423 22.9459C36.4579 23.2774 35.9848 23.4904 35.6019 23.609L35.5638 23.6208C35.1588 23.7463 34.5739 23.9275 33.5132 23.9275C32.8778 23.9275 32.5322 23.8489 32.0388 23.7369L31.9551 23.7179C31.2971 23.5692 30.6678 23.2982 30.4534 23.1928C30.2811 23.1086 30.2313 23.2857 30.2313 23.3287V23.7069H29.2049V20.9076H30.1283C30.1283 21.2398 30.2744 21.5753 30.367 21.6973C30.7394 22.1894 31.1385 22.3832 31.5191 22.5297C31.8492 22.6575 32.7548 22.9025 33.5081 22.9025C34.4704 22.9025 35.03 22.6519 35.1594 22.5939L35.1781 22.5856L35.1947 22.5786C35.3101 22.5307 35.7335 22.3547 35.7335 21.8411C35.7335 21.3171 35.3185 21.2042 35.0488 21.1308L35.017 21.1221C34.6986 21.0349 33.9417 20.9487 33.1499 20.8585L33.1499 20.8585L33.0149 20.8431C32.1691 20.7475 31.3199 20.6031 30.9226 20.5091C30.0577 20.3045 29.7125 19.9599 29.5 19.7477L29.4827 19.7304C29.4962 19.7441 28.9997 19.2491 29 18.4039ZM53.1286 16.4467L57.6442 20.8555L57.5978 17.8871C57.5933 17.4979 57.527 17.3354 57.1378 17.3354H56.2888V16.4474H60.1498V17.3354H59.3216C58.9247 17.3354 58.8996 17.4727 58.8948 17.8871L58.9648 23.559H57.6426L52.4415 18.537L52.4426 22.1012C52.4471 22.4886 52.4639 22.6711 52.8329 22.6711H53.7602V23.5587H49.9684V22.6712H50.8548C51.1738 22.6712 51.1732 22.354 51.1728 22.1085L51.1727 22.081V17.9209C51.1727 17.6523 51.1379 17.336 50.618 17.336H49.8988V16.4467H53.1286ZM64.9679 22.4834C64.9399 22.5551 64.8794 22.6239 64.7902 22.654C64.759 22.6643 64.598 22.6693 64.5619 22.6693L63.7581 22.6686V23.5568H68.2626V22.6687H67.4146C67.3784 22.6687 67.2195 22.6636 67.1883 22.6532C67.0992 22.6234 67.0384 22.5546 67.0103 22.4825C66.9985 22.4526 66.9926 22.3192 66.9926 22.2908V20.8876C66.9926 20.8852 66.9926 20.8827 66.9926 20.8801C66.9924 20.8459 66.9921 20.7941 67.023 20.7562C67.0443 20.73 67.3219 20.3872 67.6851 19.9389C68.4022 19.0535 69.4529 17.7563 69.5216 17.6722C69.7478 17.3955 69.8702 17.3353 70.171 17.3353H71V16.447H67.2892V17.3353H67.8491C68.0072 17.3353 68.057 17.5153 67.9836 17.6104C67.9714 17.6259 66.4289 19.5871 66.4099 19.6068C66.3905 19.6259 66.3783 19.6209 66.3641 19.5999C66.3497 19.5793 64.8263 17.6078 64.8263 17.6078C64.7185 17.4638 64.8024 17.3343 64.9286 17.3343H65.4745V16.447H60.9467V17.3354H61.749C62.0988 17.3354 62.329 17.5744 62.4602 17.7291C62.5658 17.8536 64.8728 20.6821 64.931 20.7643C64.984 20.8394 64.9862 20.854 64.9862 20.8878L64.9856 22.2911C64.9856 22.32 64.9797 22.4533 64.9679 22.4834Z" fill="white"/>
</svg>
