<svg width="100" height="40" viewBox="0 0 100 40" fill="none" xmlns="http://www.w3.org/2000/svg">
<path d="M100 0H0V40H100V0Z" fill="#1D1F23"/>
<path d="M62.3058 12V27.7931H37.8457V15.9169C37.8457 13.7635 39.4732 12 41.4617 12H62.3058ZM50.4528 16.9727C49.5137 16.9727 48.8534 17.2 48.3049 17.7035C47.7525 18.2173 47.4528 19.02 47.4528 19.8285V19.8765C47.4528 20.7604 47.7116 21.4246 48.2782 21.9823C48.808 22.5038 49.5766 22.7354 50.4351 22.7324C51.1959 22.7324 51.8555 22.5427 52.3078 22.1746C52.8063 21.7665 53.1457 21.1896 53.1865 20.4342H51.651L51.6431 20.4873C51.5878 20.8225 51.3793 21.4438 50.4439 21.4438C50.0424 21.4438 49.7413 21.3173 49.4853 21.0592C49.2351 20.8065 49.0504 20.4212 49.0504 19.8958V19.8092C49.0504 19.2865 49.2351 18.8969 49.4853 18.6458C49.7413 18.3858 50.0445 18.2708 50.4439 18.2708C51.3876 18.2708 51.5822 18.8742 51.6422 19.2708H53.1777C53.14 18.47 52.7878 17.905 52.2901 17.5304C51.7948 17.1573 51.2168 16.9727 50.4528 16.9727ZM47.0534 17.2612H41.4617V18.7708H43.3966V22.5208H45.1185V18.7708H47.0534V17.2612ZM55.7694 17.2612H54.1096V22.5208H58.5031V21.0785H55.7694V17.2612Z" fill="#F2F2F2"/>
</svg>
