<svg width="32" height="32" viewBox="0 0 32 32" fill="none" xmlns="http://www.w3.org/2000/svg">
<path d="M32 16C32 19.1645 31.0616 22.258 29.3035 24.8892C27.5454 27.5203 25.0465 29.5711 22.1229 30.7821C19.1993 31.9931 15.9822 32.3099 12.8785 31.6926C9.77485 31.0752 6.92392 29.5514 4.68628 27.3137C2.44864 25.0761 0.924798 22.2252 0.307435 19.1215C-0.309929 16.0178 0.00695515 12.8007 1.21796 9.87708C2.42896 6.95346 4.47972 4.45464 7.1109 2.69653C9.74209 0.938431 12.8355 0 16 0C20.2435 0 24.3131 1.68576 27.3137 4.68634C30.3143 7.68692 32 11.7565 32 16Z" fill="#0088CC"/>
<path d="M6.03988 15.7699C11.6299 13.3099 18.8698 10.31 19.8698 9.89995C22.4898 8.80995 23.2898 9.01992 22.8698 11.4299C22.5798 13.1599 21.7499 18.8799 21.0899 22.4299C20.6999 24.5399 19.8198 24.7899 18.4298 23.8799C17.7698 23.4399 14.4298 21.2099 13.6698 20.6899C12.9098 20.1699 12.0898 19.6899 13.2398 18.5099L18.4298 13.5099C18.4797 13.4556 18.5086 13.3853 18.5113 13.3116C18.5139 13.238 18.4902 13.1658 18.4445 13.108C18.3987 13.0502 18.3339 13.0106 18.2616 12.9963C18.1892 12.982 18.1141 12.9939 18.0498 13.03C15.2198 14.9 11.3098 17.5 10.8098 17.84C10.4156 18.1317 9.95374 18.3186 9.46755 18.3834C8.98137 18.4481 8.48673 18.3884 8.02987 18.21C7.02987 17.93 6.09987 17.6 5.71987 17.47C4.30987 17.02 4.64988 16.3899 6.03988 15.7699Z" fill="white"/>
</svg>
