<svg width="32" height="32" viewBox="0 0 32 32" fill="none" xmlns="http://www.w3.org/2000/svg">
<path fill-rule="evenodd" clip-rule="evenodd" d="M0 16C0 7.16344 7.16344 0 16 0C24.8366 0 32 7.16344 32 16C32 24.8366 24.8366 32 16 32C7.16344 32 0 24.8366 0 16Z" fill="#F2F2F2"/>
<path d="M14.61 21.195C15.7163 21.195 16.6135 20.2979 16.6135 19.1915V18.7908V18.3901V8.8014H18.7003C18.6879 8.7453 18.6715 8.69081 18.6615 8.63351H18.6611C18.6434 8.53413 18.6306 8.43516 18.6214 8.33458V8H15.8121V17.5887V17.9894V18.3901C15.8121 19.4965 14.9149 20.3936 13.8086 20.3936C13.4624 20.3936 13.1414 20.2979 12.8569 20.1432C13.1967 20.7667 13.8499 21.195 14.61 21.195Z" fill="#3DD9EB"/>
<path d="M20.1066 10.9403C19.7873 10.5019 19.5601 9.99184 19.4627 9.43526H19.4623C19.4447 9.33589 19.4319 9.23692 19.4227 9.13634V8.80176H18.7002C18.8969 9.67608 19.4058 10.4294 20.1066 10.9403Z" fill="#F55376"/>
<path d="M13.8082 16.3868C12.7019 16.3868 11.8047 17.284 11.8047 18.3903C11.8047 19.1504 12.233 19.8036 12.8565 20.1434C12.7019 19.8589 12.6061 19.5379 12.6061 19.1917C12.6061 18.0854 13.5033 17.1882 14.6096 17.1882C14.747 17.1882 14.8809 17.2022 15.0103 17.2287V14.4037C14.8777 14.3925 14.745 14.3833 14.6096 14.3833C14.4741 14.3833 14.3415 14.3925 14.2089 14.4033V16.4269C14.0795 16.4008 13.9456 16.3868 13.8082 16.3868Z" fill="#F55376"/>
<path d="M21.1239 11.8919C21.4713 12.1087 21.8528 12.2558 22.2483 12.3451V12.1944V12.1936V11.6403C21.5671 11.6415 20.9003 11.4507 20.3225 11.0901C20.248 11.0436 20.1779 10.9911 20.1069 10.9395C20.3822 11.3181 20.7256 11.6435 21.1239 11.8919Z" fill="#3DD9EB"/>
<path d="M14.2091 14.403V13.6016C14.0765 13.5908 13.9438 13.5815 13.8084 13.5815C11.153 13.5815 9 15.7345 9 18.3899C9 19.9222 9.71926 21.2838 10.8356 22.1641C10.1897 21.3459 9.8014 20.3149 9.8014 19.1913C9.8014 16.6709 11.7416 14.6073 14.2091 14.403Z" fill="#3DD9EB"/>
<path d="M22.2478 12.3452V14.2417C20.8954 14.2417 19.6428 13.8126 18.6206 13.0821L18.6218 18.3902L18.6162 18.383C18.6162 18.3854 18.6166 18.3878 18.6166 18.3902C18.6166 21.0456 16.4637 23.1986 13.8082 23.1986C12.6847 23.1986 11.6537 22.8103 10.8354 22.1644C11.7158 23.2807 13.0774 24 14.6096 24C17.2651 24 19.418 21.847 19.418 19.1916C19.418 19.1892 19.4176 19.1868 19.4176 19.1844L19.4232 19.1916L19.4224 13.8831C20.4446 14.6136 21.6972 15.0427 23.0496 15.0427V12.996V12.9951V12.4418C22.7779 12.4426 22.5102 12.4041 22.2478 12.3452Z" fill="#F55376"/>
<path d="M18.6167 18.3904C18.6167 18.388 18.6163 18.3856 18.6163 18.3832L18.6219 18.3904L18.6211 13.0819C19.6433 13.8124 20.8958 14.2416 22.2482 14.2416V12.3451C21.8527 12.2557 21.4712 12.1086 21.1238 11.8919C20.7255 11.6434 20.3821 11.3181 20.1069 10.9398C19.4056 10.4289 18.8971 9.6756 18.7004 8.80127H16.6132V18.3904V18.7911V19.1918C16.6132 20.2981 15.716 21.1953 14.6097 21.1953C13.8495 21.1953 13.1964 20.767 12.8566 20.1435C12.2331 19.8037 11.8048 19.1505 11.8048 18.3904C11.8048 17.2841 12.7019 16.3869 13.8083 16.3869C13.9457 16.3869 14.0795 16.4009 14.209 16.4274V14.4038C11.7415 14.6078 9.80127 16.6714 9.80127 19.1918C9.80127 20.3154 10.1895 21.3464 10.8355 22.1646C11.6537 22.8105 12.6847 23.1988 13.8083 23.1988C16.4637 23.1988 18.6167 21.0458 18.6167 18.3904Z" fill="#2100C4"/>
</svg>
