<svg width="32" height="32" viewBox="0 0 32 32" fill="none" xmlns="http://www.w3.org/2000/svg">
<path fill-rule="evenodd" clip-rule="evenodd" d="M0 16C0 7.16344 7.16344 0 16 0C24.8366 0 32 7.16344 32 16C32 24.8366 24.8366 32 16 32C7.16344 32 0 24.8366 0 16Z" fill="#252930"/>
<path d="M22.125 15.0687C22.0009 15.08 21.8752 15.0874 21.7479 15.0874C20.3142 15.0874 19.0543 14.3665 18.3214 13.2767C18.3214 16.1355 18.3214 19.3882 18.3214 19.4427C18.3214 21.9595 16.2345 24 13.6607 24C11.0868 24 9 21.9595 9 19.4427C9 16.926 11.0868 14.8854 13.6607 14.8854C13.758 14.8854 13.8531 14.894 13.9487 14.8998V17.1456C13.8531 17.1344 13.7591 17.1173 13.6607 17.1173C12.3467 17.1173 11.282 18.1584 11.282 19.4432C11.282 20.7281 12.3467 21.7692 13.6607 21.7692C14.9747 21.7692 16.135 20.7569 16.135 19.4721C16.135 19.4213 16.158 9 16.158 9H18.3531C18.5597 10.9192 20.1442 12.4339 22.125 12.5728V15.0687Z" fill="white"/>
</svg>
