<svg width="100" height="40" viewBox="0 0 100 40" fill="none" xmlns="http://www.w3.org/2000/svg">
<path d="M100 0H0V40H100V0Z" fill="#1D1F23"/>
<path d="M39.4328 16.8069V17.0731C39.4328 19.4724 39.4277 21.8721 39.4366 24.2714C39.4386 24.7955 39.0542 25.2952 38.5562 25.3932C37.9508 25.5125 37.3606 25.0956 37.2636 24.467C37.2528 24.3949 37.2476 24.322 37.248 24.249C37.248 21.8495 37.248 19.4501 37.248 17.0507V16.8069H37.0354C36.0549 16.8069 35.0743 16.8069 34.0937 16.8069C33.7703 16.8069 33.4815 16.6964 33.2702 16.4235C33.059 16.1506 32.961 15.8361 33.0216 15.4804C33.0454 15.3386 33.0661 15.192 33.1172 15.0609C33.293 14.6079 33.6502 14.4113 34.0699 14.4094C37.0286 14.3974 39.9873 14.3968 42.9459 14.4076C43.4524 14.4076 43.8303 14.6963 44.028 15.2303C44.3205 16.0206 44.6351 16.8017 44.9386 17.5872C45.2355 18.3562 45.5297 19.127 45.8264 19.8963C46.1056 20.6211 46.3873 21.3447 46.6665 22.0691C46.774 22.3479 46.8737 22.63 46.9877 22.9055C47.0166 22.9762 47.0853 23.0274 47.136 23.0874C47.1836 23.0241 47.2475 22.9685 47.2761 22.8963C47.5977 22.0792 47.9159 21.2607 48.2309 20.4406C48.5639 19.5767 48.8912 18.7097 49.2245 17.8465C49.5043 17.1215 49.787 16.3978 50.0725 15.6755C50.1708 15.4258 50.2593 15.1688 50.3787 14.9324C50.5827 14.5313 51.0685 14.3383 51.5168 14.4448C51.9536 14.5486 52.2373 14.9423 52.3332 15.4236C52.4087 15.8059 52.2478 16.0976 52.1291 16.411C51.7638 17.3784 51.3896 18.3418 51.0168 19.3056C50.6834 20.1701 50.3484 21.0334 50.0116 21.8957C49.7273 22.6252 49.4711 23.3688 49.1487 24.0788C48.7993 24.8478 48.202 25.279 47.404 25.3943C46.9804 25.4569 46.5491 25.3838 46.1635 25.184C45.577 24.8864 45.2042 24.3712 44.9661 23.7231C44.6984 22.9935 44.4072 22.2739 44.1276 21.5502C43.8276 20.7747 43.5291 19.9993 43.232 19.2242C42.9807 18.5721 42.7283 17.9202 42.4748 17.2683C42.4632 17.2477 42.4537 17.2257 42.4466 17.2028C42.3901 16.8529 42.1942 16.7863 41.8853 16.7977C41.1435 16.8264 40.4006 16.8069 39.658 16.8069H39.4328Z" fill="#F2F2F2"/>
<path d="M60.0812 22.1841V22.4029C60.0812 22.998 60.0812 23.5931 60.0812 24.1883C60.0788 24.871 59.6655 25.3704 59.0114 25.4194C58.4372 25.4621 57.9341 24.969 57.895 24.4361C57.8821 24.2604 57.863 24.0848 57.861 23.9087C57.8589 21.6814 57.8477 19.4526 57.8647 17.2268C57.8729 16.1481 58.3321 15.325 59.1992 14.777C59.6172 14.513 60.0734 14.4098 60.5486 14.4058C61.467 14.3977 62.3854 14.3995 63.3038 14.4058C63.9049 14.4095 64.4852 14.5343 65.0161 14.8477C66.0883 15.4812 66.7669 16.4313 66.9516 17.7571C67.1057 18.8619 66.855 19.8618 66.206 20.7221C65.6036 21.5205 64.8185 22.0081 63.8644 22.1469C63.6974 22.171 63.5291 22.1833 63.3606 22.1837C62.3401 22.1867 61.3197 22.1837 60.2992 22.1837L60.0812 22.1841ZM60.0812 19.8168H60.304C61.3132 19.8168 62.3225 19.8095 63.3314 19.8194C64.2137 19.8279 64.9607 18.9753 64.7637 18.0009C64.6311 17.3443 64.1103 16.8353 63.5116 16.8162C62.4912 16.7837 61.4707 16.8062 60.4502 16.808C60.2257 16.808 60.0815 16.9752 60.0812 17.2275C60.0812 17.9151 60.0812 18.6023 60.0812 19.2898V19.8168Z" fill="#F2F2F2"/>
<path d="M53.9124 19.9051V15.5436C53.9124 14.9735 54.2968 14.5169 54.8203 14.4366C55.4859 14.3342 55.9689 14.7982 56.0856 15.3694C56.0965 15.4354 56.1007 15.5025 56.0982 15.5694C56.0982 18.4648 56.0982 21.3602 56.0982 24.2555C56.0982 24.8448 55.7206 25.2985 55.1798 25.3913C54.4876 25.5102 54.0233 25.0127 53.928 24.503C53.917 24.4372 53.9118 24.3703 53.9127 24.3034C53.912 22.8374 53.9119 21.3713 53.9124 19.9051Z" fill="#F2F2F2"/>
</svg>
