<svg xmlns="http://www.w3.org/2000/svg" width="45" height="16">
  <g fill="none">
    <path fill="#00579F" d="M29.18.75c1.397 0 2.527.312 3.24.595l-.492 3.017-.327-.149a6.151 6.151 0 00-2.69-.535c-1.427 0-2.066.61-2.081 1.204 0 .654.774 1.085 2.037 1.724 2.081.996 3.047 2.215 3.032 3.805-.029 2.898-2.497 4.771-6.287 4.771-1.62-.015-3.182-.357-4.029-.743l.506-3.136.475.223c1.175.52 1.947.743 3.39.743 1.04 0 2.155-.431 2.17-1.367 0-.61-.476-1.056-1.874-1.74-1.367-.669-3.195-1.783-3.166-3.79C23.1 2.652 25.612.75 29.18.75zm-7.597.253l-2.259 13.971h-3.612l2.26-13.97h3.611zm20.097 0l2.914 13.97h-3.345s-.327-1.604-.43-2.095H36.18l-.758 2.096h-3.79l5.365-12.812c.373-.906 1.027-1.159 1.889-1.159h2.794zm-25.166 0L10.836 14.96h-3.82L3.776 2.742c2.289 1.204 4.34 3.626 4.994 5.856l.387 1.932 3.537-9.527h3.82zm22.624 3.775c-.178.52-.49 1.368-.475 1.338l-1.443 3.909h3.002c-.148-.699-.832-4.043-.832-4.043z"/>
    <path fill="#FAA61A" d="M5.872 1.003H.059L0 1.286C4.534 2.445 7.536 5.24 8.77 8.598l-1.263-6.42c-.208-.893-.848-1.145-1.635-1.175z"/>
  </g>
</svg>
