<svg xmlns="http://www.w3.org/2000/svg" width="24" height="24">
  <g fill="none" fill-rule="evenodd">
    <path fill="#21252D" d="M12 0c6.627 0 12 5.373 12 12s-5.373 12-12 12S0 18.627 0 12 5.373 0 12 0z"/>
    <path fill="#F2F2F2" d="M10.273 9.158c-.205.103-.364.332-.267.345.12.016.39.075.532.274.135.187.168.544.176.724l.003.11s.106 1.592-.248 1.79c-.243.135-.577-.141-1.293-1.407-.196-.346-.366-.71-.482-.976l-.162-.389s-.054-.134-.15-.206a.723.723 0 00-.276-.114l-1.715.012s-.257.007-.352.122c-.084.101-.006.312-.006.312l.22.497c.44.966 1.49 3.106 2.642 4.332 1.145 1.22 2.417 1.371 2.835 1.386h.858s.217-.024.328-.146c.102-.111.098-.322.098-.322l.002-.103c.011-.257.074-.91.431-1.026.44-.143 1.006.951 1.605 1.372.453.318.797.249.797.249l1.603-.023s.743-.047.499-.614l-.111-.208c-.098-.168-.352-.547-.985-1.167l-.437-.42c-.68-.669-.457-.704.623-2.177.738-1.004 1.032-1.618.94-1.88-.087-.25-.63-.184-.63-.184l-1.804.011s-.134-.018-.233.042a.436.436 0 00-.131.146l-.028.052s-.249.677-.592 1.305l-.075.134c-.803 1.394-1.124 1.468-1.256 1.382-.194-.129-.234-.422-.237-.73l.013-.915c.028-1.065.133-1.53-.395-1.66l-.128-.03c-.15-.032-.324-.052-.715-.056L11.357 9c-.46.005-.844.037-1.084.157z"/>
  </g>
</svg>
