<svg xmlns="http://www.w3.org/2000/svg" width="24" height="24">
  <g fill="none" fill-rule="evenodd">
    <path fill="#4C6C91" d="M0 12C0 5.373 5.373 0 12 0s12 5.373 12 12-5.373 12-12 12S0 18.627 0 12z"/>
    <path fill="#F2F2F2" d="M12.588 15.97s.217-.024.328-.146c.102-.111.098-.322.098-.322s-.013-.984.433-1.129c.44-.143 1.006.951 1.605 1.372.453.318.797.249.797.249l1.603-.023s.838-.053.441-.727c-.033-.055-.232-.499-1.191-1.41-1.006-.953-.87-.8.34-2.449.737-1.004 1.031-1.618.94-1.88-.088-.25-.63-.184-.63-.184l-1.805.011s-.134-.018-.233.042c-.097.06-.16.198-.16.198s-.285.777-.666 1.439c-.803 1.394-1.124 1.468-1.256 1.382-.305-.202-.23-.812-.23-1.244 0-1.352.202-1.916-.39-2.062-.195-.048-.34-.08-.842-.085-.644-.007-1.188.002-1.497.156-.205.103-.364.332-.267.345.12.016.39.075.532.274.185.257.179.835.179.835s.106 1.591-.248 1.789c-.243.135-.577-.141-1.293-1.407-.367-.648-.644-1.365-.644-1.365s-.054-.134-.15-.206a.723.723 0 00-.276-.114l-1.715.012s-.257.007-.352.122c-.084.101-.006.312-.006.312s1.342 3.21 2.862 4.83c1.394 1.483 2.976 1.386 2.976 1.386h.717z"/>
  </g>
</svg>
