<svg xmlns="http://www.w3.org/2000/svg" width="24" height="24">
  <g fill="none" fill-rule="evenodd">
    <path fill="#21252D" d="M12 0c6.627 0 12 5.373 12 12s-5.373 12-12 12S0 18.627 0 12 5.373 0 12 0z"/>
    <path fill="#F2F2F2" d="M12.36 8c.66.005 2.115.02 3.335.084l.506.03.202.02.093.013c.257.04.595.14.907.45.264.253.397.742.45.985l.027.144.025.215c.023.218.058.58.078.989l.012.314.005.324v.863l-.005.324-.017.415c-.008.134-.016.261-.026.379l-.028.32-.044.404-.009.051c-.033.18-.164.786-.468 1.078-.342.34-.716.427-.98.46l-.222.022-.451.028-.608.028c-.928.037-1.901.053-2.514.059l-.937.001-1.455-.023c-.879-.018-1.85-.046-2.316-.088-.267-.048-.867-.033-1.323-.487-.264-.253-.397-.742-.45-.985l-.027-.144-.018-.155c-.022-.197-.06-.563-.082-.988l-.015-.375L6 12.43v-.863l.002-.232c.007-.307.024-.606.044-.86l.03-.346.044-.404.037-.187c.058-.254.19-.704.44-.943.342-.34.715-.426.98-.459l.222-.022.407-.025.396-.02c.538-.024 1.103-.04 1.615-.05l.718-.012zm-1.6 2.28l.001 3.197 3.242-1.593-3.242-1.604z"/>
  </g>
</svg>
