<svg xmlns="http://www.w3.org/2000/svg" width="24" height="24">
  <g fill="none" fill-rule="evenodd">
    <path fill="#CE1312" d="M0 12C0 5.373 5.373 0 12 0s12 5.373 12 12-5.373 12-12 12S0 18.627 0 12z"/>
    <path fill="#F2F2F2" d="M10.935 8.008L12.23 8c.658.003 2.595.02 3.97.115l.202.02c.265.03.649.113 1 .461.264.254.397.743.45.986l.027.144s.093.717.115 1.518l.005.324v.863l-.005.324c-.011.427-.043.83-.07 1.114l-.045.404s-.117.784-.477 1.13c-.456.453-.968.455-1.202.481l-.451.028c-1.086.058-2.373.08-3.122.087L11.69 16c-.812-.01-2.996-.04-3.771-.111-.267-.048-.867-.033-1.323-.487-.264-.253-.397-.742-.45-.985l-.027-.144s-.093-.717-.115-1.518L6 12.43v-.863c0-.542.042-1.084.076-1.438l.044-.404s.117-.784.477-1.13c.456-.453.967-.455 1.202-.481l.407-.025c.907-.05 1.962-.072 2.729-.082zm-.174 2.272v3.197l3.242-1.593-3.242-1.604z"/>
  </g>
</svg>
